<?xml version="1.0" encoding="UTF-8"?>
<svg version="1.1" xmlns="http://www.w3.org/2000/svg" width="251" height="200">
<path d="M0 0 C0.65441039 -0.00467997 1.30882078 -0.00935994 1.98306179 -0.01418173 C4.15631864 -0.0260624 6.32893674 -0.0167024 8.50219727 -0.00723267 C10.0682105 -0.01130147 11.63422087 -0.01664509 13.20022583 -0.02316284 C17.43988753 -0.03680555 21.6793295 -0.03155043 25.9189949 -0.02202559 C30.36266915 -0.01441318 34.80632499 -0.02147899 39.25 -0.02618408 C46.71137864 -0.03163703 54.17266811 -0.02446212 61.6340332 -0.01016235 C70.25180553 0.00616328 78.8693649 0.00087445 87.48713207 -0.01564157 C94.89540774 -0.02926957 102.30361942 -0.03116968 109.71190357 -0.02332556 C114.1325053 -0.01865627 118.55300705 -0.0180037 122.97360229 -0.02793503 C127.13022674 -0.03662156 131.28657748 -0.03055212 135.44317245 -0.01325226 C136.9657127 -0.0092964 138.48827611 -0.010406 140.01080704 -0.01704025 C142.09491462 -0.02528203 144.17815422 -0.01490396 146.26220703 0 C147.42655777 0.00113108 148.59090851 0.00226215 149.7905426 0.00342751 C155.17322135 0.61173472 160.0950566 2.66778777 164.13110352 6.38095093 C164.13110352 7.04095093 164.13110352 7.70095093 164.13110352 8.38095093 C164.79110352 8.38095093 165.45110352 8.38095093 166.13110352 8.38095093 C166.95223529 9.77172393 167.76262846 11.16883985 168.56860352 12.56845093 C169.02106445 13.34575562 169.47352539 14.1230603 169.93969727 14.92391968 C171.98305789 19.13793224 172.25564384 23.25422885 172.34204102 27.88876343 C172.54029759 58.46711178 172.54029759 58.46711178 184.54125977 85.95126343 C188.63186194 89.6297902 193.972155 91.66130142 199.13110352 93.38095093 C199.13110352 98.00095093 199.13110352 102.62095093 199.13110352 107.38095093 C197.76985352 107.77282593 196.40860352 108.16470093 195.00610352 108.56845093 C187.01545528 111.3070299 183.33050647 115.64076569 179.51782227 123.00595093 C175.16076306 133.61017389 173.09788823 145.71939845 172.92016602 157.12704468 C172.89180664 158.37679077 172.86344727 159.62653687 172.83422852 160.91415405 C172.78222621 163.51296918 172.73793092 166.11195018 172.70141602 168.71102905 C172.47900982 177.7045795 171.51841864 184.88555597 166.13110352 192.38095093 C165.47110352 192.38095093 164.81110352 192.38095093 164.13110352 192.38095093 C164.13110352 193.04095093 164.13110352 193.70095093 164.13110352 194.38095093 C162.52172852 195.63485718 162.52172852 195.63485718 160.38110352 196.94345093 C159.68500977 197.37786499 158.98891602 197.81227905 158.27172852 198.25985718 C154.13574514 200.42596526 150.38983644 200.51077186 145.75704956 200.52812195 C144.44498032 200.53527725 143.13291107 200.54243256 141.78108215 200.54980469 C140.328583 200.55264481 138.87608359 200.55535655 137.42358398 200.55795288 C135.89243924 200.56422013 134.361296 200.57086716 132.83015442 200.5778656 C127.80287734 200.59888086 122.77560005 200.609267 117.74829102 200.61923218 C116.01499541 200.62328096 114.28169997 200.62739792 112.54840469 200.63158226 C104.40267349 200.65062996 96.25695131 200.66486074 88.11120212 200.67319423 C78.72209158 200.68295934 69.33321725 200.70926159 59.94418991 200.74969512 C52.67861832 200.77990534 45.41311424 200.79466783 38.14748108 200.79797524 C33.81218167 200.80032052 29.47713471 200.80921235 25.14190292 200.83443642 C21.05915731 200.85780767 16.97682874 200.86191431 12.89403343 200.85167503 C11.40176311 200.85118172 9.90947163 200.85744141 8.41726494 200.87123108 C-1.01586002 200.95347293 -9.54316898 200.50297742 -17.27124023 194.52157593 C-18.03114258 193.58571655 -18.03114258 193.58571655 -18.80639648 192.63095093 C-19.33104492 192.01735718 -19.85569336 191.40376343 -20.39624023 190.77157593 C-25.17718285 183.01047014 -25.28468606 175.98092153 -25.36889648 167.06845093 C-26.03161014 138.86154649 -26.03161014 138.86154649 -38.19311523 113.96688843 C-42.13954117 110.23204244 -46.6834603 108.67730997 -51.86889648 107.38095093 C-51.86889648 102.76095093 -51.86889648 98.14095093 -51.86889648 93.38095093 C-50.38389648 92.90657593 -48.89889648 92.43220093 -47.36889648 91.94345093 C-40.0761179 88.96238585 -35.84559573 84.37553065 -32.36889648 77.34970093 C-26.38016978 62.09270671 -25.49439221 45.94650619 -25.3347168 29.72006226 C-25.17785331 20.97878017 -24.18795189 14.30510243 -18.11889648 7.56845093 C-17.48467773 6.84013062 -16.85045898 6.1118103 -16.19702148 5.36141968 C-11.24937346 1.15259829 -6.37463701 0.00619247 0 0 Z M36.13110352 48.38095093 C36.13110352 82.70095093 36.13110352 117.02095093 36.13110352 152.38095093 C74.05258101 156.19470674 74.05258101 156.19470674 108.76782227 142.93563843 C115.00244712 136.08316787 115.69136892 128.59848054 115.48266602 119.72860718 C114.73376877 112.59744119 111.53596339 108.01368796 106.13110352 103.38095093 C101.38979672 99.58790549 98.0278564 98.78762354 92.13110352 98.38095093 C93.13110352 96.38095093 93.13110352 96.38095093 96.75610352 94.75595093 C102.94319842 91.76255429 107.00758574 87.16532108 109.56860352 80.81845093 C110.94947367 72.37979997 109.22837724 66.39110482 106.00610352 58.69345093 C101.21613893 52.78582794 95.32453119 50.43621598 88.13110352 48.38095093 C70.97110352 48.38095093 53.81110352 48.38095093 36.13110352 48.38095093 Z " fill="#7C11F8" transform="translate(51.868896484375,-0.380950927734375)"/>
<path d="M0 0 C4.08926849 -0.0750148 8.17826207 -0.12900317 12.26806641 -0.16479492 C13.65485627 -0.17973947 15.04160007 -0.20010278 16.42822266 -0.22631836 C35.46257204 -0.57677028 35.46257204 -0.57677028 41.92919922 4.52075195 C46.3099907 8.82051854 47.68952488 13.98454447 48 20 C47.33320492 25.00096308 45.69515496 28.33427182 41.92919922 31.62084961 C33.98637898 37.29903128 23.66282412 36.3630962 14.375 36.1875 C12.97527492 36.17241606 11.575534 36.15873425 10.17578125 36.14648438 C6.78344156 36.11139121 3.39193225 36.06222265 0 36 C-1.07700222 32.76899333 -1.12925565 30.40876919 -1.1328125 27.01171875 C-1.13410156 25.83029297 -1.13539062 24.64886719 -1.13671875 23.43164062 C-1.13285156 22.19607422 -1.12898438 20.96050781 -1.125 19.6875 C-1.12886719 18.46353516 -1.13273437 17.23957031 -1.13671875 15.97851562 C-1.13542969 14.79322266 -1.13414063 13.60792969 -1.1328125 12.38671875 C-1.13168457 11.30608154 -1.13055664 10.22544434 -1.12939453 9.11206055 C-0.99993812 5.99851171 -0.57836561 3.05924968 0 0 Z " fill="#7911F5" transform="translate(104,104)"/>
<path d="M0 0 C1.43472656 -0.01836914 1.43472656 -0.01836914 2.8984375 -0.03710938 C11.78643814 -0.05517442 20.49099332 0.04663027 27.15625 6.5546875 C30.18462947 10.23452069 30.70144941 13.64311034 30.3125 18.25 C29.51521507 23.06120217 27.74042141 26.0141284 24.1875 29.375 C16.30123414 34.69364442 6.66398519 34.34149908 -2.5 34.25 C-3.37011719 34.24548828 -4.24023438 34.24097656 -5.13671875 34.23632812 C-7.25784293 34.2246736 -9.3789311 34.20674357 -11.5 34.1875 C-13.24098753 30.41744476 -13.74744681 27.47658568 -13.73046875 23.3359375 C-13.72853516 22.23765625 -13.72660156 21.139375 -13.72460938 20.0078125 C-13.71236328 18.87085937 -13.70011719 17.73390625 -13.6875 16.5625 C-13.68685547 15.4178125 -13.68621094 14.273125 -13.68554688 13.09375 C-13.64062967 4.60938901 -13.64062967 4.60938901 -12.5 1.1875 C-8.72805239 -0.6984738 -4.1495543 0.00270859 0 0 Z " fill="#811BF3" transform="translate(116.5,58.8125)"/>
<path d="M0 0 C0 0.33 0 0.66 0 1 C2.64 1.33 5.28 1.66 8 2 C4.78244632 3.90664849 2.48931568 4.22546883 -1.22753906 4.13525391 C-2.28279785 4.11470947 -3.33805664 4.09416504 -4.42529297 4.07299805 C-5.52760254 4.04117432 -6.62991211 4.00935059 -7.765625 3.9765625 C-8.78382324 3.95489014 -9.80202148 3.93321777 -10.85107422 3.91088867 C-14.65098412 3.82695492 -18.4504761 3.72489123 -22.25 3.625 C-30.7475 3.41875 -39.245 3.2125 -48 3 C-48 37.32 -48 71.64 -48 107 C-35.4084375 106.814375 -35.4084375 106.814375 -22.5625 106.625 C-19.92967041 106.59100098 -17.29684082 106.55700195 -14.58422852 106.52197266 C-12.47410875 106.4867342 -10.36400029 106.4508094 -8.25390625 106.4140625 C-7.17717651 106.40270264 -6.10044678 106.39134277 -4.99108887 106.37963867 C3.31283137 106.22168625 11.11016678 105.65506839 18.3125 101.1875 C19.11300781 100.70667969 19.91351563 100.22585937 20.73828125 99.73046875 C25.64370503 95.97726886 27.58866909 92.06149144 29.25 86.1875 C29.58515625 85.02605469 29.9203125 83.86460937 30.265625 82.66796875 C30.62914062 81.34732422 30.62914062 81.34732422 31 80 C31.66 80 32.32 80 33 80 C32.67 82.97 32.34 85.94 32 89 C31.34 89 30.68 89 30 89 C29.85884766 90.10794922 29.85884766 90.10794922 29.71484375 91.23828125 C28.89502172 94.40557181 27.7740132 95.81046814 25.5625 98.1875 C24.94503906 98.86167969 24.32757813 99.53585938 23.69140625 100.23046875 C22.47622934 101.50177392 21.24355775 102.75644225 20 104 C20.33 104.66 20.66 105.32 21 106 C19.9275 106.144375 18.855 106.28875 17.75 106.4375 C14.29259209 106.87761998 14.29259209 106.87761998 12.15234375 107.51538086 C6.92083216 108.69330174 1.33975517 108.40329909 -4 108.5625 C-5.22589844 108.60568359 -6.45179688 108.64886719 -7.71484375 108.69335938 C-21.47364609 109.12632868 -35.23587369 109.04153851 -49 109 C-49.02333048 95.06620728 -49.04091349 81.13241757 -49.05181217 67.19860935 C-49.05704168 60.7293232 -49.06414056 54.26005011 -49.07543945 47.79077148 C-49.08626592 41.553297 -49.09227632 35.31583513 -49.09487724 29.07835197 C-49.09673193 26.69279723 -49.10035336 24.30724321 -49.10573006 21.9216938 C-49.11293729 18.59304409 -49.11399108 15.26444721 -49.11352539 11.93579102 C-49.11712067 10.93885727 -49.12071594 9.94192352 -49.12442017 8.91477966 C-49.1230455 8.01309052 -49.12167084 7.11140137 -49.12025452 6.18238831 C-49.12117631 5.3942553 -49.1220981 4.6061223 -49.12304783 3.79410648 C-49 2 -49 2 -48 1 C-45.13821553 0.83938867 -42.29802361 0.74026729 -39.43359375 0.68359375 C-38.56614029 0.66281265 -37.69868683 0.64203156 -36.8049469 0.62062073 C-34.01588148 0.55503927 -31.22671549 0.49631382 -28.4375 0.4375 C-26.58267237 0.39430428 -24.72785444 0.35068964 -22.87304688 0.30664062 C-15.24705355 0.13060334 -7.62835991 -0.02569576 0 0 Z " fill="#7E34CC" transform="translate(136,45)"/>
<path d="M0 0 C1.32 0 2.64 0 4 0 C3.67 35.97 3.34 71.94 3 109 C12.24 108.67 21.48 108.34 31 108 C39.00278379 107.96362371 46.99856438 107.92780493 55 108 C51.69477196 110.20348536 50.72339001 110.24563385 46.88598633 110.22705078 C45.84513382 110.22689972 44.80428131 110.22674866 43.73188782 110.22659302 C42.60993515 110.21627045 41.48798248 110.20594788 40.33203125 110.1953125 C38.60710701 110.19106766 38.60710701 110.19106766 36.84733582 110.18673706 C33.16895204 110.17552833 29.49081038 110.15042224 25.8125 110.125 C23.32096705 110.11497111 20.8294303 110.1058451 18.33789062 110.09765625 C12.22517759 110.07558673 6.11260609 110.04210224 0 110 C-0.33 109.01 -0.66 108.02 -1 107 C-0.34 107 0.32 107 1 107 C0.505 54.035 0.505 54.035 0 0 Z " fill="#750DE6" transform="translate(84,45)"/>
<path d="M0 0 C0.99 0 1.98 0 3 0 C3 0.66 3 1.32 3 2 C7.455 1.505 7.455 1.505 12 1 C8 3 8 3 6.0703125 3.7890625 C-1.20825903 6.91680207 -4.89478167 12.16355203 -8.125 19.25 C-13.37074104 33.80199294 -14.49364995 48.63098631 -14.5847168 63.99926758 C-14.69310596 72.77759201 -15.73951806 79.68106861 -21 87 C-21.66 87 -22.32 87 -23 87 C-23 83.04 -23 79.08 -23 75 C-20.03 74.505 -20.03 74.505 -17 74 C-16.98018066 73.00782471 -16.96036133 72.01564941 -16.93994141 70.9934082 C-16.86283383 67.24888232 -16.77429642 63.50469311 -16.68261719 59.76049805 C-16.64475515 58.15184258 -16.60983503 56.54311467 -16.578125 54.93432617 C-16.35590436 43.79204454 -15.86556294 32.8413263 -13 22 C-12.34 22 -11.68 22 -11 22 C-11.0825 20.9275 -11.165 19.855 -11.25 18.75 C-10.95550203 14.3325305 -10.13688793 13.8517163 -7 11 C-6.20318682 8.35815459 -6.20318682 8.35815459 -6 6 C-5.01 5.67 -4.02 5.34 -3 5 C-2.505 4.154375 -2.01 3.30875 -1.5 2.4375 C-1.005 1.633125 -0.51 0.82875 0 0 Z " fill="#5F26C2" transform="translate(239,105)"/>
<path d="M0 0 C0.05802698 3.43742918 0.09360486 6.87473253 0.125 10.3125 C0.15013672 11.77719727 0.15013672 11.77719727 0.17578125 13.27148438 C0.18222656 14.20927734 0.18867187 15.14707031 0.1953125 16.11328125 C0.20578613 16.97735596 0.21625977 17.84143066 0.22705078 18.73168945 C0 21 0 21 -2 24 C-2.39387788 26.32387947 -2.73486085 28.65793749 -3 31 C-4.32 30.34 -5.64 29.68 -7 29 C-7.08674429 24.54178834 -7.14030513 20.08379196 -7.1875 15.625 C-7.21263672 14.35398437 -7.23777344 13.08296875 -7.26367188 11.7734375 C-7.27333984 10.56171875 -7.28300781 9.35 -7.29296875 8.1015625 C-7.3086792 6.98088379 -7.32438965 5.86020508 -7.34057617 4.70556641 C-7.22818604 3.81272949 -7.1157959 2.91989258 -7 2 C-4 0 -4 0 0 0 Z " fill="#8C34F1" transform="translate(110,108)"/>
<path d="M0 0 C7.11836853 7.6092905 7.39710002 16.42971653 7.5 26.375 C7.95878401 44.2259832 9.3044932 61.49846296 19 77 C16.66796875 76.875 16.66796875 76.875 14 76 C10.20992354 69.41878195 8.24945192 61.47221248 7 54 C6.82726562 53.06929687 6.65453125 52.13859375 6.4765625 51.1796875 C4.9789227 42.17214375 4.61280632 33.20466571 4.34155273 24.08764648 C4.31005127 23.08548096 4.2785498 22.08331543 4.24609375 21.05078125 C4.22216553 20.15012939 4.1982373 19.24947754 4.17358398 18.3215332 C4.08339888 15.84251215 4.08339888 15.84251215 3 13 C2.855625 12.01 2.71125 11.02 2.5625 10 C2.17143965 6.83264224 2.17143965 6.83264224 0 4 C0 2.68 0 1.36 0 0 Z " fill="#6C29CA" transform="translate(217,8)"/>
<path d="M0 0 C0.99 0.33 1.98 0.66 3 1 C3.92148672 3.59392529 4.62667171 6.02182713 5.25 8.6875 C5.435625 9.39583984 5.62125 10.10417969 5.8125 10.83398438 C6.88022909 15.21410029 7.09785604 18.53116293 6 23 C4.35 23.33 2.7 23.66 1 24 C0.93941406 24.75667969 0.87882813 25.51335937 0.81640625 26.29296875 C-0.27735442 29.91964887 -1.78870411 30.53056046 -5.0625 32.3125 C-5.98160156 32.82425781 -6.90070313 33.33601563 -7.84765625 33.86328125 C-8.55792969 34.23839844 -9.26820313 34.61351562 -10 35 C-9.360625 35.28875 -8.72125 35.5775 -8.0625 35.875 C-6 37 -6 37 -5 39 C-8.3 38.34 -11.6 37.68 -15 37 C-14 34 -14 34 -12.36328125 33.078125 C-11.68652344 32.80484375 -11.00976562 32.5315625 -10.3125 32.25 C-4.40110878 29.45880451 -1.00649558 25.56198876 1.375 19.5 C2.61457791 12.55836368 1.71009478 6.73349821 0 0 Z " fill="#6D1BD4" transform="translate(159,61)"/>
<path d="M0 0 C0 0.33 0 0.66 0 1 C2.64 1.33 5.28 1.66 8 2 C4.78244632 3.90664849 2.48931568 4.22546883 -1.22753906 4.13525391 C-2.26831604 4.11508209 -3.30909302 4.09491028 -4.38140869 4.0741272 C-5.49820007 4.04193085 -6.61499146 4.0097345 -7.765625 3.9765625 C-8.91415955 3.95153656 -10.06269409 3.92651062 -11.24603271 3.90072632 C-14.91432334 3.81855666 -18.58207323 3.72195384 -22.25 3.625 C-24.73695708 3.56675745 -27.22393635 3.50945423 -29.7109375 3.453125 C-35.80759105 3.31298218 -41.9038632 3.16098785 -48 3 C-48 2.34 -48 1.68 -48 1 C-42.44990258 0.85627847 -36.89977268 0.71390858 -31.34960938 0.57275391 C-29.46418334 0.52461674 -27.57876646 0.47611973 -25.69335938 0.42724609 C-22.97267993 0.35678452 -20.25196947 0.28764638 -17.53125 0.21875 C-16.69758911 0.19687622 -15.86392822 0.17500244 -15.00500488 0.15246582 C-10.00146178 0.02728279 -5.00512365 -0.0201009 0 0 Z " fill="#A05AE4" transform="translate(136,45)"/>
<path d="M0 0 C0.99 0 1.98 0 3 0 C3 0.66 3 1.32 3 2 C7.455 1.505 7.455 1.505 12 1 C8 3 8 3 6.0703125 3.7890625 C-0.55079996 6.6342795 -4.15588092 10.93777965 -7.1171875 17.4609375 C-7.78378286 19.14034441 -8.43004499 20.82797925 -9.0546875 22.5234375 C-10.44286414 26.16023084 -12.20918749 29.54629015 -14 33 C-15.41687119 28.74938644 -14.19320039 26.28148375 -13 22 C-12.34 22 -11.68 22 -11 22 C-11.12375 20.39125 -11.12375 20.39125 -11.25 18.75 C-10.95550203 14.3325305 -10.13688793 13.8517163 -7 11 C-6.20318682 8.35815459 -6.20318682 8.35815459 -6 6 C-5.01 5.67 -4.02 5.34 -3 5 C-2.505 4.154375 -2.01 3.30875 -1.5 2.4375 C-1.005 1.633125 -0.51 0.82875 0 0 Z " fill="#5916C1" transform="translate(239,105)"/>
<path d="M0 0 C0.99 0.33 1.98 0.66 3 1 C2.83701416 1.71567139 2.67402832 2.43134277 2.50610352 3.16870117 C2.00807929 5.95480197 1.8858165 8.47462208 1.90234375 11.30078125 C1.90556641 12.27724609 1.90878906 13.25371094 1.91210938 14.25976562 C1.92048828 15.26716797 1.92886719 16.27457031 1.9375 17.3125 C1.94201172 18.33923828 1.94652344 19.36597656 1.95117188 20.42382812 C1.96291816 22.94927882 1.97934435 25.47460905 2 28 C1.34 27.67 0.68 27.34 0 27 C-0.33 27.99 -0.66 28.98 -1 30 C-1.99 29.67 -2.98 29.34 -4 29 C-3.125 22.25 -3.125 22.25 -2 20 C-1.9603287 18.33380554 -1.95615553 16.66608987 -2 15 C-2.66 14.67 -3.32 14.34 -4 14 C-3.01 14 -2.02 14 -1 14 C-1.01160156 13.40832031 -1.02320313 12.81664062 -1.03515625 12.20703125 C-1.08322386 7.99768215 -1.06006883 4.1077667 0 0 Z " fill="#8D15F8" transform="translate(29,42)"/>
<path d="M0 0 C0.66 0.33 1.32 0.66 2 1 C1.2884375 1.5878125 1.2884375 1.5878125 0.5625 2.1875 C-1.19922756 3.93074521 -1.19922756 3.93074521 -1.5 6.5 C-2 9 -2 9 -3.50146484 10.26123047 C-5.72573603 12.8420808 -5.41818532 14.95674282 -5.4765625 18.3203125 C-5.5075 19.5784375 -5.5384375 20.8365625 -5.5703125 22.1328125 C-5.58835937 23.45023438 -5.60640625 24.76765625 -5.625 26.125 C-5.94282589 42.07985951 -5.94282589 42.07985951 -7 50 C-7.66 50 -8.32 50 -9 50 C-8.93073514 45.01905315 -8.84258449 40.03891495 -8.73754883 35.05859375 C-8.70446491 33.36727939 -8.67638241 31.67585901 -8.65356445 29.984375 C-8.61971164 27.54121061 -8.56738492 25.09900345 -8.51171875 22.65625 C-8.50532883 21.91008423 -8.4989389 21.16391846 -8.49235535 20.3951416 C-8.26553093 12.14291043 -5.59091545 6.04423292 0 0 Z " fill="#7921C8" transform="translate(35,6)"/>
<path d="M0 0 C0.33 0 0.66 0 1 0 C1.05784708 4.12494151 1.09354407 8.24977944 1.125 12.375 C1.15013672 14.1384375 1.15013672 14.1384375 1.17578125 15.9375 C1.18222656 17.05898437 1.18867188 18.18046875 1.1953125 19.3359375 C1.20578613 20.37282715 1.21625977 21.4097168 1.22705078 22.47802734 C1 25 1 25 -1 27 C-3.625 26.625 -3.625 26.625 -6 26 C-5.505 24.515 -5.505 24.515 -5 23 C-4.77820215 21.10787263 -4.59385985 19.21115528 -4.4375 17.3125 C-4.35371094 16.31863281 -4.26992187 15.32476562 -4.18359375 14.30078125 C-4.12300781 13.54152344 -4.06242188 12.78226563 -4 12 C-3.34 12 -2.68 12 -2 12 C-1.34 8.04 -0.68 4.08 0 0 Z " fill="#620BE9" transform="translate(222,152)"/>
<path d="M0 0 C0.66 0 1.32 0 2 0 C2.03758423 1.24088379 2.03758423 1.24088379 2.07592773 2.50683594 C2.19196349 6.25471192 2.314656 10.00234125 2.4375 13.75 C2.47681641 15.05195313 2.51613281 16.35390625 2.55664062 17.6953125 C2.59853516 18.94570312 2.64042969 20.19609375 2.68359375 21.484375 C2.72025146 22.63647461 2.75690918 23.78857422 2.79467773 24.97558594 C3.10333364 30.05099434 3.10333364 30.05099434 6 34 C6.74560514 35.35515095 7.45130662 36.73270034 8.125 38.125 C8.47820313 38.84945312 8.83140625 39.57390625 9.1953125 40.3203125 C9.46085937 40.87460938 9.72640625 41.42890625 10 42 C6.64933828 40.614012 5.16628149 39.2243823 3.3125 36.125 C2.89613281 35.44695312 2.47976562 34.76890625 2.05078125 34.0703125 C-0.06631507 29.89908184 -0.11876568 26.12845 -0.09765625 21.484375 C-0.09443359 20.23398438 -0.09121094 18.98359375 -0.08789062 17.6953125 C-0.07951172 16.39335937 -0.07113281 15.09140625 -0.0625 13.75 C-0.05798828 12.43257812 -0.05347656 11.11515625 -0.04882812 9.7578125 C-0.03704316 6.50516259 -0.02059011 3.25260416 0 0 Z " fill="#6B22C4" transform="translate(27,152)"/>
<path d="M0 0 C4.10757963 -0.07489276 8.2148876 -0.12894754 12.32299805 -0.16479492 C13.71662328 -0.17975938 15.11020244 -0.20013851 16.50366211 -0.22631836 C24.54781889 -0.37352037 31.48981629 -0.16874861 39 3 C39 3.66 39 4.32 39 5 C37.22302734 4.52433594 37.22302734 4.52433594 35.41015625 4.0390625 C28.81239063 2.57289236 22.17069472 2.54031629 15.4375 2.375 C14.14263672 2.33632812 12.84777344 2.29765625 11.51367188 2.2578125 C8.34258424 2.16420106 5.17149245 2.07846597 2 2 C2 2.99 2 3.98 2 5 C1.34 5 0.68 5 0 5 C0 3.35 0 1.7 0 0 Z " fill="#6A17D0" transform="translate(104,104)"/>
<path d="M0 0 C0.66 0 1.32 0 2 0 C1.67 2.97 1.34 5.94 1 9 C0.34 9 -0.32 9 -1 9 C-1.14115234 10.10794922 -1.14115234 10.10794922 -1.28515625 11.23828125 C-2.10497828 14.40557181 -3.2259868 15.81046814 -5.4375 18.1875 C-6.05496094 18.86167969 -6.67242187 19.53585938 -7.30859375 20.23046875 C-8.52377066 21.50177392 -9.75644225 22.75644225 -11 24 C-10.67 24.66 -10.34 25.32 -10 26 C-14.99367864 26.7282448 -19.99109914 27.38487182 -25 28 C-21.88494471 25.46761692 -18.70504639 23.85489513 -15.0625 22.1875 C-8.79757447 19.05123108 -5.26913726 16.52912919 -2.82421875 9.73046875 C-1.80659439 6.50274613 -0.8686033 3.27060684 0 0 Z " fill="#6B25D1" transform="translate(167,125)"/>
<path d="M0 0 C0.33 0.66 0.66 1.32 1 2 C1.99 2.33 2.98 2.66 4 3 C4 4.32 4 5.64 4 7 C4.66 7 5.32 7 6 7 C6 7.66 6 8.32 6 9 C4.68 9 3.36 9 2 9 C1.67 10.32 1.34 11.64 1 13 C-1.9375 12.625 -1.9375 12.625 -5 12 C-5.33 11.34 -5.66 10.68 -6 10 C-5.0625 7.875 -5.0625 7.875 -4 6 C-3.34 6 -2.68 6 -2 6 C-1.855625 5.195625 -1.71125 4.39125 -1.5625 3.5625 C-1 1 -1 1 0 0 Z " fill="#8C13F5" transform="translate(38,3)"/>
<path d="M0 0 C1.24716797 0.63228516 1.24716797 0.63228516 2.51953125 1.27734375 C4.14955078 2.09912109 4.14955078 2.09912109 5.8125 2.9375 C7.43091797 3.75541016 7.43091797 3.75541016 9.08203125 4.58984375 C11.96211527 6.0585207 11.96211527 6.0585207 15 7 C15 7.66 15 8.32 15 9 C13.68 9 12.36 9 11 9 C10.67 10.32 10.34 11.64 10 13 C7.03972924 12.68282813 6.01571727 12.01571727 3.875 9.875 C1.69938173 6.53905198 0.90711473 3.85523759 0 0 Z " fill="#6615DC" transform="translate(236,86)"/>
<path d="M0 0 C4.46426893 2.77508609 6.20832197 5.58125825 7.6171875 10.49609375 C8.29849195 14.952381 7.71046277 18.8399856 6 23 C4.17185865 25.42626675 2.36623666 27.04528276 0 29 C-0.99 28.67 -1.98 28.34 -3 28 C-2.175 27.4225 -1.35 26.845 -0.5 26.25 C0.325 25.5075 1.15 24.765 2 24 C2 22.68 2 21.36 2 20 C2.99 20 3.98 20 5 20 C4.91284983 18.06166004 4.80467036 16.1242571 4.6875 14.1875 C4.62949219 13.10855469 4.57148438 12.02960938 4.51171875 10.91796875 C3.95329716 7.73368685 3.37474474 7.0284278 1 5 C0.3125 2.3125 0.3125 2.3125 0 0 Z " fill="#601AC4" transform="translate(144,108)"/>
<path d="M0 0 C4.931222 0.43510782 7.54881403 2.54881403 11 6 C13.53055445 10.9510848 13.02444039 14.707058 12 20 C10.9375 22.5 10.9375 22.5 10 24 C8.63618637 19.9085591 9.12767239 16.18531127 9.35546875 11.91015625 C8.91174186 8.27744709 7.81940782 7.2389415 5 5 C4.278125 4.649375 3.55625 4.29875 2.8125 3.9375 C1 3 1 3 0 0 Z " fill="#7930CD" transform="translate(134,61)"/>
<path d="M0 0 C0.99 0 1.98 0 3 0 C3 0.66 3 1.32 3 2 C-1.92643223 6.20581049 -6.61652709 7.79735007 -13 8 C-15.38548343 7.79630597 -17.64139961 7.44223757 -20 7 C-20 6.34 -20 5.68 -20 5 C-16.535 4.505 -16.535 4.505 -13 4 C-13 3.01 -13 2.02 -13 1 C-12.34 1 -11.68 1 -11 1 C-11 1.66 -11 2.32 -11 3 C-9.54257537 3.08096803 -8.08387193 3.13917774 -6.625 3.1875 C-5.40683594 3.23970703 -5.40683594 3.23970703 -4.1640625 3.29296875 C-3.44992188 3.19628906 -2.73578125 3.09960938 -2 3 C-1.34 2.01 -0.68 1.02 0 0 Z " fill="#5B11D6" transform="translate(213,192)"/>
<path d="M0 0 C4.72526193 5.67031431 6.25663254 8.69083023 6.1953125 16.171875 C6.1924826 16.8542926 6.18965271 17.53671021 6.18673706 18.23980713 C6.17558098 20.41005307 6.15048557 22.57987971 6.125 24.75 C6.11496426 26.22525444 6.10583944 27.70051537 6.09765625 29.17578125 C6.07565687 32.78398942 6.04115883 36.39195375 6 40 C5.67 40 5.34 40 5 40 C4.97494385 39.2886792 4.9498877 38.5773584 4.92407227 37.84448242 C4.80811561 34.62530483 4.68538755 31.40642015 4.5625 28.1875 C4.52318359 27.06794922 4.48386719 25.94839844 4.44335938 24.79492188 C4.40146484 23.72177734 4.35957031 22.64863281 4.31640625 21.54296875 C4.27974854 20.55321045 4.24309082 19.56345215 4.20532227 18.54370117 C4.09209669 15.8781649 4.09209669 15.8781649 3 13 C2.855625 12.01 2.71125 11.02 2.5625 10 C2.17143965 6.83264224 2.17143965 6.83264224 0 4 C0 2.68 0 1.36 0 0 Z " fill="#6508E2" transform="translate(217,8)"/>
<path d="M0 0 C0.99 0.33 1.98 0.66 3 1 C2.01 2.98 1.02 4.96 0 7 C0.78375 7.391875 1.5675 7.78375 2.375 8.1875 C5.35156418 10.24274669 5.98823563 11.59679258 7 15 C5.68381002 14.21448343 4.37214772 13.4213763 3.0625 12.625 C1.96615234 11.96371094 1.96615234 11.96371094 0.84765625 11.2890625 C-1 10 -1 10 -2 8 C-3.64363134 7.27840576 -5.31050386 6.60648579 -7 6 C-4.8322078 3.72381819 -2.67272281 1.67045176 0 0 Z " fill="#730DEB" transform="translate(155,91)"/>
<path d="M0 0 C1.05948517 4.41452154 1.3447529 6.34615829 -0.8125 10.4375 C-1.534375 11.283125 -2.25625 12.12875 -3 13 C-3.66 13 -4.32 13 -5 13 C-5 9.04 -5 5.08 -5 1 C-1 0 -1 0 0 0 Z " fill="#6214DF" transform="translate(221,179)"/>
<path d="M0 0 C3.027881 2.73951138 5.82085397 5.67220504 7.625 9.375 C7.295 10.365 6.965 11.355 6.625 12.375 C6.2846875 11.84390625 5.944375 11.3128125 5.59375 10.765625 C1.90543599 5.39010351 -1.39670471 2.81956609 -7.375 0.375 C-8.71296262 -0.28232659 -10.04761835 -0.94656049 -11.375 -1.625 C-6.59881034 -2.58023793 -4.14182158 -2.83387792 0 0 Z " fill="#6C1BC8" transform="translate(11.375,107.625)"/>
<path d="M0 0 C0.33 0.66 0.66 1.32 1 2 C-1.85276137 4.93200474 -4.65079784 7.64315404 -8 10 C-5.525 10.99 -5.525 10.99 -3 12 C-5.54702616 13.27351308 -6.4282945 12.80191925 -9.125 12.0625 C-9.84945312 11.86785156 -10.57390625 11.67320313 -11.3203125 11.47265625 C-11.87460938 11.31667969 -12.42890625 11.16070312 -13 11 C-12 8 -12 8 -10.29296875 6.97265625 C-9.59816406 6.67230469 -8.90335938 6.37195313 -8.1875 6.0625 C-4.80549821 4.48989953 -2.46000779 2.87000909 0 0 Z " fill="#6A29BC" transform="translate(157,87)"/>
<path d="M0 0 C4.05606165 0.46800711 7.46588679 0.87953208 11 3 C11 3.66 11 4.32 11 5 C13.475 5.99 13.475 5.99 16 7 C15.67 8.32 15.34 9.64 15 11 C14.67 10.01 14.34 9.02 14 8 C12.20067421 6.93283296 12.20067421 6.93283296 10 6 C9.195625 5.505 8.39125 5.01 7.5625 4.5 C5.09642962 3.0564466 2.67426851 1.99329973 0 1 C0 0.67 0 0.34 0 0 Z " fill="#6A1DC9" transform="translate(142,48)"/>
<path d="M0 0 C0.99 0 1.98 0 3 0 C3 0.66 3 1.32 3 2 C7.455 1.505 7.455 1.505 12 1 C9.04383874 2.47808063 6.60335908 3.49692713 3.5 4.4375 C0.17508844 5.5111123 -2.37910859 6.60701219 -5 9 C-5.33 8.01 -5.66 7.02 -6 6 C-5.01 5.67 -4.02 5.34 -3 5 C-2.505 4.154375 -2.01 3.30875 -1.5 2.4375 C-1.005 1.633125 -0.51 0.82875 0 0 Z " fill="#6111D8" transform="translate(239,105)"/>
<path d="M0 0 C2.1387261 3.20808915 2.47730962 4.27698497 2 8 C1.01 8.66 0.02 9.32 -1 10 C-1.99 9.34 -2.98 8.68 -4 8 C-2.87548273 5.0280615 -1.77706209 2.66559313 0 0 Z " fill="#8E14F9" transform="translate(22,78)"/>
<path d="M0 0 C1.9375 0.3125 1.9375 0.3125 4 1 C4.33 1.99 4.66 2.98 5 4 C3.329375 4.4021875 3.329375 4.4021875 1.625 4.8125 C-2.21840951 5.65809019 -2.21840951 5.65809019 -4 9 C-4.66 9 -5.32 9 -6 9 C-6 9.66 -6 10.32 -6 11 C-6.99 10.67 -7.98 10.34 -9 10 C-8.43410156 9.44570312 -7.86820313 8.89140625 -7.28515625 8.3203125 C-6.55167969 7.59585938 -5.81820312 6.87140625 -5.0625 6.125 C-4.33160156 5.40570313 -3.60070312 4.68640625 -2.84765625 3.9453125 C-0.94332001 2.12972808 -0.94332001 2.12972808 0 0 Z " fill="#710FEE" transform="translate(164,139)"/>
<path d="M0 0 C3.4531869 2.95987448 5.78915209 6.56207108 6.1875 11.16796875 C6.1875 13.1129836 6.10046991 15.05758178 6 17 C5.34 17 4.68 17 4 17 C3.89042969 16.34773438 3.78085938 15.69546875 3.66796875 15.0234375 C2.73491038 9.8802377 1.65215917 5.58100221 -1 1 C-0.67 0.67 -0.34 0.34 0 0 Z " fill="#5E13C5" transform="translate(163,106)"/>
<path d="M0 0 C-0.25 2.375 -0.25 2.375 -1 5 C-3.0625 6.3125 -3.0625 6.3125 -5 7 C-7 5 -7 5 -7.125 2.375 C-7.08375 1.59125 -7.0425 0.8075 -7 0 C-4.3333581 -1.33332095 -2.83319697 -0.67102033 0 0 Z " fill="#8913FA" transform="translate(87,41)"/>
<path d="M0 0 C0.33 0.66 0.66 1.32 1 2 C1.99 2.33 2.98 2.66 4 3 C4 4.32 4 5.64 4 7 C4.66 7 5.32 7 6 7 C6 7.66 6 8.32 6 9 C4.35 9.33 2.7 9.66 1 10 C1.33 8.02 1.66 6.04 2 4 C0.68 4.33 -0.64 4.66 -2 5 C-1.125 1.125 -1.125 1.125 0 0 Z " fill="#8E1FEC" transform="translate(38,3)"/>
<path d="M0 0 C5.03985731 0.44469329 7.37634988 2.71343362 11 6 C10.67 6.66 10.34 7.32 10 8 C9.2575 7.54625 8.515 7.0925 7.75 6.625 C5.13319022 5.00745004 5.13319022 5.00745004 2.75 4 C1 3 1 3 0 0 Z " fill="#6F23C9" transform="translate(134,61)"/>
<path d="M0 0 C1.38986664 3.86074066 0.634012 7.0057244 0 11 C-0.37030132 14.6635144 -0.68817532 18.33108413 -1 22 C-1.33 22 -1.66 22 -2 22 C-2.05807043 18.89591193 -2.09361914 15.7919636 -2.125 12.6875 C-2.14175781 11.80642578 -2.15851562 10.92535156 -2.17578125 10.01757812 C-2.18222656 9.17001953 -2.18867188 8.32246094 -2.1953125 7.44921875 C-2.20578613 6.66893311 -2.21625977 5.88864746 -2.22705078 5.0847168 C-2 3 -2 3 0 0 Z " fill="#8D10FB" transform="translate(31,19)"/>
<path d="M0 0 C0 0.99 0 1.98 0 3 C-0.33 3.33 -0.66 3.66 -1 4 C-2.52519276 3.91062197 -4.04681929 3.75462854 -5.5625 3.5625 C-6.80193359 3.40974609 -6.80193359 3.40974609 -8.06640625 3.25390625 C-8.70449219 3.17011719 -9.34257812 3.08632812 -10 3 C-10 2.34 -10 1.68 -10 1 C-6.61981469 -0.04005702 -3.5219721 -0.08004482 0 0 Z " fill="#6910F0" transform="translate(212,192)"/>
<path d="M0 0 C0.66 0 1.32 0 2 0 C2.6875 2.75 2.6875 2.75 3 6 C1.6875 8.0625 1.6875 8.0625 0 10 C-0.71162443 11.64797236 -1.39031953 13.31165408 -2 15 C-3.53760842 11.92478317 -2.36599236 9.65324882 -1.5625 6.375 C-1.27503906 5.18648437 -0.98757812 3.99796875 -0.69140625 2.7734375 C-0.46324219 1.85820313 -0.23507813 0.94296875 0 0 Z " fill="#7D28D4" transform="translate(25,57)"/>
<path d="M0 0 C0.66 0.33 1.32 0.66 2 1 C2.625 4.0625 2.625 4.0625 3 7 C2.34 7 1.68 7 1 7 C1 6.34 1 5.68 1 5 C-0.65 5.33 -2.3 5.66 -4 6 C-4 5.01 -4 4.02 -4 3 C-2 1.3125 -2 1.3125 0 0 Z " fill="#8B15F7" transform="translate(13,89)"/>
<path d="M0 0 C0.33 0 0.66 0 1 0 C1.375 2.625 1.375 2.625 1 6 C-0.80053619 8.33753821 -2.7607802 10.04068267 -5 12 C-5.99 11.67 -6.98 11.34 -8 11 C-7.175 10.4225 -6.35 9.845 -5.5 9.25 C-4.675 8.5075 -3.85 7.765 -3 7 C-3 5.68 -3 4.36 -3 3 C-2.01 3 -1.02 3 0 3 C0 2.01 0 1.02 0 0 Z " fill="#5F17C3" transform="translate(149,125)"/>
<path d="M0 0 C0.33 0.66 0.66 1.32 1 2 C-1.17220355 4.73277221 -2.85827965 6.72888915 -6.3359375 7.5546875 C-8.56274452 7.78650022 -10.76217118 7.94637012 -13 8 C-10.02999718 6.01999812 -7.05180034 4.53121208 -3.83984375 3 C-1.83260604 2.02166889 -1.83260604 2.02166889 0 0 Z " fill="#7B2ACE" transform="translate(13,86)"/>
<path d="M0 0 C0.99 0 1.98 0 3 0 C4.6875 2 4.6875 2 6 4 C5.34 4 4.68 4 4 4 C4 4.66 4 5.32 4 6 C2.68 5.67 1.36 5.34 0 5 C-0.5625 3.0625 -0.5625 3.0625 -1 1 C-0.67 0.67 -0.34 0.34 0 0 Z " fill="#8F13F6" transform="translate(45,2)"/>
<path d="M0 0 C3.49873271 1.39655297 4.70891831 2.71260484 6.25 6.125 C6.58515625 6.84945312 6.9203125 7.57390625 7.265625 8.3203125 C7.62914062 9.15175781 7.62914062 9.15175781 8 10 C3.86124946 8.19147035 2.27866791 5.90628784 0 2 C0 1.34 0 0.68 0 0 Z " fill="#6C2AC7" transform="translate(29,184)"/>
<path d="M0 0 C3.94999843 4.73999811 6.34975674 7.70437864 6 14 C4.05942221 12.05942221 3.10736248 10.54408191 1.875 8.125 C1.52179688 7.44695313 1.16859375 6.76890625 0.8046875 6.0703125 C0 4 0 4 0 0 Z " fill="#5E19BC" transform="translate(217,8)"/>
<path d="M0 0 C0.99 0.33 1.98 0.66 3 1 C4.125 6.625 4.125 6.625 3 10 C-0.00617269 6.99382731 0.40414684 4.17618402 0 0 Z " fill="#8222EF" transform="translate(35,186)"/>
<path d="M0 0 C0.33 0 0.66 0 1 0 C1.36629408 4.27343092 0.40814077 6.48812804 -2 10 C-3.32 9.67 -4.64 9.34 -6 9 C-5.02501855 7.4972763 -4.04490611 5.99788037 -3.0625 4.5 C-2.51722656 3.6646875 -1.97195312 2.829375 -1.41015625 1.96875 C-0.94480469 1.3190625 -0.47945312 0.669375 0 0 Z " fill="#7426CB" transform="translate(20,76)"/>
<path d="M0 0 C0.99 0 1.98 0 3 0 C3.66 1.65 4.32 3.3 5 5 C4.34 5 3.68 5 3 5 C3 5.66 3 6.32 3 7 C2.34 7 1.68 7 1 7 C-0.0625 5.1875 -0.0625 5.1875 -1 3 C-0.67 2.01 -0.34 1.02 0 0 Z " fill="#6C0EEA" transform="translate(233,85)"/>
<path d="M0 0 C1.32 0.99 2.64 1.98 4 3 C3.67 4.32 3.34 5.64 3 7 C2.01 7 1.02 7 0 7 C-2 4 -2 4 -2 1 C-1.34 0.67 -0.68 0.34 0 0 Z " fill="#8C16FB" transform="translate(21,112)"/>
<path d="M0 0 C0.66 0 1.32 0 2 0 C2.32613618 4.67461851 1.70582788 7.16674383 -1 11 C-2.41687119 6.74938644 -1.19320039 4.28148375 0 0 Z " fill="#580CD4" transform="translate(226,127)"/>
<path d="M0 0 C0.66 0 1.32 0 2 0 C1.67 2.97 1.34 5.94 1 9 C0.01 8.67 -0.98 8.34 -2 8 C-1.34 5.36 -0.68 2.72 0 0 Z " fill="#722FD1" transform="translate(167,125)"/>
<path d="M0 0 C0.99 0.99 1.98 1.98 3 3 C3.66 2.67 4.32 2.34 5 2 C4.67 3.32 4.34 4.64 4 6 C1.13275314 5.42655063 0.1385485 5.1385485 -2 3 C-1.34 2.01 -0.68 1.02 0 0 Z " fill="#8C15F5" transform="translate(11,104)"/>
<path d="M0 0 C6.75 0.875 6.75 0.875 9 2 C9 2.66 9 3.32 9 4 C4.545 3.01 4.545 3.01 0 2 C0 1.34 0 0.68 0 0 Z " fill="#651AC5" transform="translate(134,105)"/>
<path d="M0 0 C0.33 0.99 0.66 1.98 1 3 C1.66 3 2.32 3 3 3 C2.67 5.64 2.34 8.28 2 11 C-0.32590854 7.36576791 -0.16265833 4.22911669 0 0 Z " fill="#8549D4" transform="translate(149,118)"/>
<path d="M0 0 C-0.66 1.98 -1.32 3.96 -2 6 C-2.66 6 -3.32 6 -4 6 C-4.33 4.68 -4.66 3.36 -5 2 C-2 0 -2 0 0 0 Z " fill="#9614FD" transform="translate(40,7)"/>
<path d="M0 0 C2.7972908 2.06756277 3.02692273 3.14440371 3.6875 6.6875 C3.790625 7.780625 3.89375 8.87375 4 10 C2.05731159 7.08596738 0.53604696 4.14191424 -1 1 C-0.67 0.67 -0.34 0.34 0 0 Z " fill="#581DC1" transform="translate(163,106)"/>
<path d="M0 0 C2.3125 -0.25 2.3125 -0.25 5 0 C6.8125 2 6.8125 2 8 4 C7.67 4.66 7.34 5.32 7 6 C5.83054208 5.19152271 4.66449539 4.37810888 3.5 3.5625 C2.8503125 3.11003906 2.200625 2.65757813 1.53125 2.19140625 C1.0259375 1.79824219 0.520625 1.40507813 0 1 C0 0.67 0 0.34 0 0 Z " fill="#6618C8" transform="translate(154,100)"/>
</svg>
