<?xml version="1.0" encoding="UTF-8"?>
<!DOCTYPE svg PUBLIC "-//W3C//DTD SVG 1.1//EN" "http://www.w3.org/Graphics/SVG/1.1/DTD/svg11.dtd">
<svg xmlns="http://www.w3.org/2000/svg" version="1.1" width="225px" height="225px" style="shape-rendering:geometricPrecision; text-rendering:geometricPrecision; image-rendering:optimizeQuality; fill-rule:evenodd; clip-rule:evenodd" xmlns:xlink="http://www.w3.org/1999/xlink">
<g><path style="opacity:1" fill="#047e04" d="M 69.5,-0.5 C 96.8333,-0.5 124.167,-0.5 151.5,-0.5C 155.365,1.02492 158.698,3.35826 161.5,6.5C 172.452,18.4498 184.118,29.7832 196.5,40.5C 199.21,45.2102 202.877,48.8769 207.5,51.5C 209.326,53.1475 210.66,55.1475 211.5,57.5C 212.938,60.7157 214.105,64.049 215,67.5C 215.5,74.1583 215.666,80.825 215.5,87.5C 214.667,124.331 214.167,161.331 214,198.5C 211.745,204.007 209.245,209.34 206.5,214.5C 202.023,218.648 197.023,221.982 191.5,224.5C 150.167,224.5 108.833,224.5 67.5,224.5C 59.7032,221.372 53.3698,216.372 48.5,209.5C 47.3963,204.845 46.063,200.179 44.5,195.5C 44.5698,194.228 44.9032,193.062 45.5,192C 44.6808,182.911 44.1808,173.744 44,164.5C 33.9102,163.679 23.7435,163.179 13.5,163C 12.2107,161.198 10.5441,160.031 8.5,159.5C 7.89022,158.609 7.55688,157.609 7.5,156.5C 9.12578,138.363 9.95912,120.03 10,101.5C 11.0458,99.9095 12.2125,98.4095 13.5,97C 23.5519,97.1455 33.2186,96.3121 42.5,94.5C 42.0398,70.4479 42.5398,46.4479 44,22.5C 49.1351,11.0292 57.6351,3.36248 69.5,-0.5 Z M 143.5,19.5 C 144.148,21.0858 144.648,22.7525 145,24.5C 145.093,38.213 145.76,51.8797 147,65.5C 148.214,67.0488 149.714,68.2155 151.5,69C 164.799,70.3054 178.132,70.8054 191.5,70.5C 193.167,71.1667 194.833,71.8333 196.5,72.5C 197.631,112.151 197.798,151.818 197,191.5C 196.605,194.652 195.772,197.652 194.5,200.5C 191.953,201.934 189.619,203.6 187.5,205.5C 150.543,206.487 113.543,206.821 76.5,206.5C 72.8161,205.504 69.1495,204.171 65.5,202.5C 64.3599,200.22 63.1932,197.886 62,195.5C 60.8157,185.186 60.4824,174.853 61,164.5C 95.5927,165.654 130.093,165.654 164.5,164.5C 168.987,164.18 171.82,161.847 173,157.5C 173.5,144.838 173.667,132.171 173.5,119.5C 173.666,113.158 173.5,106.825 173,100.5C 171.924,97.921 170.091,96.2543 167.5,95.5C 132.004,94.5016 96.3372,94.1683 60.5,94.5C 60.2781,73.4853 60.6114,52.4853 61.5,31.5C 62.4977,27.4945 64.4977,24.1612 67.5,21.5C 69.1401,20.6799 70.8068,19.8466 72.5,19C 96.2094,18.1869 119.876,18.3535 143.5,19.5 Z M 46.5,115.5 C 43.0125,116.143 40.5125,118.143 39,121.5C 34.7142,139.378 41.5476,146.711 59.5,143.5C 60.0508,146.807 60.3841,150.14 60.5,153.5C 47.9062,157.618 37.4062,154.618 29,144.5C 25.7123,134.848 25.7123,125.181 29,115.5C 37.1841,104.556 47.6841,101.389 60.5,106C 60.9574,106.414 61.2907,106.914 61.5,107.5C 60.5178,110.096 59.8511,112.762 59.5,115.5C 55.0109,114.429 50.6776,114.429 46.5,115.5 Z M 103.5,149.5 C 94.6831,156.25 85.1831,157.25 75,152.5C 75.1612,149.168 75.6612,145.835 76.5,142.5C 80.3588,143.924 84.3588,144.924 88.5,145.5C 95.0011,143.988 96.0011,140.822 91.5,136C 86.4096,134.042 81.9096,131.208 78,127.5C 75.826,123.454 74.9927,119.121 75.5,114.5C 76.7497,110.592 79.083,107.592 82.5,105.5C 89.4746,102.837 96.4746,102.837 103.5,105.5C 103.833,105.833 104.167,106.167 104.5,106.5C 103.358,109.399 102.692,112.399 102.5,115.5C 99.2604,115.232 96.0937,114.566 93,113.5C 86.2939,114.463 85.1273,117.296 89.5,122C 98.9988,124.496 104.665,130.496 106.5,140C 105.794,143.285 104.794,146.452 103.5,149.5 Z M 129.5,104.5 C 129.833,106.5 130.167,108.5 130.5,110.5C 132.377,119.34 134.877,128.006 138,136.5C 141.264,128.444 143.43,120.111 144.5,111.5C 145.404,110.791 145.737,109.791 145.5,108.5C 146.249,107.469 146.915,106.302 147.5,105C 151.152,104.501 154.818,104.335 158.5,104.5C 158.5,105.5 158.5,106.5 158.5,107.5C 154.724,117.171 151.724,127.171 149.5,137.5C 146.854,142.782 145.187,148.448 144.5,154.5C 140.154,154.666 135.821,154.499 131.5,154C 130.748,153.329 130.414,152.496 130.5,151.5C 126.267,138.142 122.267,124.809 118.5,111.5C 118.007,109.194 117.674,106.861 117.5,104.5C 121.5,104.5 125.5,104.5 129.5,104.5 Z"/></g>
<g><path style="opacity:0.494" fill="#548c4c" d="M 143.5,19.5 C 119.876,18.3535 96.2094,18.1869 72.5,19C 70.8068,19.8466 69.1401,20.6799 67.5,21.5C 68.1223,19.665 69.4556,18.4983 71.5,18C 94.8194,16.6193 118.153,16.286 141.5,17C 142.381,17.7083 143.047,18.5416 143.5,19.5 Z"/></g>
<g><path style="opacity:0.6" fill="#136111" d="M 161.5,6.5 C 173.781,17.1131 185.448,28.4465 196.5,40.5C 184.118,29.7832 172.452,18.4498 161.5,6.5 Z"/></g>
<g><path style="opacity:1" fill="#2a6a25" d="M 196.5,40.5 C 200.5,43.8333 204.167,47.5 207.5,51.5C 202.877,48.8769 199.21,45.2102 196.5,40.5 Z"/></g>
<g><path style="opacity:0.588" fill="#277023" d="M 143.5,19.5 C 144.75,19.5774 145.583,20.244 146,21.5C 146.333,33.1667 146.667,44.8333 147,56.5C 147.27,59.2241 147.77,61.8908 148.5,64.5C 150.149,65.1476 151.482,66.1476 152.5,67.5C 165.669,68.2993 178.669,69.2993 191.5,70.5C 178.132,70.8054 164.799,70.3054 151.5,69C 149.714,68.2155 148.214,67.0488 147,65.5C 145.76,51.8797 145.093,38.213 145,24.5C 144.648,22.7525 144.148,21.0858 143.5,19.5 Z"/></g>
<g><path style="opacity:0.086" fill="#115e07" d="M 211.5,57.5 C 213.746,59.6489 215.246,62.3156 216,65.5C 216.5,108.832 216.667,152.165 216.5,195.5C 215.502,159.671 215.168,123.671 215.5,87.5C 215.666,80.825 215.5,74.1583 215,67.5C 214.105,64.049 212.938,60.7157 211.5,57.5 Z"/></g>
<g><path style="opacity:0.208" fill="#236b22" d="M 61.5,31.5 C 60.6114,52.4853 60.2781,73.4853 60.5,94.5C 96.3372,94.1683 132.004,94.5016 167.5,95.5C 131.5,95.5 95.5,95.5 59.5,95.5C 59.3334,75.8305 59.5,56.1638 60,36.5C 60.1981,34.6183 60.6981,32.9516 61.5,31.5 Z"/></g>
<g><path style="opacity:1" fill="#146d12" d="M 42.5,94.5 C 33.2186,96.3121 23.5519,97.1455 13.5,97C 12.2125,98.4095 11.0458,99.9095 10,101.5C 9.95912,120.03 9.12578,138.363 7.5,156.5C 7.02492,137.074 7.52492,117.741 9,98.5C 10.1667,97.3333 11.3333,96.1667 12.5,95C 22.4944,94.5002 32.4944,94.3335 42.5,94.5 Z"/></g>
<g><path style="opacity:0.816" fill="#26711f" d="M 158.5,107.5 C 158.5,106.5 158.5,105.5 158.5,104.5C 154.818,104.335 151.152,104.501 147.5,105C 146.915,106.302 146.249,107.469 145.5,108.5C 144.579,103.255 146.746,101.255 152,102.5C 154.225,102.565 156.392,102.898 158.5,103.5C 159.782,104.958 159.782,106.292 158.5,107.5 Z"/></g>
<g><path style="opacity:0.035" fill="#206a1e" d="M 129.5,104.5 C 125.5,104.5 121.5,104.5 117.5,104.5C 117.674,106.861 118.007,109.194 118.5,111.5C 116.382,108.945 116.049,106.112 117.5,103C 119.5,102.833 121.5,102.667 123.5,102.5C 125.952,102.539 127.952,103.206 129.5,104.5 Z"/></g>
<g><path style="opacity:0.251" fill="#1f691b" d="M 196.5,72.5 C 197.222,72.9175 197.722,73.5842 198,74.5C 198.667,113.833 198.667,153.167 198,192.5C 197.667,194.5 197.333,196.5 197,198.5C 196.292,199.381 195.458,200.047 194.5,200.5C 195.772,197.652 196.605,194.652 197,191.5C 197.798,151.818 197.631,112.151 196.5,72.5 Z"/></g>
<g><path style="opacity:1" fill="#187413" d="M 130.5,110.5 C 132.229,111.117 133.729,112.117 135,113.5C 135.283,110.258 136.117,109.924 137.5,112.5C 136.5,113.833 135.5,115.167 134.5,116.5C 135.618,120.68 137.118,125.013 139,129.5C 139.595,128.101 139.428,126.768 138.5,125.5C 140.138,124.295 140.471,122.962 139.5,121.5C 141.197,118.106 142.864,114.773 144.5,111.5C 143.43,120.111 141.264,128.444 138,136.5C 134.877,128.006 132.377,119.34 130.5,110.5 Z"/></g>
<g><path style="opacity:1" fill="#167612" d="M 103.5,149.5 C 104.794,146.452 105.794,143.285 106.5,140C 104.665,130.496 98.9988,124.496 89.5,122C 85.1273,117.296 86.2939,114.463 93,113.5C 96.0937,114.566 99.2604,115.232 102.5,115.5C 102.692,112.399 103.358,109.399 104.5,106.5C 104.167,106.167 103.833,105.833 103.5,105.5C 96.4746,102.837 89.4746,102.837 82.5,105.5C 82.8807,104.069 83.8807,103.236 85.5,103C 93.0164,101.989 100.35,102.656 107.5,105C 106.167,106.667 106.167,108.333 107.5,110C 106.009,112.097 105.009,114.43 104.5,117C 101.167,117 97.8333,117 94.5,117C 96.6819,119.012 99.3486,120.012 102.5,120C 101.377,121.044 100.044,121.71 98.5,122C 102.486,125.731 105.32,130.231 107,135.5C 107.622,139.029 107.455,142.529 106.5,146C 106.285,147.908 105.285,149.074 103.5,149.5 Z"/></g>
<g><path style="opacity:1" fill="#1b7516" d="M 75.5,114.5 C 74.9927,119.121 75.826,123.454 78,127.5C 81.9096,131.208 86.4096,134.042 91.5,136C 96.0011,140.822 95.0011,143.988 88.5,145.5C 84.3588,144.924 80.3588,143.924 76.5,142.5C 76.7911,141.351 77.6244,140.684 79,140.5C 83.3505,142.379 87.6838,143.379 92,143.5C 92.7975,141.741 92.6309,140.074 91.5,138.5C 88.1517,137.915 85.1517,136.582 82.5,134.5C 81.6143,133.675 81.281,132.675 81.5,131.5C 76.017,132.193 74.017,130.026 75.5,125C 74.2958,123.647 73.6292,121.981 73.5,120C 73.6667,118.5 73.8333,117 74,115.5C 74.3826,114.944 74.8826,114.611 75.5,114.5 Z"/></g>
<g><path style="opacity:1" fill="#1d6f19" d="M 46.5,115.5 C 44.8968,116.596 43.3968,117.93 42,119.5C 41.0124,123.386 39.8458,127.219 38.5,131C 38.6148,133.732 39.4481,136.232 41,138.5C 42.0113,139.337 43.1779,139.67 44.5,139.5C 44.5,140.5 44.5,141.5 44.5,142.5C 49.6946,142.179 54.6946,142.513 59.5,143.5C 41.5476,146.711 34.7142,139.378 39,121.5C 40.5125,118.143 43.0125,116.143 46.5,115.5 Z"/></g>
<g><path style="opacity:1" fill="#10740c" d="M 215.5,87.5 C 215.168,123.671 215.502,159.671 216.5,195.5C 214.452,202.6 211.118,208.933 206.5,214.5C 209.245,209.34 211.745,204.007 214,198.5C 214.167,161.331 214.667,124.331 215.5,87.5 Z"/></g>
<g><path style="opacity:0.027" fill="#39632f" d="M 173.5,119.5 C 173.667,132.171 173.5,144.838 173,157.5C 171.82,161.847 168.987,164.18 164.5,164.5C 164.5,164.167 164.5,163.833 164.5,163.5C 168.892,162.608 171.392,159.942 172,155.5C 172.169,143.326 172.669,131.326 173.5,119.5 Z"/></g>
<g><path style="opacity:0.82" fill="#237220" d="M 149.5,137.5 C 149.28,144.123 147.613,150.289 144.5,156C 139.522,155.949 134.522,155.782 129.5,155.5C 129.232,153.901 129.566,152.568 130.5,151.5C 130.414,152.496 130.748,153.329 131.5,154C 135.821,154.499 140.154,154.666 144.5,154.5C 145.187,148.448 146.854,142.782 149.5,137.5 Z"/></g>
<g><path style="opacity:0.429" fill="#659c5b" d="M 164.5,163.5 C 164.5,163.833 164.5,164.167 164.5,164.5C 130.093,165.654 95.5927,165.654 61,164.5C 60.4824,174.853 60.8157,185.186 62,195.5C 63.1932,197.886 64.3599,200.22 65.5,202.5C 61.8874,200.695 60.054,197.695 60,193.5C 59.4118,183.82 59.0784,174.153 59,164.5C 60.0852,163.707 61.2519,163.04 62.5,162.5C 96.4566,163.493 130.457,163.826 164.5,163.5 Z"/></g>
<g><path style="opacity:1" fill="#307c29" d="M 8.5,159.5 C 10.5441,160.031 12.2107,161.198 13.5,163C 23.7435,163.179 33.9102,163.679 44,164.5C 44.1808,173.744 44.6808,182.911 45.5,192C 44.9032,193.062 44.5698,194.228 44.5,195.5C 46.063,200.179 47.3963,204.845 48.5,209.5C 45.0591,205.94 43.2257,201.607 43,196.5C 42.6667,185.833 42.3333,175.167 42,164.5C 32.4077,165.972 22.5744,165.806 12.5,164C 10.9586,162.629 9.62529,161.129 8.5,159.5 Z"/></g>
<g><path style="opacity:0.322" fill="#266a24" d="M 187.5,205.5 C 187.389,206.117 187.056,206.617 186.5,207C 149.664,207.831 112.998,207.664 76.5,206.5C 113.543,206.821 150.543,206.487 187.5,205.5 Z"/></g>
</svg>
