<?xml version="1.0" encoding="UTF-8"?>
<!DOCTYPE svg PUBLIC "-//W3C//DTD SVG 1.1//EN" "http://www.w3.org/Graphics/SVG/1.1/DTD/svg11.dtd">
<svg xmlns="http://www.w3.org/2000/svg" version="1.1" width="404px" height="329px" style="shape-rendering:geometricPrecision; text-rendering:geometricPrecision; image-rendering:optimizeQuality; fill-rule:evenodd; clip-rule:evenodd" xmlns:xlink="http://www.w3.org/1999/xlink">
<g><path style="opacity:1" fill="#b5b5b5" d="M -0.5,-0.5 C 0.166667,-0.5 0.833333,-0.5 1.5,-0.5C 1.5,109.167 1.5,218.833 1.5,328.5C 0.833333,328.5 0.166667,328.5 -0.5,328.5C -0.5,218.833 -0.5,109.167 -0.5,-0.5 Z"/></g>
<g><path style="opacity:1" fill="#fefeff" d="M 1.5,-0.5 C 135.5,-0.5 269.5,-0.5 403.5,-0.5C 403.5,14.1667 403.5,28.8333 403.5,43.5C -125.833,44.1667 -125.833,44.8333 403.5,45.5C 403.5,139.833 403.5,234.167 403.5,328.5C 269.5,328.5 135.5,328.5 1.5,328.5C 1.5,218.833 1.5,109.167 1.5,-0.5 Z"/></g>
<g><path style="opacity:1" fill="#3900ff" d="M 32.5,5.5 C 34.337,5.63945 34.6704,6.30612 33.5,7.5C 32.7025,7.04311 32.3691,6.37644 32.5,5.5 Z"/></g>
<g><path style="opacity:1" fill="#1900ff" d="M 30.5,8.5 C 31.8333,8.5 33.1667,8.5 34.5,8.5C 34.5,10.8333 34.5,13.1667 34.5,15.5C 39.7517,16.2579 39.585,16.9246 34,17.5C 28.415,16.9246 28.2483,16.2579 33.5,15.5C 33.5,13.8333 33.5,12.1667 33.5,10.5C 31.8212,10.7148 30.8212,10.0481 30.5,8.5 Z"/></g>
<g><path style="opacity:1" fill="#4827ff" d="M 40.5,8.5 C 43.0003,9.12337 45.5003,9.4567 48,9.5C 48.1472,12.1104 48.9806,14.4437 50.5,16.5C 48.8333,17.8333 47.1667,17.8333 45.5,16.5C 46.3482,14.5914 46.6816,12.5914 46.5,10.5C 45.5,10.5 44.5,10.5 43.5,10.5C 43.3184,12.5914 43.6518,14.5914 44.5,16.5C 43.1667,17.8333 41.8333,17.8333 40.5,16.5C 41.7026,13.8401 41.7026,11.1735 40.5,8.5 Z"/></g>
<g><path style="opacity:1" fill="#492eff" d="M 75.5,8.5 C 79.8514,7.53296 82.1847,9.19963 82.5,13.5C 80.1432,13.3367 77.8098,13.5034 75.5,14C 77.7817,15.2965 80.1151,15.7965 82.5,15.5C 80.4729,17.339 78.1396,17.839 75.5,17C 72.8987,14.1705 72.8987,11.3371 75.5,8.5 Z"/></g>
<g><path style="opacity:1" fill="#4827ff" d="M 84.5,8.5 C 87.0003,9.12337 89.5003,9.4567 92,9.5C 92.1472,12.1104 92.9806,14.4437 94.5,16.5C 92.8333,17.8333 91.1667,17.8333 89.5,16.5C 90.3482,14.5914 90.6816,12.5914 90.5,10.5C 89.5,10.5 88.5,10.5 87.5,10.5C 87.3184,12.5914 87.6518,14.5914 88.5,16.5C 87.1667,17.8333 85.8333,17.8333 84.5,16.5C 85.7026,13.8401 85.7026,11.1735 84.5,8.5 Z"/></g>
<g><path style="opacity:1" fill="#4f3bff" d="M 94.5,8.5 C 95.8333,8.5 97.1667,8.5 98.5,8.5C 98.5,10.8333 98.5,13.1667 98.5,15.5C 99.5,15.5 100.5,15.5 101.5,15.5C 101.5,13.1667 101.5,10.8333 101.5,8.5C 102.5,8.5 103.5,8.5 104.5,8.5C 104.274,11.2492 104.607,13.9159 105.5,16.5C 102.628,17.7825 99.7947,17.7825 97,16.5C 96.6498,13.6195 95.8165,10.9529 94.5,8.5 Z"/></g>
<g><path style="opacity:1" fill="#3a17ff" d="M 19.5,8.5 C 21.5273,8.33788 23.5273,8.50454 25.5,9C 26.2181,11.4607 26.8847,13.9607 27.5,16.5C 24.9935,16.6917 22.3269,16.8584 19.5,17C 18.39,13.0838 20.0567,11.0838 24.5,11C 22.256,10.9504 20.5893,10.1171 19.5,8.5 Z"/></g>
<g><path style="opacity:1" fill="#482eff" d="M 6.5,6.5 C 9.59498,6.6263 11.4283,8.29297 12,11.5C 12.7065,9.91941 13.5399,8.41941 14.5,7C 15.635,6.25061 16.635,6.41728 17.5,7.5C 16.1667,10.5 16.1667,13.5 17.5,16.5C 16.1667,17.8333 14.8333,17.8333 13.5,16.5C 14.8233,11.9115 14.3233,11.5782 12,15.5C 9.67666,11.5782 9.17666,11.9115 10.5,16.5C 9.16667,17.8333 7.83333,17.8333 6.5,16.5C 7.73905,13.1701 7.73905,9.8368 6.5,6.5 Z"/></g>
<g><path style="opacity:1" fill="#482eff" d="M 61.5,6.5 C 64.595,6.6263 66.4283,8.29297 67,11.5C 67.7065,9.91941 68.5399,8.41941 69.5,7C 70.635,6.25061 71.635,6.41728 72.5,7.5C 71.1667,10.5 71.1667,13.5 72.5,16.5C 71.1667,17.8333 69.8333,17.8333 68.5,16.5C 69.8233,11.9115 69.3233,11.5782 67,15.5C 64.6767,11.5782 64.1767,11.9115 65.5,16.5C 64.1667,17.8333 62.8333,17.8333 61.5,16.5C 62.7391,13.1701 62.7391,9.8368 61.5,6.5 Z"/></g>
<g><path style="opacity:1" fill="#e6ecff" d="M 20.5,13.5 C 24.5878,13.2184 25.0878,13.8851 22,15.5C 20.9701,15.1639 20.4701,14.4972 20.5,13.5 Z"/></g>
<g><path style="opacity:1" fill="#0000ff" d="M 403.5,43.5 C 403.5,44.1667 403.5,44.8333 403.5,45.5C -125.833,44.8333 -125.833,44.1667 403.5,43.5 Z"/></g>
<g><path style="opacity:1" fill="#3900ff" d="M 153.5,71.5 C 155.337,71.6395 155.67,72.3061 154.5,73.5C 153.702,73.0431 153.369,72.3764 153.5,71.5 Z"/></g>
<g><path style="opacity:1" fill="#1700ff" d="M 162.5,71.5 C 163.833,71.5 165.167,71.5 166.5,71.5C 166.5,74.8333 166.5,78.1667 166.5,81.5C 171.752,82.2579 171.585,82.9246 166,83.5C 160.415,82.9246 160.248,82.2579 165.5,81.5C 165.5,78.8333 165.5,76.1667 165.5,73.5C 163.821,73.7148 162.821,73.0481 162.5,71.5 Z"/></g>
<g><path style="opacity:1" fill="#261aff" d="M 10.5,71.5 C 12.4023,74.3373 13.069,77.6707 12.5,81.5C 17.766,82.134 17.766,82.8007 12.5,83.5C 11.1667,83.1667 9.83333,82.8333 8.5,82.5C 9.32496,81.6143 10.325,81.281 11.5,81.5C 11.5,79.1667 11.5,76.8333 11.5,74.5C 7.99516,74.3059 7.66183,73.3059 10.5,71.5 Z"/></g>
<g><path style="opacity:1" fill="#4313ff" d="M 139.5,72.5 C 142.5,72.5 145.5,72.5 148.5,72.5C 148.657,73.8734 148.49,75.2068 148,76.5C 146.507,74.4402 144.674,74.1068 142.5,75.5C 143.274,76.7112 144.107,76.7112 145,75.5C 145.167,76.1667 145.333,76.8333 145.5,77.5C 143.97,77.9389 142.97,79.2723 142.5,81.5C 143.675,81.281 144.675,81.6143 145.5,82.5C 143.5,83.8333 141.5,83.8333 139.5,82.5C 140.739,79.1701 140.739,75.8368 139.5,72.5 Z"/></g>
<g><path style="opacity:1" fill="#492eff" d="M 53.5,74.5 C 57.8514,73.533 60.1847,75.1996 60.5,79.5C 58.1432,79.3367 55.8098,79.5034 53.5,80C 55.7817,81.2965 58.1151,81.7965 60.5,81.5C 58.4729,83.339 56.1396,83.839 53.5,83C 50.8987,80.1705 50.8987,77.3371 53.5,74.5 Z"/></g>
<g><path style="opacity:1" fill="#2e2dff" d="M 78.5,71.5 C 79.8333,71.5 81.1667,71.5 82.5,71.5C 82.2408,75.2396 82.5741,78.9062 83.5,82.5C 83,82.8333 82.5,83.1667 82,83.5C 80.5598,82.3929 79.0598,82.3929 77.5,83.5C 73.8529,82.5139 72.6862,80.1806 74,76.5C 76.0781,74.6153 78.2447,73.9486 80.5,74.5C 79.3881,73.7348 78.7214,72.7348 78.5,71.5 Z"/></g>
<g><path style="opacity:1" fill="#1900ff" d="M 151.5,74.5 C 152.833,74.5 154.167,74.5 155.5,74.5C 155.5,76.8333 155.5,79.1667 155.5,81.5C 160.752,82.2579 160.585,82.9246 155,83.5C 149.415,82.9246 149.248,82.2579 154.5,81.5C 154.5,79.8333 154.5,78.1667 154.5,76.5C 152.821,76.7148 151.821,76.0481 151.5,74.5 Z"/></g>
<g><path style="opacity:1" fill="#492eff" d="M 174.5,74.5 C 178.851,73.533 181.185,75.1996 181.5,79.5C 179.143,79.3367 176.81,79.5034 174.5,80C 176.782,81.2965 179.115,81.7965 181.5,81.5C 179.473,83.339 177.14,83.839 174.5,83C 171.899,80.1705 171.899,77.3371 174.5,74.5 Z"/></g>
<g><path style="opacity:1" fill="#3a17ff" d="M 63.5,74.5 C 65.5273,74.3379 67.5273,74.5045 69.5,75C 70.2181,77.4607 70.8847,79.9607 71.5,82.5C 68.9935,82.6917 66.3269,82.8584 63.5,83C 62.39,79.0838 64.0567,77.0838 68.5,77C 66.256,76.9504 64.5893,76.1171 63.5,74.5 Z"/></g>
<g><path style="opacity:1" fill="#f1ecff" d="M 75.5,76.5 C 79.6759,75.8307 81.0093,77.3307 79.5,81C 78.2068,81.49 76.8734,81.6567 75.5,81.5C 75.5,79.8333 75.5,78.1667 75.5,76.5 Z"/></g>
<g><path style="opacity:1" fill="#3c24ff" d="M 39.5,72.5 C 42.1873,72.3359 44.854,72.5026 47.5,73C 50.1667,75 50.1667,77 47.5,79C 49.6157,80.1707 50.2824,81.6707 49.5,83.5C 47.8333,82.1667 46.1667,80.8333 44.5,79.5C 44.1667,79.8333 43.8333,80.1667 43.5,80.5C 44.1667,81.1667 44.8333,81.8333 45.5,82.5C 43.5,83.8333 41.5,83.8333 39.5,82.5C 41.9835,79.1811 41.9835,75.8477 39.5,72.5 Z"/></g>
<g><path style="opacity:1" fill="#f7f8ff" d="M 43.5,74.5 C 48.8333,75.5 48.8333,76.5 43.5,77.5C 43.5,76.5 43.5,75.5 43.5,74.5 Z"/></g>
<g><path style="opacity:1" fill="#e6ecff" d="M 64.5,79.5 C 68.5878,79.2184 69.0878,79.8851 66,81.5C 64.9701,81.1639 64.4701,80.4972 64.5,79.5 Z"/></g>
<g><path style="opacity:1" fill="#3e21ff" d="M 108.5,72.5 C 110.541,72.8541 112.374,72.8541 114,72.5C 114.667,73.8333 114.667,75.1667 114,76.5C 112.759,74.5794 111.259,74.246 109.5,75.5C 111.542,76.9098 113.542,78.4098 115.5,80C 115.241,81.2613 114.574,82.2613 113.5,83C 111.343,83.0781 109.343,83.2448 107.5,83.5C 106.167,82.1667 106.167,80.8333 107.5,79.5C 109.276,81.4468 111.276,81.7801 113.5,80.5C 112.009,78.9884 110.176,77.9884 108,77.5C 107.36,75.735 107.527,74.0683 108.5,72.5 Z"/></g>
<g><path style="opacity:1" fill="#3d20ff" d="M 116.5,72.5 C 119.523,72.1052 120.523,73.1052 119.5,75.5C 120.333,77.1667 121.167,78.8333 122,80.5C 123.807,78.2939 124.307,75.9606 123.5,73.5C 124.833,72.1667 126.167,72.1667 127.5,73.5C 126.211,77.0438 124.544,80.3771 122.5,83.5C 119.729,80.2946 117.729,76.6279 116.5,72.5 Z"/></g>
<g><path style="opacity:1" fill="#5f3bff" d="M 21.5,80.5 C 22.5,80.5 23.5,80.5 24.5,80.5C 24.5,81.5 24.5,82.5 24.5,83.5C 23.5,83.5 22.5,83.5 21.5,83.5C 21.5,82.5 21.5,81.5 21.5,80.5 Z"/></g>
<g><path style="opacity:1" fill="#3f25ff" d="M 97.5,72.5 C 99.8067,72.9863 101.973,72.9863 104,72.5C 104.781,73.9437 104.614,75.277 103.5,76.5C 98.0763,73.4176 96.4097,74.9176 98.5,81C 100.235,81.6514 101.902,81.4847 103.5,80.5C 104.711,81.2739 104.711,82.1072 103.5,83C 96.4949,84.3236 93.9949,81.4902 96,74.5C 96.7172,73.9558 97.2172,73.2891 97.5,72.5 Z"/></g>
<g><path style="opacity:1" fill="#1700ff" d="M 129.5,115.5 C 130.833,115.5 132.167,115.5 133.5,115.5C 133.5,118.833 133.5,122.167 133.5,125.5C 138.752,126.258 138.585,126.925 133,127.5C 127.415,126.925 127.248,126.258 132.5,125.5C 132.5,122.833 132.5,120.167 132.5,117.5C 130.821,117.715 129.821,117.048 129.5,115.5 Z"/></g>
<g><path style="opacity:1" fill="#3900ff" d="M 164.5,115.5 C 166.337,115.639 166.67,116.306 165.5,117.5C 164.702,117.043 164.369,116.376 164.5,115.5 Z"/></g>
<g><path style="opacity:1" fill="#4d24ff" d="M 39.5,116.5 C 49.0549,115.195 51.7215,118.695 47.5,127C 44.7728,127.818 42.1062,127.652 39.5,126.5C 40.7391,123.17 40.7391,119.837 39.5,116.5 Z"/></g>
<g><path style="opacity:1" fill="#481cff" d="M 64.5,115.5 C 66.0481,115.821 66.7148,116.821 66.5,118.5C 71.8333,119.167 71.8333,119.833 66.5,120.5C 66.5,122.167 66.5,123.833 66.5,125.5C 68.4458,125.193 70.1125,125.193 71.5,125.5C 69.6847,127.694 67.518,128.028 65,126.5C 63.9216,122.771 63.755,119.104 64.5,115.5 Z"/></g>
<g><path style="opacity:1" fill="#e8eeff" d="M 42.5,118.5 C 47.3276,118.385 48.6609,120.552 46.5,125C 45.2068,125.49 43.8734,125.657 42.5,125.5C 42.5,123.167 42.5,120.833 42.5,118.5 Z"/></g>
<g><path style="opacity:1" fill="#1900ff" d="M 162.5,118.5 C 163.833,118.5 165.167,118.5 166.5,118.5C 166.5,120.833 166.5,123.167 166.5,125.5C 171.752,126.258 171.585,126.925 166,127.5C 160.415,126.925 160.248,126.258 165.5,125.5C 165.5,123.833 165.5,122.167 165.5,120.5C 163.821,120.715 162.821,120.048 162.5,118.5 Z"/></g>
<g><path style="opacity:1" fill="#492eff" d="M 207.5,118.5 C 211.851,117.533 214.185,119.2 214.5,123.5C 212.143,123.337 209.81,123.503 207.5,124C 209.782,125.297 212.115,125.797 214.5,125.5C 212.473,127.339 210.14,127.839 207.5,127C 204.899,124.17 204.899,121.337 207.5,118.5 Z"/></g>
<g><path style="opacity:1" fill="#4827ff" d="M 216.5,118.5 C 219,119.123 221.5,119.457 224,119.5C 224.147,122.11 224.981,124.444 226.5,126.5C 224.833,127.833 223.167,127.833 221.5,126.5C 222.348,124.591 222.682,122.591 222.5,120.5C 221.5,120.5 220.5,120.5 219.5,120.5C 219.318,122.591 219.652,124.591 220.5,126.5C 219.167,127.833 217.833,127.833 216.5,126.5C 217.703,123.84 217.703,121.173 216.5,118.5 Z"/></g>
<g><path style="opacity:1" fill="#4f3bff" d="M 226.5,118.5 C 227.833,118.5 229.167,118.5 230.5,118.5C 230.5,120.833 230.5,123.167 230.5,125.5C 231.5,125.5 232.5,125.5 233.5,125.5C 233.5,123.167 233.5,120.833 233.5,118.5C 234.5,118.5 235.5,118.5 236.5,118.5C 236.274,121.249 236.607,123.916 237.5,126.5C 234.628,127.783 231.795,127.783 229,126.5C 228.65,123.62 227.817,120.953 226.5,118.5 Z"/></g>
<g><path style="opacity:1" fill="#3d1fff" d="M 95.5,116.5 C 97.604,116.201 99.604,116.534 101.5,117.5C 102.695,119.751 103.695,122.085 104.5,124.5C 105.325,125.386 106.325,125.719 107.5,125.5C 107.682,123.409 107.348,121.409 106.5,119.5C 108.371,119.094 110.205,118.76 112,118.5C 112.772,118.645 113.439,118.978 114,119.5C 114.147,122.11 114.981,124.444 116.5,126.5C 114.833,127.833 113.167,127.833 111.5,126.5C 112.348,124.591 112.682,122.591 112.5,120.5C 111.5,120.5 110.5,120.5 109.5,120.5C 109.318,122.591 109.652,124.591 110.5,126.5C 107.5,127.833 104.5,127.833 101.5,126.5C 102.804,124.984 102.304,124.318 100,124.5C 97.6962,124.318 97.1962,124.984 98.5,126.5C 97.1667,127.833 95.8333,127.833 94.5,126.5C 95.6948,124.249 96.6948,121.915 97.5,119.5C 96.3881,118.735 95.7214,117.735 95.5,116.5 Z"/></g>
<g><path style="opacity:1" fill="#3a17ff" d="M 52.5,118.5 C 54.5273,118.338 56.5273,118.505 58.5,119C 59.2181,121.461 59.8847,123.961 60.5,126.5C 57.9935,126.692 55.3269,126.858 52.5,127C 51.39,123.084 53.0567,121.084 57.5,121C 55.256,120.95 53.5893,120.117 52.5,118.5 Z"/></g>
<g><path style="opacity:1" fill="#3a17ff" d="M 74.5,118.5 C 76.5273,118.338 78.5273,118.505 80.5,119C 81.2181,121.461 81.8847,123.961 82.5,126.5C 79.9935,126.692 77.3269,126.858 74.5,127C 73.39,123.084 75.0567,121.084 79.5,121C 77.256,120.95 75.5893,120.117 74.5,118.5 Z"/></g>
<g><path style="opacity:1" fill="#d9e0ff" d="M 99.5,119.5 C 102.377,121.846 102.044,122.679 98.5,122C 99.2524,121.329 99.5858,120.496 99.5,119.5 Z"/></g>
<g><path style="opacity:1" fill="#3a17ff" d="M 118.5,118.5 C 120.527,118.338 122.527,118.505 124.5,119C 125.218,121.461 125.885,123.961 126.5,126.5C 123.994,126.692 121.327,126.858 118.5,127C 117.39,123.084 119.057,121.084 123.5,121C 121.256,120.95 119.589,120.117 118.5,118.5 Z"/></g>
<g><path style="opacity:1" fill="#482eff" d="M 193.5,116.5 C 196.595,116.626 198.428,118.293 199,121.5C 199.707,119.919 200.54,118.419 201.5,117C 202.635,116.251 203.635,116.417 204.5,117.5C 203.167,120.5 203.167,123.5 204.5,126.5C 203.167,127.833 201.833,127.833 200.5,126.5C 201.823,121.912 201.323,121.578 199,125.5C 196.677,121.578 196.177,121.912 197.5,126.5C 196.167,127.833 194.833,127.833 193.5,126.5C 194.739,123.17 194.739,119.837 193.5,116.5 Z"/></g>
<g><path style="opacity:1" fill="#e6ecff" d="M 53.5,123.5 C 57.5878,123.218 58.0878,123.885 55,125.5C 53.9701,125.164 53.4701,124.497 53.5,123.5 Z"/></g>
<g><path style="opacity:1" fill="#e6ecff" d="M 75.5,123.5 C 79.5878,123.218 80.0878,123.885 77,125.5C 75.9701,125.164 75.4701,124.497 75.5,123.5 Z"/></g>
<g><path style="opacity:1" fill="#e6ecff" d="M 119.5,123.5 C 123.588,123.218 124.088,123.885 121,125.5C 119.97,125.164 119.47,124.497 119.5,123.5 Z"/></g>
<g><path style="opacity:1" fill="#281bff" d="M 152.5,118.5 C 154.5,118.5 156.5,118.5 158.5,118.5C 158.649,119.552 158.483,120.552 158,121.5C 156.612,120.446 155.112,120.28 153.5,121C 154.949,122.117 156.616,122.784 158.5,123C 159.727,124.587 159.394,125.921 157.5,127C 155.527,127.495 153.527,127.662 151.5,127.5C 151.351,126.448 151.517,125.448 152,124.5C 153.726,125.576 155.559,125.743 157.5,125C 155.781,123.943 153.947,123.11 152,122.5C 151.421,121.072 151.588,119.738 152.5,118.5 Z"/></g>
<g><path style="opacity:1" fill="#281bff" d="M 174.5,118.5 C 176.5,118.5 178.5,118.5 180.5,118.5C 180.649,119.552 180.483,120.552 180,121.5C 178.612,120.446 177.112,120.28 175.5,121C 176.949,122.117 178.616,122.784 180.5,123C 181.727,124.587 181.394,125.921 179.5,127C 177.527,127.495 175.527,127.662 173.5,127.5C 173.351,126.448 173.517,125.448 174,124.5C 175.726,125.576 177.559,125.743 179.5,125C 177.781,123.943 175.947,123.11 174,122.5C 173.421,121.072 173.588,119.738 174.5,118.5 Z"/></g>
<g><path style="opacity:1" fill="#2411ff" d="M 9.5,115.5 C 14.3269,114.848 16.1603,116.848 15,121.5C 13.786,123.049 12.286,124.215 10.5,125C 12.2556,125.202 13.9223,125.702 15.5,126.5C 12.8333,127.833 10.1667,127.833 7.5,126.5C 9.14905,124.35 10.9824,122.35 13,120.5C 13.4828,119.552 13.6495,118.552 13.5,117.5C 11.6096,117.297 10.1096,117.963 9,119.5C 8.42094,118.072 8.58761,116.738 9.5,115.5 Z"/></g>
<g><path style="opacity:1" fill="#5f3bff" d="M 21.5,124.5 C 22.5,124.5 23.5,124.5 24.5,124.5C 24.5,125.5 24.5,126.5 24.5,127.5C 23.5,127.5 22.5,127.5 21.5,127.5C 21.5,126.5 21.5,125.5 21.5,124.5 Z"/></g>
<g><path style="opacity:1" fill="#3b1fff" d="M 138.5,118.5 C 139.978,118.238 141.311,118.571 142.5,119.5C 141.712,121.329 142.212,122.996 144,124.5C 145.128,122.655 145.628,120.655 145.5,118.5C 146.675,118.281 147.675,118.614 148.5,119.5C 146.012,122.935 145.012,126.602 145.5,130.5C 143.5,131.833 141.5,131.833 139.5,130.5C 140.325,129.614 141.325,129.281 142.5,129.5C 141.999,125.505 140.666,121.838 138.5,118.5 Z"/></g>
<g><path style="opacity:1" fill="#3e19ff" d="M 52.5,162.5 C 55.1667,163.833 57.8333,163.833 60.5,162.5C 60.6495,163.552 60.4828,164.552 60,165.5C 56.9784,164.669 55.4784,166.002 55.5,169.5C 56.9778,169.238 58.3112,169.571 59.5,170.5C 56.8333,171.833 54.1667,171.833 51.5,170.5C 53.7633,168.108 54.0966,165.441 52.5,162.5 Z"/></g>
<g><path style="opacity:1" fill="#4222ff" d="M 72.5,162.5 C 76.0071,161.994 79.1737,162.66 82,164.5C 83.1884,169.98 81.1884,171.98 76,170.5C 75.5172,171.448 75.3505,172.448 75.5,173.5C 76.675,173.281 77.675,173.614 78.5,174.5C 76.5,175.833 74.5,175.833 72.5,174.5C 73.7597,170.502 73.7597,166.502 72.5,162.5 Z"/></g>
<g><path style="opacity:1" fill="#4b2aff" d="M 83.5,159.5 C 84.8333,159.5 86.1667,159.5 87.5,159.5C 87.5,160.5 87.5,161.5 87.5,162.5C 89.1439,162.286 90.6439,162.62 92,163.5C 92.1472,166.11 92.9806,168.444 94.5,170.5C 92.8333,171.833 91.1667,171.833 89.5,170.5C 90.3482,168.591 90.6816,166.591 90.5,164.5C 89.5,164.5 88.5,164.5 87.5,164.5C 87.3184,166.591 87.6518,168.591 88.5,170.5C 87.1667,171.833 85.8333,171.833 84.5,170.5C 85.9452,166.635 85.6119,162.968 83.5,159.5 Z"/></g>
<g><path style="opacity:1" fill="#492eff" d="M 119.5,162.5 C 123.851,161.533 126.185,163.2 126.5,167.5C 124.143,167.337 121.81,167.503 119.5,168C 121.782,169.297 124.115,169.797 126.5,169.5C 124.473,171.339 122.14,171.839 119.5,171C 116.899,168.17 116.899,165.337 119.5,162.5 Z"/></g>
<g><path style="opacity:1" fill="#4827ff" d="M 128.5,162.5 C 131,163.123 133.5,163.457 136,163.5C 136.147,166.11 136.981,168.444 138.5,170.5C 136.833,171.833 135.167,171.833 133.5,170.5C 134.348,168.591 134.682,166.591 134.5,164.5C 133.5,164.5 132.5,164.5 131.5,164.5C 131.318,166.591 131.652,168.591 132.5,170.5C 131.167,171.833 129.833,171.833 128.5,170.5C 129.703,167.84 129.703,165.173 128.5,162.5 Z"/></g>
<g><path style="opacity:1" fill="#4f3bff" d="M 138.5,162.5 C 139.833,162.5 141.167,162.5 142.5,162.5C 142.5,164.833 142.5,167.167 142.5,169.5C 143.5,169.5 144.5,169.5 145.5,169.5C 145.5,167.167 145.5,164.833 145.5,162.5C 146.5,162.5 147.5,162.5 148.5,162.5C 148.274,165.249 148.607,167.916 149.5,170.5C 146.628,171.783 143.795,171.783 141,170.5C 140.65,167.62 139.817,164.953 138.5,162.5 Z"/></g>
<g><path style="opacity:1" fill="#422bff" d="M 9.5,159.5 C 11.4672,159.261 13.3005,159.594 15,160.5C 15.3392,163.036 15.8392,165.536 16.5,168C 14.8419,171.297 12.1752,172.297 8.5,171C 8.04265,170.586 7.70931,170.086 7.5,169.5C 9.88492,169.797 12.2183,169.297 14.5,168C 13.2412,167.077 11.9079,166.243 10.5,165.5C 11.9079,164.757 13.2412,163.923 14.5,163C 13.0099,161.228 11.3432,161.061 9.5,162.5C 8.43764,161.575 8.43764,160.575 9.5,159.5 Z"/></g>
<g><path style="opacity:1" fill="#3a17ff" d="M 63.5,162.5 C 65.5273,162.338 67.5273,162.505 69.5,163C 70.2181,165.461 70.8847,167.961 71.5,170.5C 68.9935,170.692 66.3269,170.858 63.5,171C 62.39,167.084 64.0567,165.084 68.5,165C 66.256,164.95 64.5893,164.117 63.5,162.5 Z"/></g>
<g><path style="opacity:1" fill="#e2dcff" d="M 76.5,164.5 C 80.1378,163.737 81.6378,165.07 81,168.5C 76.421,170.418 74.921,169.085 76.5,164.5 Z"/></g>
<g><path style="opacity:1" fill="#391fff" d="M 42.5,160.5 C 44.8067,160.986 46.9734,160.986 49,160.5C 49.7805,161.944 49.6139,163.277 48.5,164.5C 43.5801,161.241 41.7468,162.574 43,168.5C 44.4936,169.747 45.9936,169.747 47.5,168.5C 46.5,167.833 45.5,167.167 44.5,166.5C 50.2629,164.649 51.5963,166.149 48.5,171C 41.4949,172.324 38.9949,169.49 41,162.5C 41.7172,161.956 42.2172,161.289 42.5,160.5 Z"/></g>
<g><path style="opacity:1" fill="#482eff" d="M 105.5,160.5 C 108.595,160.626 110.428,162.293 111,165.5C 111.707,163.919 112.54,162.419 113.5,161C 114.635,160.251 115.635,160.417 116.5,161.5C 115.167,164.5 115.167,167.5 116.5,170.5C 115.167,171.833 113.833,171.833 112.5,170.5C 113.823,165.912 113.323,165.578 111,169.5C 108.677,165.578 108.177,165.912 109.5,170.5C 108.167,171.833 106.833,171.833 105.5,170.5C 106.739,167.17 106.739,163.837 105.5,160.5 Z"/></g>
<g><path style="opacity:1" fill="#e6ecff" d="M 64.5,167.5 C 68.5878,167.218 69.0878,167.885 66,169.5C 64.9701,169.164 64.4701,168.497 64.5,167.5 Z"/></g>
<g><path style="opacity:1" fill="#5f3bff" d="M 21.5,168.5 C 22.5,168.5 23.5,168.5 24.5,168.5C 24.5,169.5 24.5,170.5 24.5,171.5C 23.5,171.5 22.5,171.5 21.5,171.5C 21.5,170.5 21.5,169.5 21.5,168.5 Z"/></g>
<g><path style="opacity:1" fill="#441bff" d="M 12.5,203.5 C 14.2343,205.683 15.2343,208.35 15.5,211.5C 14.1667,212.5 14.1667,213.5 15.5,214.5C 14.1667,215.833 12.8333,215.833 11.5,214.5C 11.7093,213.914 12.0426,213.414 12.5,213C 10.7444,212.798 9.07774,212.298 7.5,211.5C 9.17756,208.805 10.8442,206.139 12.5,203.5 Z"/></g>
<g><path style="opacity:1" fill="#2513ff" d="M 40.5,204.5 C 43.5,204.5 46.5,204.5 49.5,204.5C 49.7213,208.795 48.3879,209.462 45.5,206.5C 44.8333,206.833 44.1667,207.167 43.5,207.5C 44.2739,208.711 45.1072,208.711 46,207.5C 46.1667,208.167 46.3333,208.833 46.5,209.5C 44.9702,209.939 43.9702,211.272 43.5,213.5C 45.4918,213.672 47.1585,213.005 48.5,211.5C 49.4287,212.689 49.762,214.022 49.5,215.5C 46.4281,215.817 43.4281,215.484 40.5,214.5C 41.7391,211.17 41.7391,207.837 40.5,204.5 Z"/></g>
<g><path style="opacity:1" fill="#481cff" d="M 97.5,203.5 C 99.0481,203.821 99.7148,204.821 99.5,206.5C 104.833,207.167 104.833,207.833 99.5,208.5C 99.5,210.167 99.5,211.833 99.5,213.5C 101.446,213.193 103.113,213.193 104.5,213.5C 102.685,215.694 100.518,216.028 98,214.5C 96.9216,210.771 96.755,207.104 97.5,203.5 Z"/></g>
<g><path style="opacity:1" fill="#4d24ff" d="M 116.5,204.5 C 126.055,203.195 128.722,206.695 124.5,215C 121.773,215.818 119.106,215.652 116.5,214.5C 117.739,211.17 117.739,207.837 116.5,204.5 Z"/></g>
<g><path style="opacity:1" fill="#481cff" d="M 141.5,203.5 C 143.048,203.821 143.715,204.821 143.5,206.5C 148.833,207.167 148.833,207.833 143.5,208.5C 143.5,210.167 143.5,211.833 143.5,213.5C 145.446,213.193 147.113,213.193 148.5,213.5C 146.685,215.694 144.518,216.028 142,214.5C 140.922,210.771 140.755,207.104 141.5,203.5 Z"/></g>
<g><path style="opacity:1" fill="#4222ff" d="M 61.5,206.5 C 65.0071,205.994 68.1737,206.66 71,208.5C 72.1884,213.98 70.1884,215.98 65,214.5C 64.5172,215.448 64.3505,216.448 64.5,217.5C 65.675,217.281 66.675,217.614 67.5,218.5C 65.5,219.833 63.5,219.833 61.5,218.5C 62.7597,214.502 62.7597,210.502 61.5,206.5 Z"/></g>
<g><path style="opacity:1" fill="#3e19ff" d="M 85.5,206.5 C 88.1667,207.833 90.8333,207.833 93.5,206.5C 93.6495,207.552 93.4828,208.552 93,209.5C 89.9784,208.669 88.4784,210.002 88.5,213.5C 89.9778,213.238 91.3112,213.571 92.5,214.5C 89.8333,215.833 87.1667,215.833 84.5,214.5C 86.7633,212.108 87.0966,209.441 85.5,206.5 Z"/></g>
<g><path style="opacity:1" fill="#e8eeff" d="M 119.5,206.5 C 124.328,206.385 125.661,208.552 123.5,213C 122.207,213.49 120.873,213.657 119.5,213.5C 119.5,211.167 119.5,208.833 119.5,206.5 Z"/></g>
<g><path style="opacity:1" fill="#d0e8ff" d="M 11.5,207.5 C 12.7759,208.386 12.7759,209.386 11.5,210.5C 10.913,209.767 10.913,208.767 11.5,207.5 Z"/></g>
<g><path style="opacity:1" fill="#e2dcff" d="M 65.5,208.5 C 69.1378,207.737 70.6378,209.07 70,212.5C 65.421,214.418 63.921,213.085 65.5,208.5 Z"/></g>
<g><path style="opacity:1" fill="#3a17ff" d="M 129.5,206.5 C 131.527,206.338 133.527,206.505 135.5,207C 136.218,209.461 136.885,211.961 137.5,214.5C 134.994,214.692 132.327,214.858 129.5,215C 128.39,211.084 130.057,209.084 134.5,209C 132.256,208.95 130.589,208.117 129.5,206.5 Z"/></g>
<g><path style="opacity:1" fill="#3a17ff" d="M 151.5,206.5 C 153.527,206.338 155.527,206.505 157.5,207C 158.218,209.461 158.885,211.961 159.5,214.5C 156.994,214.692 154.327,214.858 151.5,215C 150.39,211.084 152.057,209.084 156.5,209C 154.256,208.95 152.589,208.117 151.5,206.5 Z"/></g>
<g><path style="opacity:1" fill="#4322ff" d="M 51.5,206.5 C 52.8333,206.5 54.1667,206.5 55.5,206.5C 55.8333,210.5 56.1667,210.5 56.5,206.5C 61.3899,206.639 61.7233,208.139 57.5,211C 61.7233,213.861 61.3899,215.361 56.5,215.5C 56.1667,211.5 55.8333,211.5 55.5,215.5C 50.6101,215.361 50.2767,213.861 54.5,211C 52.8588,209.871 51.8588,208.371 51.5,206.5 Z"/></g>
<g><path style="opacity:1" fill="#e6ecff" d="M 130.5,211.5 C 134.588,211.218 135.088,211.885 132,213.5C 130.97,213.164 130.47,212.497 130.5,211.5 Z"/></g>
<g><path style="opacity:1" fill="#e6ecff" d="M 152.5,211.5 C 156.588,211.218 157.088,211.885 154,213.5C 152.97,213.164 152.47,212.497 152.5,211.5 Z"/></g>
<g><path style="opacity:1" fill="#5f3bff" d="M 21.5,212.5 C 22.5,212.5 23.5,212.5 24.5,212.5C 24.5,213.5 24.5,214.5 24.5,215.5C 23.5,215.5 22.5,215.5 21.5,215.5C 21.5,214.5 21.5,213.5 21.5,212.5 Z"/></g>
<g><path style="opacity:1" fill="#4022ff" d="M 75.5,206.5 C 82.4863,206.331 84.153,209.164 80.5,215C 73.4159,215.475 71.7492,212.642 75.5,206.5 Z"/></g>
<g><path style="opacity:1" fill="#f4f8ff" d="M 76.5,208.5 C 80.1612,208.35 81.1612,209.85 79.5,213C 75.7071,213.487 74.7071,211.987 76.5,208.5 Z"/></g>
<g><path style="opacity:1" fill="#4424ff" d="M 8.5,247.5 C 10.924,247.192 13.2573,247.526 15.5,248.5C 13.8333,249.167 12.1667,249.833 10.5,250.5C 16.3704,251.48 17.7038,254.313 14.5,259C 12.2305,259.758 10.0639,259.591 8,258.5C 7.31232,257.668 7.47899,257.002 8.5,256.5C 10.9007,258.062 12.9007,257.729 14.5,255.5C 13.2524,253.31 11.5857,252.977 9.5,254.5C 8.52577,252.257 8.19244,249.924 8.5,247.5 Z"/></g>
<g><path style="opacity:1" fill="#3900ff" d="M 65.5,247.5 C 67.337,247.639 67.6704,248.306 66.5,249.5C 65.7025,249.043 65.3691,248.376 65.5,247.5 Z"/></g>
<g><path style="opacity:1" fill="#2513ff" d="M 40.5,248.5 C 43.5,248.5 46.5,248.5 49.5,248.5C 49.7213,252.795 48.3879,253.462 45.5,250.5C 44.8333,250.833 44.1667,251.167 43.5,251.5C 44.2739,252.711 45.1072,252.711 46,251.5C 46.1667,252.167 46.3333,252.833 46.5,253.5C 44.9702,253.939 43.9702,255.272 43.5,257.5C 45.4918,257.672 47.1585,257.005 48.5,255.5C 49.4287,256.689 49.762,258.022 49.5,259.5C 46.4281,259.817 43.4281,259.484 40.5,258.5C 41.7391,255.17 41.7391,251.837 40.5,248.5 Z"/></g>
<g><path style="opacity:1" fill="#481cff" d="M 75.5,247.5 C 77.0481,247.821 77.7148,248.821 77.5,250.5C 82.8333,251.167 82.8333,251.833 77.5,252.5C 77.5,254.167 77.5,255.833 77.5,257.5C 79.4458,257.193 81.1125,257.193 82.5,257.5C 80.6847,259.694 78.518,260.028 76,258.5C 74.9216,254.771 74.755,251.104 75.5,247.5 Z"/></g>
<g><path style="opacity:1" fill="#1900ff" d="M 63.5,250.5 C 64.8333,250.5 66.1667,250.5 67.5,250.5C 67.5,252.833 67.5,255.167 67.5,257.5C 72.7517,258.258 72.585,258.925 67,259.5C 61.415,258.925 61.2483,258.258 66.5,257.5C 66.5,255.833 66.5,254.167 66.5,252.5C 64.8212,252.715 63.8212,252.048 63.5,250.5 Z"/></g>
<g><path style="opacity:1" fill="#4322ff" d="M 51.5,250.5 C 52.8333,250.5 54.1667,250.5 55.5,250.5C 55.8333,254.5 56.1667,254.5 56.5,250.5C 61.3899,250.639 61.7233,252.139 57.5,255C 61.7233,257.861 61.3899,259.361 56.5,259.5C 56.1667,255.5 55.8333,255.5 55.5,259.5C 50.6101,259.361 50.2767,257.861 54.5,255C 52.8588,253.871 51.8588,252.371 51.5,250.5 Z"/></g>
<g><path style="opacity:1" fill="#5f3bff" d="M 21.5,256.5 C 22.5,256.5 23.5,256.5 24.5,256.5C 24.5,257.5 24.5,258.5 24.5,259.5C 23.5,259.5 22.5,259.5 21.5,259.5C 21.5,258.5 21.5,257.5 21.5,256.5 Z"/></g>
<g><path style="opacity:1" fill="#3900ff" d="M 164.5,291.5 C 166.337,291.639 166.67,292.306 165.5,293.5C 164.702,293.043 164.369,292.376 164.5,291.5 Z"/></g>
<g><path style="opacity:1" fill="#481cff" d="M 31.5,291.5 C 33.0481,291.821 33.7148,292.821 33.5,294.5C 38.8333,295.167 38.8333,295.833 33.5,296.5C 33.5,298.167 33.5,299.833 33.5,301.5C 35.4458,301.193 37.1125,301.193 38.5,301.5C 36.6847,303.694 34.518,304.028 32,302.5C 30.9216,298.771 30.755,295.104 31.5,291.5 Z"/></g>
<g><path style="opacity:1" fill="#492eff" d="M 9.5,294.5 C 13.8514,293.533 16.1847,295.2 16.5,299.5C 14.1432,299.337 11.8098,299.503 9.5,300C 11.7817,301.297 14.1151,301.797 16.5,301.5C 14.4729,303.339 12.1396,303.839 9.5,303C 6.8987,300.17 6.8987,297.337 9.5,294.5 Z"/></g>
<g><path style="opacity:1" fill="#4827ff" d="M 18.5,294.5 C 21.0003,295.123 23.5003,295.457 26,295.5C 26.1472,298.11 26.9806,300.444 28.5,302.5C 26.8333,303.833 25.1667,303.833 23.5,302.5C 24.3482,300.591 24.6816,298.591 24.5,296.5C 23.5,296.5 22.5,296.5 21.5,296.5C 21.3184,298.591 21.6518,300.591 22.5,302.5C 21.1667,303.833 19.8333,303.833 18.5,302.5C 19.7026,299.84 19.7026,297.173 18.5,294.5 Z"/></g>
<g><path style="opacity:1" fill="#492eff" d="M 42.5,294.5 C 46.8514,293.533 49.1847,295.2 49.5,299.5C 47.1432,299.337 44.8098,299.503 42.5,300C 44.7817,301.297 47.1151,301.797 49.5,301.5C 47.4729,303.339 45.1396,303.839 42.5,303C 39.8987,300.17 39.8987,297.337 42.5,294.5 Z"/></g>
<g><path style="opacity:1" fill="#3e19ff" d="M 52.5,294.5 C 55.1667,295.833 57.8333,295.833 60.5,294.5C 60.6495,295.552 60.4828,296.552 60,297.5C 56.9784,296.669 55.4784,298.002 55.5,301.5C 56.9778,301.238 58.3112,301.571 59.5,302.5C 56.8333,303.833 54.1667,303.833 51.5,302.5C 53.7633,300.108 54.0966,297.441 52.5,294.5 Z"/></g>
<g><path style="opacity:1" fill="#4f3bff" d="M 94.5,294.5 C 95.8333,294.5 97.1667,294.5 98.5,294.5C 98.5,296.833 98.5,299.167 98.5,301.5C 99.5,301.5 100.5,301.5 101.5,301.5C 101.5,299.167 101.5,296.833 101.5,294.5C 102.5,294.5 103.5,294.5 104.5,294.5C 104.274,297.249 104.607,299.916 105.5,302.5C 102.628,303.783 99.7947,303.783 97,302.5C 96.6498,299.62 95.8165,296.953 94.5,294.5 Z"/></g>
<g><path style="opacity:1" fill="#3e19ff" d="M 107.5,294.5 C 110.167,295.833 112.833,295.833 115.5,294.5C 115.649,295.552 115.483,296.552 115,297.5C 111.978,296.669 110.478,298.002 110.5,301.5C 111.978,301.238 113.311,301.571 114.5,302.5C 111.833,303.833 109.167,303.833 106.5,302.5C 108.763,300.108 109.097,297.441 107.5,294.5 Z"/></g>
<g><path style="opacity:1" fill="#4b2aff" d="M 138.5,291.5 C 139.833,291.5 141.167,291.5 142.5,291.5C 142.5,292.5 142.5,293.5 142.5,294.5C 144.144,294.286 145.644,294.62 147,295.5C 147.147,298.11 147.981,300.444 149.5,302.5C 147.833,303.833 146.167,303.833 144.5,302.5C 145.348,300.591 145.682,298.591 145.5,296.5C 144.5,296.5 143.5,296.5 142.5,296.5C 142.318,298.591 142.652,300.591 143.5,302.5C 142.167,303.833 140.833,303.833 139.5,302.5C 140.945,298.635 140.612,294.968 138.5,291.5 Z"/></g>
<g><path style="opacity:1" fill="#1900ff" d="M 162.5,294.5 C 163.833,294.5 165.167,294.5 166.5,294.5C 166.5,296.833 166.5,299.167 166.5,301.5C 171.752,302.258 171.585,302.925 166,303.5C 160.415,302.925 160.248,302.258 165.5,301.5C 165.5,299.833 165.5,298.167 165.5,296.5C 163.821,296.715 162.821,296.048 162.5,294.5 Z"/></g>
<g><path style="opacity:1" fill="#492eff" d="M 185.5,294.5 C 189.851,293.533 192.185,295.2 192.5,299.5C 190.143,299.337 187.81,299.503 185.5,300C 187.782,301.297 190.115,301.797 192.5,301.5C 190.473,303.339 188.14,303.839 185.5,303C 182.899,300.17 182.899,297.337 185.5,294.5 Z"/></g>
<g><path style="opacity:1" fill="#5f3bff" d="M 197.5,294.5 C 198.5,294.5 199.5,294.5 200.5,294.5C 200.5,295.5 200.5,296.5 200.5,297.5C 199.5,297.5 198.5,297.5 197.5,297.5C 197.5,296.5 197.5,295.5 197.5,294.5 Z"/></g>
<g><path style="opacity:1" fill="#3b1fff" d="M 72.5,294.5 C 73.9778,294.238 75.3112,294.571 76.5,295.5C 75.7122,297.329 76.2122,298.996 78,300.5C 79.128,298.655 79.628,296.655 79.5,294.5C 80.675,294.281 81.675,294.614 82.5,295.5C 80.0118,298.935 79.0118,302.602 79.5,306.5C 77.5,307.833 75.5,307.833 73.5,306.5C 74.325,305.614 75.325,305.281 76.5,305.5C 75.9993,301.505 74.6659,297.838 72.5,294.5 Z"/></g>
<g><path style="opacity:1" fill="#4022ff" d="M 86.5,294.5 C 93.4863,294.331 95.153,297.164 91.5,303C 84.4159,303.475 82.7492,300.642 86.5,294.5 Z"/></g>
<g><path style="opacity:1" fill="#f4f8ff" d="M 87.5,296.5 C 91.1612,296.35 92.1612,297.85 90.5,301C 86.7071,301.487 85.7071,299.987 87.5,296.5 Z"/></g>
<g><path style="opacity:1" fill="#4022ff" d="M 152.5,294.5 C 159.486,294.331 161.153,297.164 157.5,303C 150.416,303.475 148.749,300.642 152.5,294.5 Z"/></g>
<g><path style="opacity:1" fill="#f4f8ff" d="M 153.5,296.5 C 157.161,296.35 158.161,297.85 156.5,301C 152.707,301.487 151.707,299.987 153.5,296.5 Z"/></g>
<g><path style="opacity:1" fill="#5f3bff" d="M 197.5,300.5 C 198.5,300.5 199.5,300.5 200.5,300.5C 200.5,301.5 200.5,302.5 200.5,303.5C 199.5,303.5 198.5,303.5 197.5,303.5C 197.5,302.5 197.5,301.5 197.5,300.5 Z"/></g>
<g><path style="opacity:1" fill="#3f17ff" d="M 131.5,294.5 C 133.541,294.854 135.374,294.854 137,294.5C 137.667,295.833 137.667,297.167 137,298.5C 134.464,295.687 132.297,295.854 130.5,299C 130.645,299.772 130.978,300.439 131.5,301C 133.441,301.743 135.274,301.576 137,300.5C 137.617,301.449 137.451,302.282 136.5,303C 130.507,304.668 128.007,302.502 129,296.5C 129.995,295.934 130.828,295.267 131.5,294.5 Z"/></g>
<g><path style="opacity:1" fill="#3f17ff" d="M 175.5,294.5 C 177.541,294.854 179.374,294.854 181,294.5C 181.667,295.833 181.667,297.167 181,298.5C 178.464,295.687 176.297,295.854 174.5,299C 174.645,299.772 174.978,300.439 175.5,301C 177.441,301.743 179.274,301.576 181,300.5C 181.617,301.449 181.451,302.282 180.5,303C 174.507,304.668 172.007,302.502 173,296.5C 173.995,295.934 174.828,295.267 175.5,294.5 Z"/></g>
</svg>
