<?xml version="1.0" encoding="UTF-8"?>
<!DOCTYPE svg PUBLIC "-//W3C//DTD SVG 1.1//EN" "http://www.w3.org/Graphics/SVG/1.1/DTD/svg11.dtd">
<svg xmlns="http://www.w3.org/2000/svg" version="1.1" width="200px" height="200px" style="shape-rendering:geometricPrecision; text-rendering:geometricPrecision; image-rendering:optimizeQuality; fill-rule:evenodd; clip-rule:evenodd" xmlns:xlink="http://www.w3.org/1999/xlink">
<g><path style="opacity:1" fill="#f4f5ee" d="M 137.5,27.5 C 139.144,29.4807 140.81,31.4807 142.5,33.5C 140.35,36.1506 138.017,38.6506 135.5,41C 134.181,41.195 132.847,41.0283 131.5,40.5C 128.203,36.2129 123.869,33.5462 118.5,32.5C 113.034,29.303 107.034,27.9697 100.5,28.5C 100.5,24.1667 100.5,19.8333 100.5,15.5C 114.047,15.9656 126.38,19.9656 137.5,27.5 Z"/></g>
<g><path style="opacity:1" fill="#f4f4ed" d="M 148.5,38.5 C 157.119,49.6185 161.453,62.2851 161.5,76.5C 157.167,76.5 152.833,76.5 148.5,76.5C 149.02,67.5742 146.687,59.5742 141.5,52.5C 140.146,48.9683 138.146,45.8016 135.5,43C 138.333,40.1667 141.167,37.3333 144,34.5C 145.371,36.0414 146.871,37.3747 148.5,38.5 Z"/></g>
<g><path style="opacity:1" fill="#a3a39d" d="M 118.5,32.5 C 123.869,33.5462 128.203,36.2129 131.5,40.5C 126.991,38.0809 122.658,35.4143 118.5,32.5 Z"/></g>
<g><path style="opacity:1" fill="#f2f3eb" d="M 118.5,32.5 C 122.658,35.4143 126.991,38.0809 131.5,40.5C 132.412,41.7382 132.579,43.0715 132,44.5C 129.628,46.7032 127.461,49.0365 125.5,51.5C 123.5,50.5 121.5,49.5 119.5,48.5C 120.014,46.6336 120.68,44.8003 121.5,43C 121.164,41.9701 120.497,41.4701 119.5,41.5C 117.911,39.6944 115.911,38.3611 113.5,37.5C 112.081,38.0047 111.415,39.0047 111.5,40.5C 111.5,40.8333 111.5,41.1667 111.5,41.5C 110.662,41.8417 110.328,42.5084 110.5,43.5C 107.236,42.6758 103.902,42.3424 100.5,42.5C 100.5,38.1667 100.5,33.8333 100.5,29.5C 106.596,29.9862 112.596,30.9862 118.5,32.5 Z"/></g>
<g><path style="opacity:1" fill="#99a574" d="M 119.5,41.5 C 117.634,40.9862 115.8,40.3195 114,39.5C 113.098,39.7432 112.265,40.0766 111.5,40.5C 111.415,39.0047 112.081,38.0047 113.5,37.5C 115.911,38.3611 117.911,39.6944 119.5,41.5 Z"/></g>
<g><path style="opacity:1" fill="#a4a39e" d="M 137.5,27.5 C 142.167,30.1667 145.833,33.8333 148.5,38.5C 146.871,37.3747 145.371,36.0414 144,34.5C 141.167,37.3333 138.333,40.1667 135.5,43C 138.146,45.8016 140.146,48.9683 141.5,52.5C 139.189,49.853 136.856,47.1864 134.5,44.5C 131.748,47.2634 128.748,49.5967 125.5,51.5C 127.461,49.0365 129.628,46.7032 132,44.5C 132.579,43.0715 132.412,41.7382 131.5,40.5C 132.847,41.0283 134.181,41.195 135.5,41C 138.017,38.6506 140.35,36.1506 142.5,33.5C 140.81,31.4807 139.144,29.4807 137.5,27.5 Z"/></g>
<g><path style="opacity:1" fill="#a1ad71" d="M 111.5,41.5 C 111.946,44.0101 111.28,46.0101 109.5,47.5C 109.5,46.5 109.5,45.5 109.5,44.5C 110.167,44.5 110.5,44.1667 110.5,43.5C 110.328,42.5084 110.662,41.8417 111.5,41.5 Z"/></g>
<g><path style="opacity:1" fill="#d0ee6a" d="M 119.5,41.5 C 119.768,43.099 119.434,44.4324 118.5,45.5C 118.5,44.5 118.5,43.5 118.5,42.5C 117.5,42.5 116.5,42.5 115.5,42.5C 115.646,44.9424 114.813,45.6091 113,44.5C 112.059,47.9738 110.559,50.9738 108.5,53.5C 109.038,51.8828 109.371,50.2161 109.5,48.5C 109.5,48.1667 109.5,47.8333 109.5,47.5C 111.28,46.0101 111.946,44.0101 111.5,41.5C 111.5,41.1667 111.5,40.8333 111.5,40.5C 112.265,40.0766 113.098,39.7432 114,39.5C 115.8,40.3195 117.634,40.9862 119.5,41.5 Z"/></g>
<g><path style="opacity:1" fill="#f1f2ea" d="M 109.5,44.5 C 109.5,45.5 109.5,46.5 109.5,47.5C 109.5,47.8333 109.5,48.1667 109.5,48.5C 107.975,51.0791 106.641,53.7458 105.5,56.5C 103.958,55.6993 102.292,55.366 100.5,55.5C 100.5,51.5 100.5,47.5 100.5,43.5C 103.57,43.3677 106.57,43.701 109.5,44.5 Z"/></g>
<g><path style="opacity:1" fill="#93a166" d="M 119.5,41.5 C 120.497,41.4701 121.164,41.9701 121.5,43C 120.68,44.8003 120.014,46.6336 119.5,48.5C 117.5,50.8333 115.5,53.1667 113.5,55.5C 115.167,52.1667 116.833,48.8333 118.5,45.5C 119.434,44.4324 119.768,43.099 119.5,41.5 Z"/></g>
<g><path style="opacity:1" fill="#f5f4ee" d="M 141.5,52.5 C 145.34,60.0226 147.34,68.0226 147.5,76.5C 143.5,76.5 139.5,76.5 135.5,76.5C 135.605,72.313 134.772,68.313 133,64.5C 130.644,60.0032 128.144,55.6698 125.5,51.5C 128.748,49.5967 131.748,47.2634 134.5,44.5C 136.856,47.1864 139.189,49.853 141.5,52.5 Z"/></g>
<g><path style="opacity:1" fill="#97a669" d="M 109.5,48.5 C 109.371,50.2161 109.038,51.8828 108.5,53.5C 107.766,54.7079 107.433,56.0413 107.5,57.5C 105.968,60.7649 104.635,64.0982 103.5,67.5C 103.547,64.0314 104.213,60.698 105.5,57.5C 105.5,57.1667 105.5,56.8333 105.5,56.5C 106.641,53.7458 107.975,51.0791 109.5,48.5 Z"/></g>
<g><path style="opacity:1" fill="#d4f75d" d="M 118.5,45.5 C 116.833,48.8333 115.167,52.1667 113.5,55.5C 112.167,56.8333 110.833,58.1667 109.5,59.5C 108.5,59.1667 107.833,58.5 107.5,57.5C 107.433,56.0413 107.766,54.7079 108.5,53.5C 110.559,50.9738 112.059,47.9738 113,44.5C 114.813,45.6091 115.646,44.9424 115.5,42.5C 116.5,42.5 117.5,42.5 118.5,42.5C 118.5,43.5 118.5,44.5 118.5,45.5 Z"/></g>
<g><path style="opacity:1" fill="#edeee3" d="M 105.5,57.5 C 104.213,60.698 103.547,64.0314 103.5,67.5C 102.849,68.0906 102.182,68.7573 101.5,69.5C 100.509,65.5546 100.176,61.5546 100.5,57.5C 102.167,57.5 103.833,57.5 105.5,57.5 Z"/></g>
<g><path style="opacity:1" fill="#edeee7" d="M 119.5,48.5 C 120.625,50.1288 121.959,51.6288 123.5,53C 120.631,56.0379 117.631,58.8712 114.5,61.5C 112.214,59.9253 111.881,57.9253 113.5,55.5C 115.5,53.1667 117.5,50.8333 119.5,48.5 Z"/></g>
<g><path style="opacity:1" fill="#a6ae88" d="M 113.5,55.5 C 111.881,57.9253 112.214,59.9253 114.5,61.5C 114.167,61.5 113.833,61.5 113.5,61.5C 111.486,61.3915 109.82,62.0582 108.5,63.5C 108.833,62.1667 109.167,60.8333 109.5,59.5C 110.833,58.1667 112.167,56.8333 113.5,55.5 Z"/></g>
<g><path style="opacity:1" fill="#d1eb76" d="M 107.5,57.5 C 107.833,58.5 108.5,59.1667 109.5,59.5C 109.167,60.8333 108.833,62.1667 108.5,63.5C 106.75,64.6594 105.75,66.326 105.5,68.5C 104.075,70.0311 103.409,69.6977 103.5,67.5C 104.635,64.0982 105.968,60.7649 107.5,57.5 Z"/></g>
<g><path style="opacity:1" fill="#e8eadd" d="M 113.5,61.5 C 113.5,62.1667 113.5,62.8333 113.5,63.5C 110.87,65.6281 108.37,67.9614 106,70.5C 105.536,69.9056 105.369,69.2389 105.5,68.5C 107.25,67.3406 108.25,65.674 108.5,63.5C 109.82,62.0582 111.486,61.3915 113.5,61.5 Z"/></g>
<g><path style="opacity:1" fill="#efefea" d="M 113.5,63.5 C 117.875,66.5905 119.875,70.9238 119.5,76.5C 116.833,76.5 114.167,76.5 111.5,76.5C 111.5,76.1667 111.5,75.8333 111.5,75.5C 112.5,75.5 113.5,75.5 114.5,75.5C 114.5,74.1667 114.5,72.8333 114.5,71.5C 111.921,71.3939 109.588,72.0605 107.5,73.5C 106.833,73.5 106.167,73.5 105.5,73.5C 108.516,70.4797 111.183,67.1464 113.5,63.5 Z"/></g>
<g><path style="opacity:1" fill="#ad9f6b" d="M 83.5,72.5 C 86.6008,72.6917 89.6008,73.3584 92.5,74.5C 93.1835,74.1373 93.8501,73.8039 94.5,73.5C 97.3091,73.9577 97.9758,75.2911 96.5,77.5C 92.2299,75.6819 87.8966,74.0152 83.5,72.5 Z"/></g>
<g><path style="opacity:1" fill="#f5d034" d="M 63.5,66.5 C 69.8694,69.1175 76.536,71.1175 83.5,72.5C 87.8966,74.0152 92.2299,75.6819 96.5,77.5C 94.5,78.1667 92.5,78.8333 90.5,79.5C 80.0258,82.3283 69.6925,85.3283 59.5,88.5C 58.1667,88.5 56.8333,88.5 55.5,88.5C 55.5,80.8333 55.5,73.1667 55.5,65.5C 58.1667,65.8333 60.8333,66.1667 63.5,66.5 Z"/></g>
<g><path style="opacity:1" fill="#5468af" d="M 111.5,75.5 C 109.517,75.8432 108.183,75.1765 107.5,73.5C 109.588,72.0605 111.921,71.3939 114.5,71.5C 114.5,72.8333 114.5,74.1667 114.5,75.5C 113.5,75.5 112.5,75.5 111.5,75.5 Z"/></g>
<g><path style="opacity:1" fill="#9f9f99" d="M 148.5,38.5 C 154.681,44.1775 158.847,51.1775 161,59.5C 161.953,62.4318 162.453,65.4318 162.5,68.5C 162.943,76.2573 162.61,81.2573 161.5,83.5C 161.5,81.5 161.5,79.5 161.5,77.5C 157.167,77.5 152.833,77.5 148.5,77.5C 148.622,82.2318 148.122,86.8984 147,91.5C 144.667,97.4988 141.834,103.165 138.5,108.5C 138.167,108.5 137.833,108.5 137.5,108.5C 137.167,107.833 136.833,107.167 136.5,106.5C 143.887,98.3512 147.554,88.6845 147.5,77.5C 143.5,77.5 139.5,77.5 135.5,77.5C 134.196,88.0675 133.53,88.0675 133.5,77.5C 129.5,77.5 125.5,77.5 121.5,77.5C 121.472,80.9164 120.472,83.9164 118.5,86.5C 119.159,83.5448 119.492,80.5448 119.5,77.5C 115.5,77.5 111.5,77.5 107.5,77.5C 108.568,76.5655 109.901,76.2322 111.5,76.5C 114.167,76.5 116.833,76.5 119.5,76.5C 119.875,70.9238 117.875,66.5905 113.5,63.5C 113.5,62.8333 113.5,62.1667 113.5,61.5C 113.833,61.5 114.167,61.5 114.5,61.5C 117.631,58.8712 120.631,56.0379 123.5,53C 121.959,51.6288 120.625,50.1288 119.5,48.5C 121.5,49.5 123.5,50.5 125.5,51.5C 128.144,55.6698 130.644,60.0032 133,64.5C 134.772,68.313 135.605,72.313 135.5,76.5C 139.5,76.5 143.5,76.5 147.5,76.5C 147.34,68.0226 145.34,60.0226 141.5,52.5C 146.687,59.5742 149.02,67.5742 148.5,76.5C 152.833,76.5 157.167,76.5 161.5,76.5C 161.453,62.2851 157.119,49.6185 148.5,38.5 Z"/></g>
<g><path style="opacity:1" fill="#f5f4ee" d="M 123.5,54.5 C 125.017,54.5106 126.184,55.1772 127,56.5C 131.632,62.3576 133.798,69.0243 133.5,76.5C 129.5,76.5 125.5,76.5 121.5,76.5C 121.096,71.5264 119.429,67.0264 116.5,63C 118.654,60.0132 120.987,57.1798 123.5,54.5 Z"/></g>
<g><path style="opacity:1" fill="#827d77" d="M 97.5,67.5 C 98.3382,67.8417 98.6716,68.5084 98.5,69.5C 98.4142,70.4959 98.7476,71.3292 99.5,72C 101.044,72.2896 102.377,72.9563 103.5,74C 102.112,74.8893 102.278,75.3893 104,75.5C 105.03,75.1639 105.53,74.4972 105.5,73.5C 106.167,73.5 106.833,73.5 107.5,73.5C 108.183,75.1765 109.517,75.8432 111.5,75.5C 111.5,75.8333 111.5,76.1667 111.5,76.5C 109.901,76.2322 108.568,76.5655 107.5,77.5C 107.672,78.4916 107.338,79.1583 106.5,79.5C 106.5,80.5 106.5,81.5 106.5,82.5C 105.662,82.8417 105.328,83.5084 105.5,84.5C 104.026,83.5637 103.026,82.2303 102.5,80.5C 101.434,79.3079 100.601,79.6412 100,81.5C 99.6667,80.5 99.3333,79.5 99,78.5C 97.483,80.2395 95.983,81.9062 94.5,83.5C 93.8333,83.5 93.5,83.8333 93.5,84.5C 92.8333,84.5 92.5,84.1667 92.5,83.5C 92.6716,82.5084 92.3382,81.8417 91.5,81.5C 91.5,80.8333 91.1667,80.5 90.5,80.5C 90.5,80.1667 90.5,79.8333 90.5,79.5C 92.5,78.8333 94.5,78.1667 96.5,77.5C 97.9758,75.2911 97.3091,73.9577 94.5,73.5C 94.5,72.8333 94.5,72.1667 94.5,71.5C 94.8333,71.5 95.1667,71.5 95.5,71.5C 97.1765,70.8166 97.8432,69.4832 97.5,67.5 Z"/></g>
<g><path style="opacity:1" fill="#a99950" d="M 57.5,64.5 C 56.5,64.5 55.5,64.5 54.5,64.5C 54.5,72.8333 54.5,81.1667 54.5,89.5C 54.1667,89.5 53.8333,89.5 53.5,89.5C 53.5,80.8333 53.5,72.1667 53.5,63.5C 53.4346,63.0618 53.6012,62.7284 54,62.5C 55.3024,63.0848 56.469,63.7515 57.5,64.5 Z"/></g>
<g><path style="opacity:1" fill="#ece2de" d="M 106.5,79.5 C 104.9,80.512 103.566,80.012 102.5,78C 104.463,77.1558 105.796,77.6558 106.5,79.5 Z"/></g>
<g><path style="opacity:1" fill="#f4f3ec" d="M 136.5,106.5 C 135.833,106.167 135.167,105.833 134.5,105.5C 133.415,103.413 131.749,102.08 129.5,101.5C 129.167,100.833 128.833,100.167 128.5,99.5C 130.288,95.95 131.455,92.2834 132,88.5C 130.643,91.8981 128.81,94.8981 126.5,97.5C 123.569,95.9092 120.902,93.9092 118.5,91.5C 118.167,91.5 117.833,91.5 117.5,91.5C 117.629,89.7839 117.962,88.1172 118.5,86.5C 120.472,83.9164 121.472,80.9164 121.5,77.5C 125.5,77.5 129.5,77.5 133.5,77.5C 133.53,88.0675 134.196,88.0675 135.5,77.5C 139.5,77.5 143.5,77.5 147.5,77.5C 147.554,88.6845 143.887,98.3512 136.5,106.5 Z"/></g>
<g><path style="opacity:1" fill="#dbc455" d="M 57.5,64.5 C 59.8984,64.2594 61.8984,64.9261 63.5,66.5C 60.8333,66.1667 58.1667,65.8333 55.5,65.5C 55.5,73.1667 55.5,80.8333 55.5,88.5C 56.8333,88.5 58.1667,88.5 59.5,88.5C 59.5,88.8333 59.5,89.1667 59.5,89.5C 57.8333,89.5 56.1667,89.5 54.5,89.5C 54.5,81.1667 54.5,72.8333 54.5,64.5C 55.5,64.5 56.5,64.5 57.5,64.5 Z"/></g>
<g><path style="opacity:1" fill="#ac9d5f" d="M 90.5,79.5 C 90.5,79.8333 90.5,80.1667 90.5,80.5C 83.4939,82.5023 76.4939,84.5023 69.5,86.5C 67.597,86.7959 65.9303,87.4625 64.5,88.5C 62.7839,88.6287 61.1172,88.962 59.5,89.5C 59.5,89.1667 59.5,88.8333 59.5,88.5C 69.6925,85.3283 80.0258,82.3283 90.5,79.5 Z"/></g>
<g><path style="opacity:1" fill="#f2efe9" d="M 107.5,77.5 C 111.5,77.5 115.5,77.5 119.5,77.5C 119.492,80.5448 119.159,83.5448 118.5,86.5C 117.065,88.4011 115.398,88.7345 113.5,87.5C 111.445,85.4453 109.112,83.7787 106.5,82.5C 106.5,81.5 106.5,80.5 106.5,79.5C 107.338,79.1583 107.672,78.4916 107.5,77.5 Z"/></g>
<g><path style="opacity:1" fill="#9cb097" d="M 102.5,80.5 C 101.876,80.9169 101.543,81.5836 101.5,82.5C 102.426,86.1303 103.093,89.797 103.5,93.5C 102.833,92.8333 102.167,92.1667 101.5,91.5C 101.649,88.3926 101.149,85.3926 100,82.5C 98.5662,91.8372 97.0662,101.171 95.5,110.5C 98.6248,111.479 101.958,111.813 105.5,111.5C 104.081,112.451 102.415,112.784 100.5,112.5C 100.167,112.5 99.8333,112.5 99.5,112.5C 97.2646,112.795 95.2646,112.461 93.5,111.5C 93.5,110.833 93.5,110.167 93.5,109.5C 94.7947,105.733 95.4613,101.733 95.5,97.5C 95.5,97.1667 95.5,96.8333 95.5,96.5C 96.7089,92.3819 97.3755,88.0485 97.5,83.5C 96.5,83.5 95.5,83.5 94.5,83.5C 95.983,81.9062 97.483,80.2395 99,78.5C 99.3333,79.5 99.6667,80.5 100,81.5C 100.601,79.6412 101.434,79.3079 102.5,80.5 Z"/></g>
<g><path style="opacity:1" fill="#5c6ea8" d="M 91.5,81.5 C 92.3382,81.8417 92.6716,82.5084 92.5,83.5C 90.2459,84.4151 88.2459,85.7484 86.5,87.5C 86.1788,85.9519 85.1788,85.2852 83.5,85.5C 85.6123,83.2295 88.279,81.8961 91.5,81.5 Z"/></g>
<g><path style="opacity:1" fill="#c17b4c" d="M 106.5,82.5 C 109.112,83.7787 111.445,85.4453 113.5,87.5C 113.5,88.1667 113.5,88.8333 113.5,89.5C 112.577,88.6971 111.577,88.5304 110.5,89C 112.171,90.8425 113.171,93.0092 113.5,95.5C 110.601,92.0484 107.934,88.3817 105.5,84.5C 105.328,83.5084 105.662,82.8417 106.5,82.5 Z"/></g>
<g><path style="opacity:1" fill="#4565c9" d="M 83.5,85.5 C 85.1788,85.2852 86.1788,85.9519 86.5,87.5C 84.1184,88.3507 82.1184,89.684 80.5,91.5C 76.1547,91.7019 75.488,90.3686 78.5,87.5C 79.4687,86.6906 80.3021,85.6906 81,84.5C 81.6708,85.2524 82.5041,85.5858 83.5,85.5 Z"/></g>
<g><path style="opacity:1" fill="#c0c4ce" d="M 92.5,83.5 C 92.5,84.1667 92.8333,84.5 93.5,84.5C 91.7607,87.2427 89.4274,89.2427 86.5,90.5C 85.8333,90.5 85.1667,90.5 84.5,90.5C 83.1667,90.8333 81.8333,91.1667 80.5,91.5C 82.1184,89.684 84.1184,88.3507 86.5,87.5C 88.2459,85.7484 90.2459,84.4151 92.5,83.5 Z"/></g>
<g><path style="opacity:1" fill="#a99581" d="M 118.5,86.5 C 117.962,88.1172 117.629,89.7839 117.5,91.5C 116.167,90.8333 114.833,90.1667 113.5,89.5C 113.5,88.8333 113.5,88.1667 113.5,87.5C 115.398,88.7345 117.065,88.4011 118.5,86.5 Z"/></g>
<g><path style="opacity:1" fill="#6277a6" d="M 78.5,87.5 C 75.488,90.3686 76.1547,91.7019 80.5,91.5C 78.8022,94.1239 76.9688,94.1239 75,91.5C 74.8319,89.1589 75.9986,87.8256 78.5,87.5 Z"/></g>
<g><path style="opacity:1" fill="#f1f4eb" d="M 94.5,83.5 C 95.5,83.5 96.5,83.5 97.5,83.5C 97.3755,88.0485 96.7089,92.3819 95.5,96.5C 91.5624,95.7119 88.5624,93.7119 86.5,90.5C 89.4274,89.2427 91.7607,87.2427 93.5,84.5C 93.5,83.8333 93.8333,83.5 94.5,83.5 Z"/></g>
<g><path style="opacity:1" fill="#a0977e" d="M 53.5,89.5 C 53.8333,89.5 54.1667,89.5 54.5,89.5C 56.1667,89.5 57.8333,89.5 59.5,89.5C 57.8415,90.1814 56.1749,91.0147 54.5,92C 55.3366,93.0113 55.67,94.1779 55.5,95.5C 53.9261,93.8984 53.2594,91.8984 53.5,89.5 Z"/></g>
<g><path style="opacity:1" fill="#a7a6a1" d="M 128.5,99.5 C 127.5,99.1667 126.833,98.5 126.5,97.5C 128.81,94.8981 130.643,91.8981 132,88.5C 131.455,92.2834 130.288,95.95 128.5,99.5 Z"/></g>
<g><path style="opacity:1" fill="#f4f4ee" d="M 53.5,89.5 C 53.2594,91.8984 53.9261,93.8984 55.5,95.5C 55.461,98.089 56.461,100.089 58.5,101.5C 59.0102,104.674 60.6769,107.008 63.5,108.5C 64.0283,109.847 64.195,111.181 64,112.5C 61.6506,115.017 59.1506,117.35 56.5,119.5C 44.5113,108.177 38.5113,94.1771 38.5,77.5C 42.8333,77.5 47.1667,77.5 51.5,77.5C 51.1977,81.7905 51.8643,85.7905 53.5,89.5 Z"/></g>
<g><path style="opacity:1" fill="#eeede7" d="M 90.5,80.5 C 91.1667,80.5 91.5,80.8333 91.5,81.5C 88.279,81.8961 85.6123,83.2295 83.5,85.5C 82.5041,85.5858 81.6708,85.2524 81,84.5C 80.3021,85.6906 79.4687,86.6906 78.5,87.5C 75.9986,87.8256 74.8319,89.1589 75,91.5C 76.9688,94.1239 78.8022,94.1239 80.5,91.5C 81.8333,91.1667 83.1667,90.8333 84.5,90.5C 82.2754,94.2347 79.442,97.568 76,100.5C 71.2962,96.7734 69.1295,92.1068 69.5,86.5C 76.4939,84.5023 83.4939,82.5023 90.5,80.5 Z"/></g>
<g><path style="opacity:0.063" fill="#9b9b96" d="M 137.5,27.5 C 126.38,19.9656 114.047,15.9656 100.5,15.5C 100.5,19.8333 100.5,24.1667 100.5,28.5C 107.034,27.9697 113.034,29.303 118.5,32.5C 112.596,30.9862 106.596,29.9862 100.5,29.5C 100.5,33.8333 100.5,38.1667 100.5,42.5C 103.902,42.3424 107.236,42.6758 110.5,43.5C 110.5,44.1667 110.167,44.5 109.5,44.5C 106.57,43.701 103.57,43.3677 100.5,43.5C 100.5,47.5 100.5,51.5 100.5,55.5C 102.292,55.366 103.958,55.6993 105.5,56.5C 105.5,56.8333 105.5,57.1667 105.5,57.5C 103.833,57.5 102.167,57.5 100.5,57.5C 100.176,61.5546 100.509,65.5546 101.5,69.5C 102.182,68.7573 102.849,68.0906 103.5,67.5C 103.409,69.6977 104.075,70.0311 105.5,68.5C 105.369,69.2389 105.536,69.9056 106,70.5C 108.37,67.9614 110.87,65.6281 113.5,63.5C 111.183,67.1464 108.516,70.4797 105.5,73.5C 105.53,74.4972 105.03,75.1639 104,75.5C 102.278,75.3893 102.112,74.8893 103.5,74C 102.377,72.9563 101.044,72.2896 99.5,72C 98.7476,71.3292 98.4142,70.4959 98.5,69.5C 99.4834,65.7016 99.8168,61.7016 99.5,57.5C 97.8212,57.2852 96.8212,57.9519 96.5,59.5C 96.1667,59.5 95.8333,59.5 95.5,59.5C 95.5,58.1667 95.5,56.8333 95.5,55.5C 96.8333,55.5 98.1667,55.5 99.5,55.5C 99.5,51.5 99.5,47.5 99.5,43.5C 97.1667,43.5 94.8333,43.5 92.5,43.5C 92.5,43.1667 92.5,42.8333 92.5,42.5C 94.8056,42.0074 97.139,41.6741 99.5,41.5C 99.5,37.5 99.5,33.5 99.5,29.5C 96.1401,29.6159 92.8067,29.9492 89.5,30.5C 88.8333,30.5 88.5,30.1667 88.5,29.5C 92.0991,28.6561 95.7657,28.3227 99.5,28.5C 99.5,24.1667 99.5,19.8333 99.5,15.5C 79.1363,16.1809 62.8029,24.5142 50.5,40.5C 42.7209,51.1705 38.7209,63.1705 38.5,76.5C 42.8333,76.5 47.1667,76.5 51.5,76.5C 51.4672,72.1311 51.8005,67.7978 52.5,63.5C 52.8333,63.5 53.1667,63.5 53.5,63.5C 53.5,72.1667 53.5,80.8333 53.5,89.5C 51.8643,85.7905 51.1977,81.7905 51.5,77.5C 47.1667,77.5 42.8333,77.5 38.5,77.5C 38.5113,94.1771 44.5113,108.177 56.5,119.5C 59.1506,117.35 61.6506,115.017 64,112.5C 64.195,111.181 64.0283,109.847 63.5,108.5C 64.7382,109.412 66.0715,109.579 67.5,109C 69.7032,106.628 72.0365,104.461 74.5,102.5C 72.1667,105.833 69.8333,109.167 67.5,112.5C 63.7653,114.725 60.432,117.558 57.5,121C 59.3734,122.704 61.0401,124.537 62.5,126.5C 48.836,117.217 40.6693,104.217 38,87.5C 34.7134,54.8998 47.88,31.7331 77.5,18C 96.5722,12.0176 114.905,13.6843 132.5,23C 134.618,24.0491 136.284,25.5491 137.5,27.5 Z"/></g>
<g><path style="opacity:1" fill="#c57f4c" d="M 95.5,59.5 C 95.8333,59.5 96.1667,59.5 96.5,59.5C 97.0916,62.1272 97.4249,64.7938 97.5,67.5C 97.8432,69.4832 97.1765,70.8166 95.5,71.5C 93.8847,68.5505 91.8847,65.8838 89.5,63.5C 91.3936,64.0476 93.0603,65.0476 94.5,66.5C 95.4742,64.2573 95.8076,61.924 95.5,59.5 Z"/></g>
<g><path style="opacity:1" fill="#efefe7" d="M 94.5,71.5 C 94.5,72.1667 94.5,72.8333 94.5,73.5C 93.8501,73.8039 93.1835,74.1373 92.5,74.5C 89.6008,73.3584 86.6008,72.6917 83.5,72.5C 82.8333,71.8333 82.1667,71.1667 81.5,70.5C 82.0507,67.7332 83.3841,65.3999 85.5,63.5C 88.1969,66.5315 91.1969,69.1982 94.5,71.5 Z"/></g>
<g><path style="opacity:1" fill="#a79d52" d="M 63.5,66.5 C 68.9107,67.5193 74.2441,68.8527 79.5,70.5C 80.1667,70.5 80.8333,70.5 81.5,70.5C 82.1667,71.1667 82.8333,71.8333 83.5,72.5C 76.536,71.1175 69.8694,69.1175 63.5,66.5 Z"/></g>
<g><path style="opacity:1" fill="#949d69" d="M 108.5,63.5 C 108.25,65.674 107.25,67.3406 105.5,68.5C 105.75,66.326 106.75,64.6594 108.5,63.5 Z"/></g>
<g><path style="opacity:1" fill="#f0eaea" d="M 98.5,69.5 C 98.6716,68.5084 98.3382,67.8417 97.5,67.5C 97.4249,64.7938 97.0916,62.1272 96.5,59.5C 96.8212,57.9519 97.8212,57.2852 99.5,57.5C 99.8168,61.7016 99.4834,65.7016 98.5,69.5 Z"/></g>
<g><path style="opacity:1" fill="#b1b0ab" d="M 86.5,61.5 C 87.609,61.5569 88.609,61.8902 89.5,62.5C 89.5,62.8333 89.5,63.1667 89.5,63.5C 91.8847,65.8838 93.8847,68.5505 95.5,71.5C 95.1667,71.5 94.8333,71.5 94.5,71.5C 91.1969,69.1982 88.1969,66.5315 85.5,63.5C 83.3841,65.3999 82.0507,67.7332 81.5,70.5C 80.8333,70.5 80.1667,70.5 79.5,70.5C 80.7008,67.9318 82.0342,65.4318 83.5,63C 81.848,60.6773 80.1813,58.344 78.5,56C 79.1667,55.3333 79.8333,55.3333 80.5,56C 81.9133,58.5291 83.9133,60.3624 86.5,61.5 Z"/></g>
<g><path style="opacity:1" fill="#9e9890" d="M 78.5,47.5 C 79.9063,47.9731 80.573,48.9731 80.5,50.5C 77.6057,51.8823 75.1057,53.8823 73,56.5C 73.1343,54.8107 73.6343,53.144 74.5,51.5C 76.8333,51.1667 78.1667,49.8333 78.5,47.5 Z"/></g>
<g><path style="opacity:1" fill="#b37c56" d="M 80.5,50.5 C 84.4587,53.7371 87.4587,57.7371 89.5,62.5C 88.609,61.8902 87.609,61.5569 86.5,61.5C 85.2817,57.396 83.2817,53.7293 80.5,50.5 Z"/></g>
<g><path style="opacity:1" fill="#a09f99" d="M 60.5,49.5 C 60.2503,51.674 59.2503,53.3406 57.5,54.5C 57.7497,52.326 58.7497,50.6594 60.5,49.5 Z"/></g>
<g><path style="opacity:1" fill="#af7f5c" d="M 88.5,29.5 C 88.5,30.1667 88.8333,30.5 89.5,30.5C 89.8699,34.774 90.8699,38.774 92.5,42.5C 92.5,42.8333 92.5,43.1667 92.5,43.5C 93.5098,47.6138 94.5098,51.6138 95.5,55.5C 95.5,56.8333 95.5,58.1667 95.5,59.5C 91.9323,48.1036 88.9323,36.4369 86.5,24.5C 84.0971,24.448 81.7638,24.7814 79.5,25.5C 81.3952,23.9017 83.5619,22.5684 86,21.5C 87.1445,24.0804 87.9778,26.7471 88.5,29.5 Z"/></g>
<g><path style="opacity:1" fill="#aeaea8" d="M 67.5,44.5 C 70.1667,46.5 72.5,48.8333 74.5,51.5C 71.1667,50.1667 68.8333,47.8333 67.5,44.5 Z"/></g>
<g><path style="opacity:1" fill="#f0efe8" d="M 67.5,44.5 C 68.8333,47.8333 71.1667,50.1667 74.5,51.5C 73.6343,53.144 73.1343,54.8107 73,56.5C 75.1057,53.8823 77.6057,51.8823 80.5,50.5C 83.2817,53.7293 85.2817,57.396 86.5,61.5C 83.9133,60.3624 81.9133,58.5291 80.5,56C 79.8333,55.3333 79.1667,55.3333 78.5,56C 80.1813,58.344 81.848,60.6773 83.5,63C 82.0342,65.4318 80.7008,67.9318 79.5,70.5C 74.2441,68.8527 68.9107,67.5193 63.5,66.5C 61.8984,64.9261 59.8984,64.2594 57.5,64.5C 56.469,63.7515 55.3024,63.0848 54,62.5C 53.6012,62.7284 53.4346,63.0618 53.5,63.5C 53.1667,63.5 52.8333,63.5 52.5,63.5C 50.732,58.7081 52.3986,55.7081 57.5,54.5C 59.2503,53.3406 60.2503,51.674 60.5,49.5C 62.5732,47.4202 64.9066,45.7536 67.5,44.5 Z"/></g>
<g><path style="opacity:1" fill="#f6f6f0" d="M 61.5,46.5 C 60.8902,47.391 60.5569,48.391 60.5,49.5C 58.7497,50.6594 57.7497,52.326 57.5,54.5C 52.3986,55.7081 50.732,58.7081 52.5,63.5C 51.8005,67.7978 51.4672,72.1311 51.5,76.5C 47.1667,76.5 42.8333,76.5 38.5,76.5C 38.7209,63.1705 42.7209,51.1705 50.5,40.5C 53.1992,38.6427 56.0326,37.976 59,38.5C 60.8114,39.4235 60.6447,40.2569 58.5,41C 62.1015,41.6346 62.7682,42.968 60.5,45C 61.056,45.3826 61.3893,45.8826 61.5,46.5 Z"/></g>
<g><path style="opacity:1" fill="#f3f1ea" d="M 92.5,43.5 C 94.8333,43.5 97.1667,43.5 99.5,43.5C 99.5,47.5 99.5,51.5 99.5,55.5C 98.1667,55.5 96.8333,55.5 95.5,55.5C 94.5098,51.6138 93.5098,47.6138 92.5,43.5 Z"/></g>
<g><path style="opacity:1" fill="#b07c57" d="M 73.5,41.5 C 75.9971,42.1293 77.3304,43.796 77.5,46.5C 75.9373,45.0552 74.604,43.3885 73.5,41.5 Z"/></g>
<g><path style="opacity:1" fill="#a6a39d" d="M 67.5,44.5 C 64.9066,45.7536 62.5732,47.4202 60.5,49.5C 60.5569,48.391 60.8902,47.391 61.5,46.5C 62.4584,46.0472 63.2917,45.3805 64,44.5C 64.0848,42.9154 64.2514,41.5821 64.5,40.5C 66.5499,41.0766 67.5499,42.4099 67.5,44.5 Z"/></g>
<g><path style="opacity:1" fill="#f4f3ea" d="M 92.5,42.5 C 90.8699,38.774 89.8699,34.774 89.5,30.5C 92.8067,29.9492 96.1401,29.6159 99.5,29.5C 99.5,33.5 99.5,37.5 99.5,41.5C 97.139,41.6741 94.8056,42.0074 92.5,42.5 Z"/></g>
<g><path style="opacity:1" fill="#f68131" d="M 95.5,59.5 C 95.8076,61.924 95.4742,64.2573 94.5,66.5C 93.0603,65.0476 91.3936,64.0476 89.5,63.5C 89.5,63.1667 89.5,62.8333 89.5,62.5C 87.4587,57.7371 84.4587,53.7371 80.5,50.5C 80.573,48.9731 79.9063,47.9731 78.5,47.5C 77.8333,47.5 77.5,47.1667 77.5,46.5C 77.3304,43.796 75.9971,42.1293 73.5,41.5C 72.3995,40.3951 71.7329,39.0618 71.5,37.5C 71.1854,35.7741 71.0187,34.1075 71,32.5C 73.9016,30.489 76.4016,28.1557 78.5,25.5C 78.8333,25.5 79.1667,25.5 79.5,25.5C 81.7638,24.7814 84.0971,24.448 86.5,24.5C 88.9323,36.4369 91.9323,48.1036 95.5,59.5 Z"/></g>
<g><path style="opacity:1" fill="#ad8160" d="M 71.5,29.5 C 70.7701,30.7124 69.7701,31.7124 68.5,32.5C 69.1272,33.4168 69.4606,34.4168 69.5,35.5C 67.2729,34.5994 66.2729,32.9328 66.5,30.5C 68.2161,30.3713 69.8828,30.038 71.5,29.5 Z"/></g>
<g><path style="opacity:1" fill="#d5824a" d="M 78.5,25.5 C 76.4016,28.1557 73.9016,30.489 71,32.5C 71.0187,34.1075 71.1854,35.7741 71.5,37.5C 70.5,37.1667 69.8333,36.5 69.5,35.5C 69.4606,34.4168 69.1272,33.4168 68.5,32.5C 69.7701,31.7124 70.7701,30.7124 71.5,29.5C 73.6626,27.9172 75.9959,26.5839 78.5,25.5 Z"/></g>
<g><path style="opacity:1" fill="#f3f2ed" d="M 88.5,29.5 C 87.9778,26.7471 87.1445,24.0804 86,21.5C 83.5619,22.5684 81.3952,23.9017 79.5,25.5C 79.1667,25.5 78.8333,25.5 78.5,25.5C 75.9959,26.5839 73.6626,27.9172 71.5,29.5C 69.8828,30.038 68.2161,30.3713 66.5,30.5C 66.2729,32.9328 67.2729,34.5994 69.5,35.5C 69.8333,36.5 70.5,37.1667 71.5,37.5C 71.7329,39.0618 72.3995,40.3951 73.5,41.5C 74.604,43.3885 75.9373,45.0552 77.5,46.5C 77.5,47.1667 77.8333,47.5 78.5,47.5C 78.1667,49.8333 76.8333,51.1667 74.5,51.5C 72.5,48.8333 70.1667,46.5 67.5,44.5C 67.5499,42.4099 66.5499,41.0766 64.5,40.5C 64.2514,41.5821 64.0848,42.9154 64,44.5C 63.2917,45.3805 62.4584,46.0472 61.5,46.5C 61.3893,45.8826 61.056,45.3826 60.5,45C 62.7682,42.968 62.1015,41.6346 58.5,41C 60.6447,40.2569 60.8114,39.4235 59,38.5C 56.0326,37.976 53.1992,38.6427 50.5,40.5C 62.8029,24.5142 79.1363,16.1809 99.5,15.5C 99.5,19.8333 99.5,24.1667 99.5,28.5C 95.7657,28.3227 92.0991,28.6561 88.5,29.5 Z"/></g>
<g><path style="opacity:1" fill="#a7a79f" d="M 69.5,86.5 C 69.1295,92.1068 71.2962,96.7734 76,100.5C 79.442,97.568 82.2754,94.2347 84.5,90.5C 85.1667,90.5 85.8333,90.5 86.5,90.5C 88.5624,93.7119 91.5624,95.7119 95.5,96.5C 95.5,96.8333 95.5,97.1667 95.5,97.5C 92.0473,96.8573 88.8806,95.5239 86,93.5C 82.6997,95.6325 79.8663,98.2992 77.5,101.5C 81.7508,106.292 87.0841,108.959 93.5,109.5C 93.5,110.167 93.5,110.833 93.5,111.5C 86.4792,109.822 80.1458,106.822 74.5,102.5C 71.8556,98.3302 69.3556,93.9968 67,89.5C 66.3292,88.7476 65.4959,88.4142 64.5,88.5C 65.9303,87.4625 67.597,86.7959 69.5,86.5 Z"/></g>
<g><path style="opacity:1" fill="#f4f4ec" d="M 161.5,83.5 C 159.616,96.7765 154.283,108.61 145.5,119C 143.565,118.942 141.898,118.109 140.5,116.5C 141.476,115.185 142.476,113.852 143.5,112.5C 142.025,110.929 140.358,109.595 138.5,108.5C 141.834,103.165 144.667,97.4988 147,91.5C 148.122,86.8984 148.622,82.2318 148.5,77.5C 152.833,77.5 157.167,77.5 161.5,77.5C 161.5,79.5 161.5,81.5 161.5,83.5 Z"/></g>
<g><path style="opacity:1" fill="#f4f3ec" d="M 64.5,88.5 C 65.4959,88.4142 66.3292,88.7476 67,89.5C 69.3556,93.9968 71.8556,98.3302 74.5,102.5C 72.0365,104.461 69.7032,106.628 67.5,109C 66.0715,109.579 64.7382,109.412 63.5,108.5C 62.2141,105.883 60.5475,103.55 58.5,101.5C 58.0075,99.1815 57.0075,97.1815 55.5,95.5C 55.67,94.1779 55.3366,93.0113 54.5,92C 56.1749,91.0147 57.8415,90.1814 59.5,89.5C 61.1172,88.962 62.7839,88.6287 64.5,88.5 Z"/></g>
<g><path style="opacity:1" fill="#f4f5ed" d="M 95.5,97.5 C 95.4613,101.733 94.7947,105.733 93.5,109.5C 87.0841,108.959 81.7508,106.292 77.5,101.5C 79.8663,98.2992 82.6997,95.6325 86,93.5C 88.8806,95.5239 92.0473,96.8573 95.5,97.5 Z"/></g>
<g><path style="opacity:1" fill="#b97d55" d="M 118.5,91.5 C 120.902,93.9092 123.569,95.9092 126.5,97.5C 126.833,98.5 127.5,99.1667 128.5,99.5C 128.833,100.167 129.167,100.833 129.5,101.5C 127.303,100.155 124.97,98.9888 122.5,98C 120.915,95.9307 119.581,93.764 118.5,91.5 Z"/></g>
<g><path style="opacity:1" fill="#a09f9a" d="M 55.5,95.5 C 57.0075,97.1815 58.0075,99.1815 58.5,101.5C 56.461,100.089 55.461,98.089 55.5,95.5 Z"/></g>
<g><path style="opacity:1" fill="#91f290" d="M 101.5,91.5 C 102.629,97.8127 103.629,104.146 104.5,110.5C 101.5,110.5 98.5,110.5 95.5,110.5C 97.0662,101.171 98.5662,91.8372 100,82.5C 101.149,85.3926 101.649,88.3926 101.5,91.5 Z"/></g>
<g><path style="opacity:1" fill="#a9785b" d="M 115.5,97.5 C 118.471,99.4426 120.471,102.109 121.5,105.5C 119.037,103.268 117.037,100.602 115.5,97.5 Z"/></g>
<g><path style="opacity:1" fill="#b27d57" d="M 129.5,101.5 C 131.749,102.08 133.415,103.413 134.5,105.5C 132.205,104.864 130.539,103.531 129.5,101.5 Z"/></g>
<g><path style="opacity:1" fill="#7db579" d="M 101.5,91.5 C 102.167,92.1667 102.833,92.8333 103.5,93.5C 104.815,98.744 105.482,104.077 105.5,109.5C 105.5,110.167 105.5,110.833 105.5,111.5C 101.958,111.813 98.6248,111.479 95.5,110.5C 98.5,110.5 101.5,110.5 104.5,110.5C 103.629,104.146 102.629,97.8127 101.5,91.5 Z"/></g>
<g><path style="opacity:1" fill="#a0a099" d="M 58.5,101.5 C 60.5475,103.55 62.2141,105.883 63.5,108.5C 60.6769,107.008 59.0102,104.674 58.5,101.5 Z"/></g>
<g><path style="opacity:1" fill="#ae7c5a" d="M 121.5,105.5 C 124.933,108.601 127.6,112.268 129.5,116.5C 128.833,116.167 128.167,115.833 127.5,115.5C 125.075,112.411 123.075,109.078 121.5,105.5 Z"/></g>
<g><path style="opacity:1" fill="#f3f1ea" d="M 102.5,80.5 C 103.026,82.2303 104.026,83.5637 105.5,84.5C 107.934,88.3817 110.601,92.0484 113.5,95.5C 113.833,96.5 114.5,97.1667 115.5,97.5C 117.037,100.602 119.037,103.268 121.5,105.5C 123.075,109.078 125.075,112.411 127.5,115.5C 119.604,121.466 110.604,124.466 100.5,124.5C 100.5,120.5 100.5,116.5 100.5,112.5C 102.415,112.784 104.081,112.451 105.5,111.5C 113.373,110.218 113.373,109.551 105.5,109.5C 105.482,104.077 104.815,98.744 103.5,93.5C 103.093,89.797 102.426,86.1303 101.5,82.5C 101.543,81.5836 101.876,80.9169 102.5,80.5 Z"/></g>
<g><path style="opacity:1" fill="#f37e30" d="M 113.5,89.5 C 114.833,90.1667 116.167,90.8333 117.5,91.5C 117.833,91.5 118.167,91.5 118.5,91.5C 119.581,93.764 120.915,95.9307 122.5,98C 124.97,98.9888 127.303,100.155 129.5,101.5C 130.539,103.531 132.205,104.864 134.5,105.5C 135.167,105.833 135.833,106.167 136.5,106.5C 136.833,107.167 137.167,107.833 137.5,108.5C 138.271,110.114 139.271,111.614 140.5,113C 138.713,116.967 135.713,119.134 131.5,119.5C 131.573,117.973 130.906,116.973 129.5,116.5C 127.6,112.268 124.933,108.601 121.5,105.5C 120.471,102.109 118.471,99.4426 115.5,97.5C 114.5,97.1667 113.833,96.5 113.5,95.5C 113.171,93.0092 112.171,90.8425 110.5,89C 111.577,88.5304 112.577,88.6971 113.5,89.5 Z"/></g>
<g><path style="opacity:1" fill="#f5f4ee" d="M 74.5,102.5 C 80.1458,106.822 86.4792,109.822 93.5,111.5C 95.2646,112.461 97.2646,112.795 99.5,112.5C 99.5,116.5 99.5,120.5 99.5,124.5C 87.3495,124.231 76.6829,120.231 67.5,112.5C 69.8333,109.167 72.1667,105.833 74.5,102.5 Z"/></g>
<g><path style="opacity:1" fill="#9fa09c" d="M 105.5,109.5 C 113.373,109.551 113.373,110.218 105.5,111.5C 105.5,110.833 105.5,110.167 105.5,109.5 Z"/></g>
<g><path style="opacity:0.486" fill="#a3a39b" d="M 162.5,68.5 C 166.162,99.003 154.162,121.17 126.5,135C 116.552,139.694 106.219,141.194 95.5,139.5C 96.5676,138.566 97.901,138.232 99.5,138.5C 99.5,134.167 99.5,129.833 99.5,125.5C 86.6602,126.067 75.9936,121.734 67.5,112.5C 76.6829,120.231 87.3495,124.231 99.5,124.5C 99.5,120.5 99.5,116.5 99.5,112.5C 99.8333,112.5 100.167,112.5 100.5,112.5C 100.5,116.5 100.5,120.5 100.5,124.5C 110.604,124.466 119.604,121.466 127.5,115.5C 128.167,115.833 128.833,116.167 129.5,116.5C 130.906,116.973 131.573,117.973 131.5,119.5C 130.469,118.645 129.303,117.978 128,117.5C 119.641,122.897 110.474,125.564 100.5,125.5C 100.5,129.833 100.5,134.167 100.5,138.5C 116.753,138.307 130.753,132.64 142.5,121.5C 141.717,119.712 140.384,118.712 138.5,118.5C 138.833,117.5 139.5,116.833 140.5,116.5C 141.898,118.109 143.565,118.942 145.5,119C 154.283,108.61 159.616,96.7765 161.5,83.5C 162.61,81.2573 162.943,76.2573 162.5,68.5 Z"/></g>
<g><path style="opacity:1" fill="#b47d5a" d="M 137.5,108.5 C 137.833,108.5 138.167,108.5 138.5,108.5C 140.358,109.595 142.025,110.929 143.5,112.5C 142.476,113.852 141.476,115.185 140.5,116.5C 139.5,116.833 138.833,117.5 138.5,118.5C 136.852,119.81 135.186,121.143 133.5,122.5C 132.081,121.995 131.415,120.995 131.5,119.5C 135.713,119.134 138.713,116.967 140.5,113C 139.271,111.614 138.271,110.114 137.5,108.5 Z"/></g>
<g><path style="opacity:1" fill="#f2f2eb" d="M 67.5,112.5 C 75.9936,121.734 86.6602,126.067 99.5,125.5C 99.5,129.833 99.5,134.167 99.5,138.5C 97.901,138.232 96.5676,138.566 95.5,139.5C 83.266,138.093 72.266,133.759 62.5,126.5C 61.0401,124.537 59.3734,122.704 57.5,121C 60.432,117.558 63.7653,114.725 67.5,112.5 Z"/></g>
<g><path style="opacity:1" fill="#f4f4ec" d="M 131.5,119.5 C 131.415,120.995 132.081,121.995 133.5,122.5C 135.186,121.143 136.852,119.81 138.5,118.5C 140.384,118.712 141.717,119.712 142.5,121.5C 130.753,132.64 116.753,138.307 100.5,138.5C 100.5,134.167 100.5,129.833 100.5,125.5C 110.474,125.564 119.641,122.897 128,117.5C 129.303,117.978 130.469,118.645 131.5,119.5 Z"/></g>
<g><path style="opacity:1" fill="#1a4c67" d="M 164.5,155.5 C 169.505,157.163 169.672,159.163 165,161.5C 161.897,159.888 161.73,157.888 164.5,155.5 Z"/></g>
<g><path style="opacity:1" fill="#195275" d="M 152.5,155.5 C 154.604,155.201 156.604,155.534 158.5,156.5C 156.618,165.126 154.951,173.793 153.5,182.5C 151.473,182.662 149.473,182.495 147.5,182C 149.867,173.328 151.534,164.495 152.5,155.5 Z"/></g>
<g><path style="opacity:1" fill="#195072" d="M 57.5,163.5 C 60.7766,163.216 63.9433,163.549 67,164.5C 66.1879,170.423 65.6879,176.423 65.5,182.5C 63.8333,182.5 62.1667,182.5 60.5,182.5C 60.6495,181.448 60.4828,180.448 60,179.5C 54.3444,184.129 50.511,182.963 48.5,176C 49.0535,169.963 52.0535,165.797 57.5,163.5 Z M 58.5,167.5 C 60.4841,167.484 61.4841,168.484 61.5,170.5C 61.3003,174.118 59.6336,176.785 56.5,178.5C 55.914,178.291 55.414,177.957 55,177.5C 54.3333,175.5 54.3333,173.5 55,171.5C 56.3756,170.295 57.5423,168.962 58.5,167.5 Z"/></g>
<g><path style="opacity:1" fill="#184e6f" d="M 107.5,155.5 C 109.5,155.5 111.5,155.5 113.5,155.5C 111.705,164.475 110.038,173.475 108.5,182.5C 106.473,182.662 104.473,182.495 102.5,182C 104.755,173.305 106.422,164.471 107.5,155.5 Z"/></g>
<g><path style="opacity:1" fill="#175274" d="M 75.5,158.5 C 76.9778,158.238 78.3112,158.571 79.5,159.5C 78.7542,160.736 78.4208,162.07 78.5,163.5C 79.9778,163.238 81.3112,163.571 82.5,164.5C 81.4613,166.531 79.7946,167.864 77.5,168.5C 76.8847,171.039 76.2181,173.539 75.5,176C 77.8384,177.508 78.8384,179.675 78.5,182.5C 75.6354,182.945 73.1354,182.278 71,180.5C 70.4686,176.523 70.9686,172.69 72.5,169C 71.6721,168.085 70.6721,167.419 69.5,167C 70.3366,165.989 70.67,164.822 70.5,163.5C 71.5,163.5 72.5,163.5 73.5,163.5C 73.3653,161.446 74.032,159.779 75.5,158.5 Z"/></g>
<g><path style="opacity:1" fill="#165072" d="M 172.5,155.5 C 174.604,155.201 176.604,155.534 178.5,156.5C 177.408,159.453 176.908,162.453 177,165.5C 180.696,162.575 184.029,162.908 187,166.5C 187.987,177.179 183.153,182.345 172.5,182C 170.224,181.126 168.89,179.459 168.5,177C 170.285,169.91 171.618,162.743 172.5,155.5 Z M 176.5,168.5 C 178.167,168.5 179.833,168.5 181.5,168.5C 182.38,173.022 180.88,176.355 177,178.5C 175.268,178.266 174.434,177.266 174.5,175.5C 175.173,173.149 175.84,170.816 176.5,168.5 Z"/></g>
<g><path style="opacity:1" fill="#1a5173" d="M 21.5,156.5 C 24.1667,156.5 26.8333,156.5 29.5,156.5C 29.8159,161.844 30.3159,167.178 31,172.5C 34.0272,167.779 36.5272,162.779 38.5,157.5C 41.0865,156.52 43.7531,156.187 46.5,156.5C 45.1255,165.122 44.1255,173.788 43.5,182.5C 41.4727,182.662 39.4727,182.495 37.5,182C 38.7307,176.921 39.2307,171.755 39,166.5C 36.6667,171.167 34.3333,175.833 32,180.5C 30.6124,181.554 29.1124,181.72 27.5,181C 26.5968,175.892 25.7635,170.725 25,165.5C 23.6674,170.828 22.3341,176.162 21,181.5C 19.2739,182.576 17.4406,182.743 15.5,182C 18.1976,173.681 20.1976,165.181 21.5,156.5 Z"/></g>
<g><path style="opacity:1" fill="#185073" d="M 141.5,158.5 C 142.873,158.343 144.207,158.51 145.5,159C 144.62,160.356 144.286,161.856 144.5,163.5C 145.873,163.343 147.207,163.51 148.5,164C 147.663,165.011 147.33,166.178 147.5,167.5C 146.167,167.5 144.833,167.5 143.5,167.5C 143.122,169.646 142.788,171.813 142.5,174C 143.545,176.77 144.212,179.603 144.5,182.5C 141.635,182.945 139.135,182.278 137,180.5C 136.469,176.523 136.969,172.69 138.5,169C 136.845,167.556 136.178,165.722 136.5,163.5C 137.5,163.5 138.5,163.5 139.5,163.5C 139.365,161.446 140.032,159.779 141.5,158.5 Z"/></g>
<g><path style="opacity:1" fill="#184f70" d="M 161.5,163.5 C 163.167,163.5 164.833,163.5 166.5,163.5C 165.993,169.204 165.16,174.871 164,180.5C 162.599,182.192 160.766,182.859 158.5,182.5C 159.392,176.148 160.392,169.815 161.5,163.5 Z"/></g>
<g><path style="opacity:1" fill="#165072" d="M 121.5,163.5 C 132.074,163.974 134.907,168.974 130,178.5C 126.095,182.512 121.595,183.345 116.5,181C 112.799,176.738 112.633,172.238 116,167.5C 117.812,166.023 119.645,164.69 121.5,163.5 Z M 122.5,167.5 C 125.488,167.155 126.821,168.488 126.5,171.5C 126.486,176.365 124.32,178.365 120,177.5C 118.861,173.579 119.695,170.246 122.5,167.5 Z"/></g>
<g><path style="opacity:1" fill="#185174" d="M 85.5,163.5 C 87.7659,163.141 89.5993,163.808 91,165.5C 96.8606,162.18 100.361,163.847 101.5,170.5C 100.846,179.152 96.1795,183.152 87.5,182.5C 86.9084,185.127 86.5751,187.794 86.5,190.5C 84.4727,190.662 82.4727,190.495 80.5,190C 82.6105,181.279 84.2772,172.446 85.5,163.5 Z M 91.5,168.5 C 92.8333,168.5 94.1667,168.5 95.5,168.5C 96.3797,173.022 94.8797,176.355 91,178.5C 89.7202,178.387 88.8869,177.72 88.5,176.5C 89.1992,173.69 90.1992,171.023 91.5,168.5 Z"/></g>
</svg>
