<?xml version="1.0" encoding="UTF-8"?>
<svg version="1.1" xmlns="http://www.w3.org/2000/svg" width="360" height="360">
<path d="M0 0 C0.66 0 1.32 0 2 0 C2.87398437 1.72283203 2.87398437 1.72283203 3.765625 3.48046875 C9.3458938 14.16655652 15.49196187 22.51559531 24 31 C43.66942507 51.72314427 56.19099434 77.29068904 63.9375 104.625 C64.12481689 105.28564453 64.31213379 105.94628906 64.50512695 106.62695312 C67.66150916 118.56188502 68.37439987 130.47194868 68.3125 142.75 C68.31067719 143.50078827 68.30885437 144.25157654 68.30697632 145.02511597 C68.26221861 155.97005226 67.81995336 166.36832101 65 177 C64.83371094 177.67659668 64.66742188 178.35319336 64.49609375 179.05029297 C58.2540702 204.3015901 44.53542334 225.47292272 26.375 243.875 C25.5854895 244.6786499 25.5854895 244.6786499 24.7800293 245.49853516 C22.07971173 248.17658466 19.57402594 250.27261736 16.2890625 252.1953125 C12.31510999 254.97503737 11.48002582 258.25249612 10.46630859 262.86572266 C9.63333657 268.46451574 9.4235978 274.03420923 9.3125 279.6875 C9.27833984 280.87794922 9.24417969 282.06839844 9.20898438 283.29492188 C9.12741334 286.19652018 9.05797252 289.0978508 9 292 C2.125 291.125 2.125 291.125 1 290 C0.79675633 288.59468313 0.65278969 287.18068184 0.53515625 285.765625 C0.42034912 284.44751831 0.42034912 284.44751831 0.30322266 283.1027832 C0.22378418 282.16136475 0.1443457 281.21994629 0.0625 280.25 C-0.79611727 270.76944561 -0.79611727 270.76944561 -1.875 261.3125 C-1.99617188 260.31863281 -2.11734375 259.32476562 -2.2421875 258.30078125 C-2.77215073 255.86612192 -2.77215073 255.86612192 -4.86328125 254.8359375 C-5.56839844 254.56007813 -6.27351563 254.28421875 -7 254 C-32.52544111 235.02588276 -55.32755465 202.82231507 -60.28125 170.9921875 C-60.3946875 170.21101562 -60.508125 169.42984375 -60.625 168.625 C-60.74617188 167.8515625 -60.86734375 167.078125 -60.9921875 166.28125 C-67.86059958 121.03931827 -57.83690469 76.28273555 -30.93774414 39.08422852 C-23.49133239 29.12200252 -14.74841729 20.49960302 -5.3984375 12.33984375 C-1.48374255 8.52078467 -0.72987716 5.35243253 0 0 Z " fill="#6BAB48" transform="translate(164,46)"/>
<path d="M0 0 C0.66 0 1.32 0 2 0 C2.103125 0.639375 2.20625 1.27875 2.3125 1.9375 C2.539375 2.618125 2.76625 3.29875 3 4 C3.99 4.33 4.98 4.66 6 5 C6.33 5.66 6.66 6.32 7 7 C7.61617187 7.30035156 8.23234375 7.60070312 8.8671875 7.91015625 C11.26333865 9.13456316 12.4165031 10.37270853 14.125 12.4375 C16.92789343 15.76630947 19.83042789 18.95567062 22.8125 22.125 C41.00269709 42.18650329 52.59273046 66.70825467 59.9375 92.625 C60.12481689 93.28564453 60.31213379 93.94628906 60.50512695 94.62695312 C63.66150916 106.56188502 64.37439987 118.47194868 64.3125 130.75 C64.31067719 131.50078827 64.30885437 132.25157654 64.30697632 133.02511597 C64.26221861 143.97005226 63.81995336 154.36832101 61 165 C60.83371094 165.67659668 60.66742188 166.35319336 60.49609375 167.05029297 C54.24508533 192.3379372 40.49813482 213.51179931 22.3125 231.9375 C21.77778076 232.48164551 21.24306152 233.02579102 20.69213867 233.58642578 C17.35976476 236.89148937 13.98633451 239.51974689 10 242 C6.75298298 240.65500132 5.38031503 239.55007623 3.875 236.375 C3.56304687 235.74335938 3.25109375 235.11171875 2.9296875 234.4609375 C0.05529795 226.85225929 -0.39232051 219.64389042 -0.60522461 211.5793457 C-0.66118884 209.79678234 -0.66118884 209.79678234 -0.71828365 207.97820759 C-1.07667648 195.89736514 -1.22323973 183.81579263 -1.31640625 171.73046875 C-1.33718978 169.3784208 -1.35823392 167.02637515 -1.3795166 164.67433167 C-1.4345452 158.45694339 -1.48427281 152.23952437 -1.53242874 146.02207947 C-1.56267854 142.1647336 -1.59445653 138.30740311 -1.62667847 134.45007324 C-1.99100916 90.63286414 -2.13521947 46.8184673 -2 3 C-1.34 3 -0.68 3 0 3 C0 2.01 0 1.02 0 0 Z " fill="#589635" transform="translate(168,58)"/>
<path d="M0 0 C0.33 0 0.66 0 1 0 C1.06993164 0.55872803 1.13986328 1.11745605 1.21191406 1.69311523 C1.543621 4.27664298 1.8966848 6.85684206 2.25 9.4375 C2.41435547 10.75524414 2.41435547 10.75524414 2.58203125 12.09960938 C3.57446314 19.17721575 5.35138825 25.75331463 9.9375 31.375 C11.26019584 34.64283678 10.68897982 35.51934476 9.609375 38.80859375 C7.69278909 45.43853306 7.44745762 51.82008529 7.3125 58.6875 C7.27833984 59.87794922 7.24417969 61.06839844 7.20898438 62.29492188 C7.12741334 65.19652018 7.05797252 68.0978508 7 71 C0.125 70.125 0.125 70.125 -1 69 C-1.20324367 67.59468313 -1.34721031 66.18068184 -1.46484375 64.765625 C-1.54202637 63.88841797 -1.61920898 63.01121094 -1.69873047 62.10742188 C-1.77752441 61.16447266 -1.85631836 60.22152344 -1.9375 59.25 C-2.44651193 53.22249241 -3.05326606 47.41260861 -4.375 41.5 C-5.68002735 33.83919057 -3.6324347 26.62685662 -2.02734375 19.1484375 C-0.68688024 12.78919373 -0.21833028 6.49532573 0 0 Z " fill="#C1C5BD" transform="translate(166,267)"/>
<path d="M0 0 C0.33 0 0.66 0 1 0 C1.06993164 0.55872803 1.13986328 1.11745605 1.21191406 1.69311523 C1.543621 4.27664298 1.8966848 6.85684206 2.25 9.4375 C2.41435547 10.75524414 2.41435547 10.75524414 2.58203125 12.09960938 C3.35664769 17.62384767 4.70502175 22.20321362 7.18652344 27.20727539 C8 29 8 29 8 31 C7.01 31 6.02 31 5 31 C4.34 32.98 3.68 34.96 3 37 C2.67 37 2.34 37 2 37 C1.95101562 36.36191406 1.90203125 35.72382813 1.8515625 35.06640625 C1.77679688 34.24011719 1.70203125 33.41382813 1.625 32.5625 C1.52058594 31.32693359 1.52058594 31.32693359 1.4140625 30.06640625 C1.27742187 29.38449219 1.14078125 28.70257813 1 28 C0.34 27.67 -0.32 27.34 -1 27 C-1.33 28.65 -1.66 30.3 -2 32 C-2.33 32 -2.66 32 -3 32 C-2.05032415 21.32864245 -1.02029037 10.66478185 0 0 Z " fill="#BFC5B6" transform="translate(166,267)"/>
<path d="M0 0 C0.99 0.33 1.98 0.66 3 1 C2.67 1.99 2.34 2.98 2 4 C1.34 4 0.68 4 0 4 C0 4.66 0 5.32 0 6 C-1.175625 6.2784375 -1.175625 6.2784375 -2.375 6.5625 C-5.37552428 7.82777069 -5.37552428 7.82777069 -6.25 11.5 C-6.4975 12.655 -6.745 13.81 -7 15 C-7.33 15.66 -7.66 16.32 -8 17 C-9.65 17 -11.3 17 -13 17 C-14.33333333 20 -14.33333333 20 -13 23 C-13.33 23.66 -13.66 24.32 -14 25 C-16.31 25 -18.62 25 -21 25 C-16.63540894 15.22513461 -7.60138687 7.31573976 0 0 Z " fill="#74A857" transform="translate(154,62)"/>
<path d="M0 0 C0.66 0 1.32 0 2 0 C3.64652364 2.95794964 5.29210108 5.9164246 6.9375 8.875 C7.40607422 9.71675781 7.87464844 10.55851562 8.35742188 11.42578125 C8.80537109 12.23144531 9.25332031 13.03710938 9.71484375 13.8671875 C10.12855225 14.61081543 10.54226074 15.35444336 10.96850586 16.12060547 C11.67082934 17.40024717 12.3471997 18.6943994 13 20 C9.28631113 18.76210371 8.22645819 17.14775123 6 14 C6 13.34 6 12.68 6 12 C5.34 12 4.68 12 4 12 C4 12.99 4 13.98 4 15 C3.34 15 2.68 15 2 15 C2 13.68 2 12.36 2 11 C0.02 11.33 -1.96 11.66 -4 12 C-3.525625 11.13375 -3.05125 10.2675 -2.5625 9.375 C-1.06765105 6.14612626 -0.41781687 3.50966174 0 0 Z " fill="#699D4C" transform="translate(164,46)"/>
<path d="M0 0 C0.99 0.33 1.98 0.66 3 1 C1.43632643 4.52238047 -0.69495889 7.27123994 -3.125 10.25 C-3.84945312 11.14203125 -4.57390625 12.0340625 -5.3203125 12.953125 C-5.87460938 13.62859375 -6.42890625 14.3040625 -7 15 C-8.125 11.25 -8.125 11.25 -7 9 C-6.34 9 -5.68 9 -5 9 C-5.33 8.01 -5.66 7.02 -6 6 C-5.01 5.34 -4.02 4.68 -3 4 C-1.96352976 2.69481525 -0.95577057 1.36538653 0 0 Z " fill="#6B9A4F" transform="translate(204,268)"/>
<path d="M0 0 C0.33 0 0.66 0 1 0 C1.33745354 2.39531756 1.6700829 4.79114268 2 7.1875 C2.09539062 7.86103516 2.19078125 8.53457031 2.2890625 9.22851562 C2.78324613 12.84664577 3.11346131 16.34796401 3 20 C2.34 19.67 1.68 19.34 1 19 C0.34 21.31 -0.32 23.62 -1 26 C-1.33 26 -1.66 26 -2 26 C-1.34 17.42 -0.68 8.84 0 0 Z " fill="#B5CFA7" transform="translate(166,267)"/>
<path d="M0 0 C0.66 0 1.32 0 2 0 C2.33 1.65 2.66 3.3 3 5 C3.99 5 4.98 5 6 5 C5.67 8.63 5.34 12.26 5 16 C2.57395248 13.57395248 2.24156481 11.85807224 1.375 8.5625 C1.11460937 7.59441406 0.85421875 6.62632812 0.5859375 5.62890625 C0 3 0 3 0 0 Z " fill="#639448" transform="translate(168,279)"/>
<path d="M0 0 C2.9171221 1.45856105 4.79807458 3.62423837 7 6 C7 6.66 7 7.32 7 8 C8.32 8.66 9.64 9.32 11 10 C11 10.66 11 11.32 11 12 C11.66 12 12.32 12 13 12 C13.66 13.65 14.32 15.3 15 17 C11.0664117 13.72200975 7.24896457 10.3675398 3.5625 6.8125 C2.88316406 6.15894531 2.20382813 5.50539063 1.50390625 4.83203125 C0 3 0 3 0 0 Z " fill="#6C9B52" transform="translate(138,279)"/>
<path d="M0 0 C1.26916725 3.80750174 0.47776092 5.3102571 -0.8125 9.0625 C-1.34810547 10.65771484 -1.34810547 10.65771484 -1.89453125 12.28515625 C-3 15 -3 15 -5 17 C-5.33 14.69 -5.66 12.38 -6 10 C-5.0409375 9.7215625 -5.0409375 9.7215625 -4.0625 9.4375 C-1.58329642 8.06564692 -1.58329642 8.06564692 -1.3125 4.4375 C-1.1578125 2.7359375 -1.1578125 2.7359375 -1 1 C-0.67 0.67 -0.34 0.34 0 0 Z " fill="#729D59" transform="translate(226,227)"/>
<path d="M0 0 C0.99 0.33 1.98 0.66 3 1 C2.67 1.99 2.34 2.98 2 4 C1.34 4 0.68 4 0 4 C0 4.66 0 5.32 0 6 C-0.928125 6.433125 -1.85625 6.86625 -2.8125 7.3125 C-5.47184073 8.72038627 -7.08105905 9.76123556 -9 12 C-8.45015228 8.12488273 -6.72444669 6.40423494 -3.9375 3.75 C-3.20402344 3.04359375 -2.47054687 2.3371875 -1.71484375 1.609375 C-1.14894531 1.07828125 -0.58304688 0.5471875 0 0 Z " fill="#78A25E" transform="translate(154,62)"/>
<path d="M0 0 C0.66 0 1.32 0 2 0 C0.54955729 4.10958767 -1.51110752 7.43258745 -4 11 C-4.66 10.34 -5.32 9.68 -6 9 C-5.34 9 -4.68 9 -4 9 C-3.896875 8.2575 -3.79375 7.515 -3.6875 6.75 C-2.95066203 3.8026481 -2.05200858 2.21616926 0 0 Z " fill="#6F9A52" transform="translate(214,255)"/>
<path d="M0 0 C0.66 0 1.32 0 2 0 C6 6.75 6 6.75 6 9 C4.125 8.75 4.125 8.75 2 8 C-0.02755186 5.06004981 0 3.72295997 0 0 Z " fill="#85A772" transform="translate(164,46)"/>
<path d="M0 0 C1.32 0.66 2.64 1.32 4 2 C1.69 3.65 -0.62 5.3 -3 7 C-4.32 6.34 -5.64 5.68 -7 5 C-6.34 4.67 -5.68 4.34 -5 4 C-4.01 4.33 -3.02 4.66 -2 5 C-1.34 3.35 -0.68 1.7 0 0 Z " fill="#6F9B54" transform="translate(181,293)"/>
<path d="M0 0 C0.66 0.33 1.32 0.66 2 1 C2 2.98 2 4.96 2 7 C0.02 7.33 -1.96 7.66 -4 8 C-2.68 5.36 -1.36 2.72 0 0 Z " fill="#71A559" transform="translate(164,50)"/>
<path d="M0 0 C0.33 0 0.66 0 1 0 C0.88655624 2.1464753 0.75893655 4.29220592 0.625 6.4375 C0.52058594 8.22994141 0.52058594 8.22994141 0.4140625 10.05859375 C0.27742187 11.02925781 0.14078125 11.99992187 0 13 C-0.99 13.495 -0.99 13.495 -2 14 C-3.81975482 8.87160006 -1.8599099 4.82315618 0 0 Z " fill="#71A552" transform="translate(165,275)"/>
<path d="M0 0 C1.98 0.495 1.98 0.495 4 1 C2.515 4.465 2.515 4.465 1 8 C-0.42944945 5.64561267 -1.08661261 4.51967567 -0.625 1.75 C-0.41875 1.1725 -0.2125 0.595 0 0 Z " fill="#C9CDC4" transform="translate(173,300)"/>
<path d="M0 0 C0.88336837 2.4667645 1.1312406 3.63859372 0.22265625 6.140625 C-0.16019531 6.83671875 -0.54304688 7.5328125 -0.9375 8.25 C-1.31777344 8.95640625 -1.69804688 9.6628125 -2.08984375 10.390625 C-2.39019531 10.92171875 -2.69054687 11.4528125 -3 12 C-3.66 12 -4.32 12 -5 12 C-3.68938409 7.76570244 -2.05643741 3.92592596 0 0 Z " fill="#80A567" transform="translate(120,106)"/>
<path d="M0 0 C0.99 0 1.98 0 3 0 C2.34 3.3 1.68 6.6 1 10 C0.34 9.67 -0.32 9.34 -1 9 C-0.67 6.03 -0.34 3.06 0 0 Z " fill="#739C59" transform="translate(227,217)"/>
<path d="M0 0 C0.99 0.33 1.98 0.66 3 1 C2.34 2.32 1.68 3.64 1 5 C0.01 5 -0.98 5 -2 5 C-2 2 -2 2 0 0 Z " fill="#639447" transform="translate(204,268)"/>
<path d="M0 0 C5 7.5 5 7.5 5 11 C4.01 10.67 3.02 10.34 2 10 C0.47839986 6.3962102 0 3.94779314 0 0 Z " fill="#B6C9AA" transform="translate(169,287)"/>
</svg>
