<?xml version="1.0" encoding="UTF-8"?>
<!DOCTYPE svg PUBLIC "-//W3C//DTD SVG 1.1//EN" "http://www.w3.org/Graphics/SVG/1.1/DTD/svg11.dtd">
<svg xmlns="http://www.w3.org/2000/svg" version="1.1" width="500px" height="500px" style="shape-rendering:geometricPrecision; text-rendering:geometricPrecision; image-rendering:optimizeQuality; fill-rule:evenodd; clip-rule:evenodd" xmlns:xlink="http://www.w3.org/1999/xlink">
<g><path style="opacity:1" fill="#0c778e" d="M 46.5,6.5 C 54.5544,8.51796 62.2211,11.518 69.5,15.5C 68.6598,17.7856 67.1598,18.119 65,16.5C 62.792,17.8374 60.9586,19.5041 59.5,21.5C 60.3599,23.2716 61.6932,24.6049 63.5,25.5C 70.624,26.6985 70.9574,28.1985 64.5,30C 65.9733,30.7096 66.6399,31.8762 66.5,33.5C 68.4286,33.2308 70.0953,33.7308 71.5,35C 69.4556,35.4983 68.1223,36.665 67.5,38.5C 55.3684,32.0661 42.7017,26.8994 29.5,23C 21.6723,21.7491 17.0056,24.9158 15.5,32.5C 16.6135,37.3878 18.2802,42.0544 20.5,46.5C 18.6159,46.7118 17.2826,47.7118 16.5,49.5C 15.6667,48.5 14.8333,47.5 14,46.5C 13.6667,43.1667 13.3333,39.8333 13,36.5C 10.1401,34.867 9.97347,33.2003 12.5,31.5C 13.1962,28.4436 14.0296,25.4436 15,22.5C 19.5523,24.4456 21.0523,23.1123 19.5,18.5C 20.5,18.1667 21.5,17.8333 22.5,17.5C 26.2831,17.8686 29.6164,19.2019 32.5,21.5C 35.0283,20.254 37.6949,19.254 40.5,18.5C 38.8333,17.8333 37.1667,17.1667 35.5,16.5C 38.8923,15.5261 42.559,14.3594 46.5,13C 43.7558,12.1965 41.0891,11.1965 38.5,10C 41.6009,9.36211 44.2676,8.19545 46.5,6.5 Z"/></g>
<g><path style="opacity:1" fill="#07758f" d="M 46.5,6.5 C 44.2676,8.19545 41.6009,9.36211 38.5,10C 41.0891,11.1965 43.7558,12.1965 46.5,13C 42.559,14.3594 38.8923,15.5261 35.5,16.5C 37.1667,17.1667 38.8333,17.8333 40.5,18.5C 37.6949,19.254 35.0283,20.254 32.5,21.5C 29.6164,19.2019 26.2831,17.8686 22.5,17.5C 21.5,17.8333 20.5,18.1667 19.5,18.5C 21.0523,23.1123 19.5523,24.4456 15,22.5C 14.0296,25.4436 13.1962,28.4436 12.5,31.5C 9.97347,33.2003 10.1401,34.867 13,36.5C 13.3333,39.8333 13.6667,43.1667 14,46.5C 14.8333,47.5 15.6667,48.5 16.5,49.5C 17.2826,47.7118 18.6159,46.7118 20.5,46.5C 21.1667,46.5 21.5,46.8333 21.5,47.5C 21.1632,49.672 20.1632,51.5054 18.5,53C 18.8333,53.5 19.1667,54 19.5,54.5C 20.5237,53.1468 21.857,52.4802 23.5,52.5C 23.5001,55.8333 22.1668,58.4999 19.5,60.5C 18.2011,59.91 17.3678,58.91 17,57.5C 16.0766,58.7588 15.2432,60.0921 14.5,61.5C 12.4252,57.0164 10.0919,52.6831 7.5,48.5C 10.1922,45.3263 10.0255,42.3263 7,39.5C 6.66667,42.5 6.33333,45.5 6,48.5C 5.58309,49.756 4.74975,50.4226 3.5,50.5C 1.94874,47.1642 0.61541,43.8309 -0.5,40.5C -0.5,35.1667 -0.5,29.8333 -0.5,24.5C 6.39693,6.71231 19.3969,-0.121026 38.5,4C 41.3791,4.54603 44.0458,5.37936 46.5,6.5 Z"/></g>
<g><path style="opacity:1" fill="#06758e" d="M 69.5,15.5 C 79.3602,20.2596 88.3602,26.2596 96.5,33.5C 96.7118,35.3841 97.7118,36.7174 99.5,37.5C 98.1763,38.9347 96.5096,39.9347 94.5,40.5C 96.7368,41.1321 98.4035,42.4654 99.5,44.5C 95.6116,45.8125 95.7783,46.8125 100,47.5C 102.259,46.9083 103.925,45.575 105,43.5C 106.41,44.7875 107.91,45.9542 109.5,47C 108.051,48.117 106.384,48.7837 104.5,49C 100.5,49.3333 96.5,49.6667 92.5,50C 92.8333,50.3333 93.1667,50.6667 93.5,51C 92.354,51.6449 91.354,52.4783 90.5,53.5C 89.1502,52.0499 87.4835,51.3832 85.5,51.5C 80.0352,46.36 74.0352,42.0267 67.5,38.5C 68.1223,36.665 69.4556,35.4983 71.5,35C 70.0953,33.7308 68.4286,33.2308 66.5,33.5C 66.6399,31.8762 65.9733,30.7096 64.5,30C 70.9574,28.1985 70.624,26.6985 63.5,25.5C 61.6932,24.6049 60.3599,23.2716 59.5,21.5C 60.9586,19.5041 62.792,17.8374 65,16.5C 67.1598,18.119 68.6598,17.7856 69.5,15.5 Z"/></g>
<g><path style="opacity:1" fill="#0b768e" d="M 96.5,33.5 C 97.6828,34.5045 99.0161,35.3378 100.5,36C 109.13,37.0859 117.797,37.7526 126.5,38C 131.368,38.8835 136.034,40.0502 140.5,41.5C 139.115,42.5736 137.949,43.9069 137,45.5C 133.936,43.7835 130.769,43.4502 127.5,44.5C 128.689,45.4287 130.022,45.762 131.5,45.5C 131.5,46.8333 131.5,48.1667 131.5,49.5C 134.247,49.1866 136.914,49.52 139.5,50.5C 135.295,52.0392 131.295,53.8725 127.5,56C 130.044,57.092 132.711,57.7586 135.5,58C 138.106,58.7918 140.106,60.2918 141.5,62.5C 136.37,60.3832 131.036,58.8832 125.5,58C 113.817,57.1983 102.15,56.1983 90.5,55C 88.4156,54.3028 86.7489,53.1361 85.5,51.5C 87.4835,51.3832 89.1502,52.0499 90.5,53.5C 91.354,52.4783 92.354,51.6449 93.5,51C 93.1667,50.6667 92.8333,50.3333 92.5,50C 96.5,49.6667 100.5,49.3333 104.5,49C 106.384,48.7837 108.051,48.117 109.5,47C 107.91,45.9542 106.41,44.7875 105,43.5C 103.925,45.575 102.259,46.9083 100,47.5C 95.7783,46.8125 95.6116,45.8125 99.5,44.5C 98.4035,42.4654 96.7368,41.1321 94.5,40.5C 96.5096,39.9347 98.1763,38.9347 99.5,37.5C 97.7118,36.7174 96.7118,35.3841 96.5,33.5 Z"/></g>
<g><path style="opacity:1" fill="#08758f" d="M 140.5,41.5 C 150.703,42.9688 160.37,46.1355 169.5,51C 182.75,58.7797 195.416,67.2797 207.5,76.5C 206.71,77.7942 205.71,78.9609 204.5,80C 208.362,82.9199 209.862,86.7532 209,91.5C 207.859,88.5278 205.692,86.8611 202.5,86.5C 202.167,87 201.833,87.5 201.5,88C 202.892,91.2925 204.892,94.1259 207.5,96.5C 207,96.8333 206.5,97.1667 206,97.5C 204.259,95.5457 202.092,94.5457 199.5,94.5C 181.416,81.7867 162.083,71.1201 141.5,62.5C 140.106,60.2918 138.106,58.7918 135.5,58C 132.711,57.7586 130.044,57.092 127.5,56C 131.295,53.8725 135.295,52.0392 139.5,50.5C 136.914,49.52 134.247,49.1866 131.5,49.5C 131.5,48.1667 131.5,46.8333 131.5,45.5C 130.022,45.762 128.689,45.4287 127.5,44.5C 130.769,43.4502 133.936,43.7835 137,45.5C 137.949,43.9069 139.115,42.5736 140.5,41.5 Z"/></g>
<g><path style="opacity:1" fill="#0b768d" d="M 21.5,47.5 C 30.2219,57.9307 38.2219,68.9307 45.5,80.5C 44.657,82.1733 43.3237,83.34 41.5,84C 43.1247,84.8525 43.4581,85.8525 42.5,87C 40.2413,86.5613 37.908,86.0613 35.5,85.5C 35.6781,88.3219 36.3448,90.9885 37.5,93.5C 37.4805,94.7261 37.1471,95.7261 36.5,96.5C 28.1614,84.5043 19.328,72.8376 10,61.5C 7.82184,57.8057 5.65518,54.1391 3.5,50.5C 4.74975,50.4226 5.58309,49.756 6,48.5C 6.33333,45.5 6.66667,42.5 7,39.5C 10.0255,42.3263 10.1922,45.3263 7.5,48.5C 10.0919,52.6831 12.4252,57.0164 14.5,61.5C 15.2432,60.0921 16.0766,58.7588 17,57.5C 17.3678,58.91 18.2011,59.91 19.5,60.5C 22.1668,58.4999 23.5001,55.8333 23.5,52.5C 21.857,52.4802 20.5237,53.1468 19.5,54.5C 19.1667,54 18.8333,53.5 18.5,53C 20.1632,51.5054 21.1632,49.672 21.5,47.5 Z"/></g>
<g><path style="opacity:1" fill="#0a758d" d="M 207.5,76.5 C 215.429,81.4325 222.762,87.0992 229.5,93.5C 220.685,94.9985 220.351,97.3318 228.5,100.5C 229.718,106.4 228.385,106.567 224.5,101C 223.552,100.517 222.552,100.351 221.5,100.5C 221.343,101.873 221.51,103.207 222,104.5C 225.071,106.973 226.237,109.973 225.5,113.5C 226.924,115.291 228.258,117.125 229.5,119C 230.448,119.483 231.448,119.649 232.5,119.5C 232.5,120.833 232.5,122.167 232.5,123.5C 221.771,113.432 210.771,103.766 199.5,94.5C 202.092,94.5457 204.259,95.5457 206,97.5C 206.5,97.1667 207,96.8333 207.5,96.5C 204.892,94.1259 202.892,91.2925 201.5,88C 201.833,87.5 202.167,87 202.5,86.5C 205.692,86.8611 207.859,88.5278 209,91.5C 209.862,86.7532 208.362,82.9199 204.5,80C 205.71,78.9609 206.71,77.7942 207.5,76.5 Z"/></g>
<g><path style="opacity:1" fill="#0d768f" d="M 45.5,80.5 C 49.1417,85.0974 52.3084,90.0974 55,95.5C 62.1367,115.078 68.9701,134.744 75.5,154.5C 74.8106,155.774 73.9772,155.774 73,154.5C 72.6667,153.167 72.3333,151.833 72,150.5C 71.586,150.957 71.086,151.291 70.5,151.5C 69.8333,149.833 69.1667,148.167 68.5,146.5C 66.8076,148.359 65.3076,150.359 64,152.5C 61.5017,149.899 62.0017,148.565 65.5,148.5C 65.7989,146.396 65.4656,144.396 64.5,142.5C 63.8333,142.833 63.1667,143.167 62.5,143.5C 60.9842,135.882 58.6508,128.548 55.5,121.5C 53.2472,123.45 52.9139,125.784 54.5,128.5C 53.2485,129.631 52.2485,130.964 51.5,132.5C 53.0936,135.985 53.7603,139.652 53.5,143.5C 47.9327,130.297 43.4327,116.63 40,102.5C 39.074,100.308 37.9073,98.3083 36.5,96.5C 37.1471,95.7261 37.4805,94.7261 37.5,93.5C 36.3448,90.9885 35.6781,88.3219 35.5,85.5C 37.908,86.0613 40.2413,86.5613 42.5,87C 43.4581,85.8525 43.1247,84.8525 41.5,84C 43.3237,83.34 44.657,82.1733 45.5,80.5 Z"/></g>
<g><path style="opacity:1" fill="#0e768d" d="M 103.5,87.5 C 114.285,86.6526 121.785,91.3193 126,101.5C 127.924,109.902 125.424,116.569 118.5,121.5C 114.672,111.17 108.838,102.17 101,94.5C 99.4412,92.7834 98.6079,90.7834 98.5,88.5C 100.415,88.7845 102.081,88.4511 103.5,87.5 Z"/></g>
<g><path style="opacity:1" fill="#06758f" d="M 229.5,93.5 C 240.128,101.127 249.461,110.127 257.5,120.5C 255.774,120.185 254.107,120.019 252.5,120C 254.557,121.719 256.224,123.719 257.5,126C 256.352,127.726 255.185,127.559 254,125.5C 253.567,127.664 254.067,129.664 255.5,131.5C 253.811,135.538 252.144,139.538 250.5,143.5C 244.899,136.561 238.899,129.894 232.5,123.5C 232.5,122.167 232.5,120.833 232.5,119.5C 231.448,119.649 230.448,119.483 229.5,119C 228.258,117.125 226.924,115.291 225.5,113.5C 226.237,109.973 225.071,106.973 222,104.5C 221.51,103.207 221.343,101.873 221.5,100.5C 222.552,100.351 223.552,100.517 224.5,101C 228.385,106.567 229.718,106.4 228.5,100.5C 220.351,97.3318 220.685,94.9985 229.5,93.5 Z"/></g>
<g><path style="opacity:1" fill="#05748f" d="M 257.5,120.5 C 265.337,127.191 272.004,134.858 277.5,143.5C 276.488,145.1 276.988,146.434 279,147.5C 278.734,150.901 280.234,152.567 283.5,152.5C 283.116,154.929 282.449,157.263 281.5,159.5C 280.022,159.762 278.689,159.429 277.5,158.5C 275.132,157.128 273.466,155.128 272.5,152.5C 270.42,157.664 268.753,157.331 267.5,151.5C 265.668,149.043 264.001,149.043 262.5,151.5C 264.167,153.833 266.167,155.833 268.5,157.5C 267.572,158.768 267.405,160.101 268,161.5C 270.371,158.627 272.204,158.961 273.5,162.5C 275.5,163.167 277.5,163.833 279.5,164.5C 282.149,167.316 284.149,170.483 285.5,174C 283.667,174.5 282.5,175.667 282,177.5C 279.996,174.525 278.996,171.192 279,167.5C 278.667,167.833 278.333,168.167 278,168.5C 274.307,167.418 270.807,166.751 267.5,166.5C 262.219,158.552 256.552,150.885 250.5,143.5C 252.144,139.538 253.811,135.538 255.5,131.5C 254.067,129.664 253.567,127.664 254,125.5C 255.185,127.559 256.352,127.726 257.5,126C 256.224,123.719 254.557,121.719 252.5,120C 254.107,120.019 255.774,120.185 257.5,120.5 Z"/></g>
<g><path style="opacity:1" fill="#09758f" d="M 75.5,154.5 C 78.8034,160.433 82.1368,166.433 85.5,172.5C 86.0718,178.582 83.4051,181.916 77.5,182.5C 77.6495,183.552 77.4828,184.552 77,185.5C 76.1841,184.177 75.0174,183.511 73.5,183.5C 64.744,171.321 58.0773,157.988 53.5,143.5C 53.7603,139.652 53.0936,135.985 51.5,132.5C 52.2485,130.964 53.2485,129.631 54.5,128.5C 52.9139,125.784 53.2472,123.45 55.5,121.5C 58.6508,128.548 60.9842,135.882 62.5,143.5C 63.1667,143.167 63.8333,142.833 64.5,142.5C 65.4656,144.396 65.7989,146.396 65.5,148.5C 62.0017,148.565 61.5017,149.899 64,152.5C 65.3076,150.359 66.8076,148.359 68.5,146.5C 69.1667,148.167 69.8333,149.833 70.5,151.5C 71.086,151.291 71.586,150.957 72,150.5C 72.3333,151.833 72.6667,153.167 73,154.5C 73.9772,155.774 74.8106,155.774 75.5,154.5 Z"/></g>
<g><path style="opacity:1" fill="#0a768f" d="M 277.5,143.5 C 289.832,158.513 300.166,174.847 308.5,192.5C 307.861,193.097 307.528,193.93 307.5,195C 309.278,198.937 311.278,202.77 313.5,206.5C 313,206.833 312.5,207.167 312,207.5C 308.633,205.462 306.967,202.462 307,198.5C 303.802,193.214 302.802,193.881 304,200.5C 308.24,207.79 309.74,215.624 308.5,224C 307.552,224.483 306.552,224.649 305.5,224.5C 305.285,220.499 305.952,216.665 307.5,213C 306.348,210.842 305.181,208.675 304,206.5C 303.667,207.5 303.333,208.5 303,209.5C 302.667,209.167 302.333,208.833 302,208.5C 301.248,211.894 301.415,215.227 302.5,218.5C 301.975,219.192 301.308,219.692 300.5,220C 301.672,220.419 302.672,221.085 303.5,222C 301.68,222.979 300.513,224.479 300,226.5C 299.764,224.881 298.931,223.881 297.5,223.5C 289.885,203.27 279.885,184.27 267.5,166.5C 270.807,166.751 274.307,167.418 278,168.5C 278.333,168.167 278.667,167.833 279,167.5C 278.996,171.192 279.996,174.525 282,177.5C 282.5,175.667 283.667,174.5 285.5,174C 284.149,170.483 282.149,167.316 279.5,164.5C 277.5,163.833 275.5,163.167 273.5,162.5C 272.204,158.961 270.371,158.627 268,161.5C 267.405,160.101 267.572,158.768 268.5,157.5C 266.167,155.833 264.167,153.833 262.5,151.5C 264.001,149.043 265.668,149.043 267.5,151.5C 268.753,157.331 270.42,157.664 272.5,152.5C 273.466,155.128 275.132,157.128 277.5,158.5C 278.689,159.429 280.022,159.762 281.5,159.5C 282.449,157.263 283.116,154.929 283.5,152.5C 280.234,152.567 278.734,150.901 279,147.5C 276.988,146.434 276.488,145.1 277.5,143.5 Z"/></g>
<g><path style="opacity:1" fill="#0e768d" d="M 85.5,172.5 C 90.1344,177.305 94.6344,182.305 99,187.5C 101.104,194.924 100.771,202.258 98,209.5C 91.6201,224.363 87.4534,239.697 85.5,255.5C 83.5636,251.285 82.8969,246.619 83.5,241.5C 84.8221,241.67 85.9887,241.337 87,240.5C 87.3333,237.167 87.6667,233.833 88,230.5C 90.2698,227.763 90.7698,224.763 89.5,221.5C 90.1962,218.643 91.5295,216.143 93.5,214C 92.175,214.148 91.0084,213.982 90,213.5C 89.8687,209.944 88.702,206.944 86.5,204.5C 85.5,204.5 84.5,204.5 83.5,204.5C 84.9597,208.477 86.2931,212.477 87.5,216.5C 87.523,218.067 87.023,219.4 86,220.5C 84.8904,218.963 83.3904,218.297 81.5,218.5C 82.6205,222.832 83.7872,227.166 85,231.5C 85.8184,234.227 85.6517,236.894 84.5,239.5C 81.4944,237.643 80.8277,235.143 82.5,232C 81.6948,227.403 80.0281,223.236 77.5,219.5C 78.5628,211.916 80.5628,204.583 83.5,197.5C 83.2811,196.062 82.7811,194.729 82,193.5C 78.558,190.568 75.7246,187.235 73.5,183.5C 75.0174,183.511 76.1841,184.177 77,185.5C 77.4828,184.552 77.6495,183.552 77.5,182.5C 83.4051,181.916 86.0718,178.582 85.5,172.5 Z"/></g>
<g><path style="opacity:1" fill="#0a768f" d="M 308.5,192.5 C 324.129,229.428 341.129,265.761 359.5,301.5C 358.248,307.199 356.582,307.533 354.5,302.5C 353.305,304.297 351.638,305.297 349.5,305.5C 348.951,307.901 348.118,310.235 347,312.5C 346.092,314.439 344.592,315.439 342.5,315.5C 335.681,305.878 329.848,295.544 325,284.5C 315.821,264.145 306.655,243.812 297.5,223.5C 298.931,223.881 299.764,224.881 300,226.5C 300.513,224.479 301.68,222.979 303.5,222C 302.672,221.085 301.672,220.419 300.5,220C 301.308,219.692 301.975,219.192 302.5,218.5C 301.415,215.227 301.248,211.894 302,208.5C 302.333,208.833 302.667,209.167 303,209.5C 303.333,208.5 303.667,207.5 304,206.5C 305.181,208.675 306.348,210.842 307.5,213C 305.952,216.665 305.285,220.499 305.5,224.5C 306.552,224.649 307.552,224.483 308.5,224C 309.74,215.624 308.24,207.79 304,200.5C 302.802,193.881 303.802,193.214 307,198.5C 306.967,202.462 308.633,205.462 312,207.5C 312.5,207.167 313,206.833 313.5,206.5C 311.278,202.77 309.278,198.937 307.5,195C 307.528,193.93 307.861,193.097 308.5,192.5 Z"/></g>
<g><path style="opacity:1" fill="#047490" d="M 85.5,255.5 C 85.5,255.833 85.5,256.167 85.5,256.5C 84.1667,256.5 82.8333,256.5 81.5,256.5C 80.356,261.504 80.356,266.504 81.5,271.5C 80.5207,276.505 79.854,281.339 79.5,286C 80.9936,292.582 81.9936,299.248 82.5,306C 82.2308,307.607 81.3974,308.774 80,309.5C 80.0519,305.344 79.2185,301.51 77.5,298C 78.4581,296.853 78.1247,295.853 76.5,295C 77.6573,279.241 77.824,263.408 77,247.5C 75.0475,249.337 74.0475,251.671 74,254.5C 72.8545,253.316 71.6879,253.316 70.5,254.5C 71.1716,242.475 73.5049,230.809 77.5,219.5C 80.0281,223.236 81.6948,227.403 82.5,232C 80.8277,235.143 81.4944,237.643 84.5,239.5C 85.6517,236.894 85.8184,234.227 85,231.5C 83.7872,227.166 82.6205,222.832 81.5,218.5C 83.3904,218.297 84.8904,218.963 86,220.5C 87.023,219.4 87.523,218.067 87.5,216.5C 86.2931,212.477 84.9597,208.477 83.5,204.5C 84.5,204.5 85.5,204.5 86.5,204.5C 88.702,206.944 89.8687,209.944 90,213.5C 91.0084,213.982 92.175,214.148 93.5,214C 91.5295,216.143 90.1962,218.643 89.5,221.5C 90.7698,224.763 90.2698,227.763 88,230.5C 87.6667,233.833 87.3333,237.167 87,240.5C 85.9887,241.337 84.8221,241.67 83.5,241.5C 82.8969,246.619 83.5636,251.285 85.5,255.5 Z"/></g>
<g><path style="opacity:1" fill="#05758f" d="M 152.5,294.5 C 152.986,297.755 151.986,300.422 149.5,302.5C 151.024,304.792 150.691,306.792 148.5,308.5C 149.833,310.5 149.833,312.5 148.5,314.5C 146.622,315.661 145.622,314.994 145.5,312.5C 146.592,310.399 147.592,308.232 148.5,306C 145.116,299.891 143.45,300.058 143.5,306.5C 142.186,305.687 141.019,304.687 140,303.5C 139.946,306.861 138.946,309.861 137,312.5C 135.844,311.007 135.01,311.174 134.5,313C 135.821,315.071 136.821,317.071 137.5,319C 136.137,320.945 135.303,323.112 135,325.5C 134.667,330.833 134.333,336.167 134,341.5C 131.749,344.017 130.916,347.017 131.5,350.5C 131.5,350.833 131.5,351.167 131.5,351.5C 129.418,351.528 127.584,350.861 126,349.5C 124.647,342.751 122.147,336.585 118.5,331C 119.451,330.282 119.617,329.449 119,328.5C 116.911,331.465 117.078,334.299 119.5,337C 119,337.5 118.5,338 118,338.5C 117.059,336.273 115.892,334.273 114.5,332.5C 113.74,307.271 121.573,285.271 138,266.5C 140.234,265.295 141.901,265.961 143,268.5C 145.896,277.286 149.062,285.953 152.5,294.5 Z"/></g>
<g><path style="opacity:1" fill="#0a768e" d="M 359.5,301.5 C 360.962,302.458 362.295,303.624 363.5,305C 369.902,307.179 375.902,310.012 381.5,313.5C 378.968,314.68 376.301,315.68 373.5,316.5C 375.274,317.187 376.941,318.02 378.5,319C 375.332,319.582 374.999,320.582 377.5,322C 374.491,323.504 371.491,325.004 368.5,326.5C 368.808,327.308 369.308,327.975 370,328.5C 371.814,327.24 373.647,327.24 375.5,328.5C 376.665,329.584 377.998,330.417 379.5,331C 378.944,331.383 378.611,331.883 378.5,332.5C 367.859,329.563 357.526,325.73 347.5,321C 345.627,319.296 343.96,317.463 342.5,315.5C 344.592,315.439 346.092,314.439 347,312.5C 348.118,310.235 348.951,307.901 349.5,305.5C 351.638,305.297 353.305,304.297 354.5,302.5C 356.582,307.533 358.248,307.199 359.5,301.5 Z"/></g>
<g><path style="opacity:1" fill="#06758e" d="M 85.5,256.5 C 84.5922,277.001 87.2589,297.001 93.5,316.5C 93.6751,319.329 92.3418,320.996 89.5,321.5C 90.2824,323.329 89.6157,324.829 87.5,326C 89.7914,328.016 89.7914,330.183 87.5,332.5C 84.4057,328.748 81.7391,324.748 79.5,320.5C 78.8933,320.624 78.56,320.957 78.5,321.5C 70.329,299.8 67.6623,277.466 70.5,254.5C 71.6879,253.316 72.8545,253.316 74,254.5C 74.0475,251.671 75.0475,249.337 77,247.5C 77.824,263.408 77.6573,279.241 76.5,295C 78.1247,295.853 78.4581,296.853 77.5,298C 79.2185,301.51 80.0519,305.344 80,309.5C 81.3974,308.774 82.2308,307.607 82.5,306C 81.9936,299.248 80.9936,292.582 79.5,286C 79.854,281.339 80.5207,276.505 81.5,271.5C 80.356,266.504 80.356,261.504 81.5,256.5C 82.8333,256.5 84.1667,256.5 85.5,256.5 Z"/></g>
<g><path style="opacity:1" fill="#07758f" d="M 381.5,313.5 C 385.734,314.617 389.734,316.284 393.5,318.5C 395.779,320.959 397.946,323.626 400,326.5C 403.128,325.058 405.962,325.558 408.5,328C 407.328,328.419 406.328,329.085 405.5,330C 407.734,330.969 409.734,332.302 411.5,334C 410.241,334.923 408.908,335.757 407.5,336.5C 411.044,337.557 414.044,336.557 416.5,333.5C 416.833,334 417.167,334.5 417.5,335C 416.004,336.331 414.671,337.831 413.5,339.5C 416.004,340.184 418.671,341.184 421.5,342.5C 421.374,340.8 420.707,339.3 419.5,338C 419.833,337.5 420.167,337 420.5,336.5C 424.122,339.106 427.788,341.772 431.5,344.5C 431.192,345.308 430.692,345.975 430,346.5C 427.546,345.802 425.213,344.802 423,343.5C 421.745,344.211 420.579,345.044 419.5,346C 420.673,349.11 420.173,349.277 418,346.5C 416.378,347.099 414.878,347.766 413.5,348.5C 402.761,341.3 391.094,335.966 378.5,332.5C 378.611,331.883 378.944,331.383 379.5,331C 377.998,330.417 376.665,329.584 375.5,328.5C 373.647,327.24 371.814,327.24 370,328.5C 369.308,327.975 368.808,327.308 368.5,326.5C 371.491,325.004 374.491,323.504 377.5,322C 374.999,320.582 375.332,319.582 378.5,319C 376.941,318.02 375.274,317.187 373.5,316.5C 376.301,315.68 378.968,314.68 381.5,313.5 Z"/></g>
<g><path style="opacity:1" fill="#0f768e" d="M 152.5,294.5 C 167.201,326.35 185.368,356.017 207,383.5C 212.708,389.376 218.541,395.042 224.5,400.5C 224,400.833 223.5,401.167 223,401.5C 220.61,400.722 218.443,399.555 216.5,398C 200.238,383.283 184.072,368.45 168,353.5C 156.736,339.992 147.736,324.992 141,308.5C 138.511,319.744 136.511,331.077 135,342.5C 134.295,345.476 133.129,348.142 131.5,350.5C 130.916,347.017 131.749,344.017 134,341.5C 134.333,336.167 134.667,330.833 135,325.5C 135.303,323.112 136.137,320.945 137.5,319C 136.821,317.071 135.821,315.071 134.5,313C 135.01,311.174 135.844,311.007 137,312.5C 138.946,309.861 139.946,306.861 140,303.5C 141.019,304.687 142.186,305.687 143.5,306.5C 143.45,300.058 145.116,299.891 148.5,306C 147.592,308.232 146.592,310.399 145.5,312.5C 145.622,314.994 146.622,315.661 148.5,314.5C 149.833,312.5 149.833,310.5 148.5,308.5C 150.691,306.792 151.024,304.792 149.5,302.5C 151.986,300.422 152.986,297.755 152.5,294.5 Z"/></g>
<g><path style="opacity:1" fill="#08758e" d="M 93.5,316.5 C 96.3679,322.565 99.5346,328.565 103,334.5C 105.805,337.653 109.305,339.319 113.5,339.5C 113.298,337.05 113.631,334.717 114.5,332.5C 115.892,334.273 117.059,336.273 118,338.5C 118.5,338 119,337.5 119.5,337C 117.078,334.299 116.911,331.465 119,328.5C 119.617,329.449 119.451,330.282 118.5,331C 122.147,336.585 124.647,342.751 126,349.5C 127.584,350.861 129.418,351.528 131.5,351.5C 123.438,361.181 113.771,363.014 102.5,357C 90.7254,347.724 82.7254,335.891 78.5,321.5C 78.56,320.957 78.8933,320.624 79.5,320.5C 81.7391,324.748 84.4057,328.748 87.5,332.5C 89.7914,330.183 89.7914,328.016 87.5,326C 89.6157,324.829 90.2824,323.329 89.5,321.5C 92.3418,320.996 93.6751,319.329 93.5,316.5 Z"/></g>
<g><path style="opacity:1" fill="#08758e" d="M 393.5,318.5 C 417.698,330.38 439.698,345.38 459.5,363.5C 460.102,365.338 460.435,367.171 460.5,369C 458.19,369.497 455.857,369.663 453.5,369.5C 453.5,368.5 453.5,367.5 453.5,366.5C 452.5,366.5 451.5,366.5 450.5,366.5C 450.48,368.143 451.147,369.476 452.5,370.5C 452,370.833 451.5,371.167 451,371.5C 449.079,369.997 446.912,369.331 444.5,369.5C 444.838,365.849 443.172,364.183 439.5,364.5C 439.17,361.891 437.67,360.224 435,359.5C 433.961,360.244 433.461,361.244 433.5,362.5C 426.552,358.215 419.885,353.549 413.5,348.5C 414.878,347.766 416.378,347.099 418,346.5C 420.173,349.277 420.673,349.11 419.5,346C 420.579,345.044 421.745,344.211 423,343.5C 425.213,344.802 427.546,345.802 430,346.5C 430.692,345.975 431.192,345.308 431.5,344.5C 427.788,341.772 424.122,339.106 420.5,336.5C 420.167,337 419.833,337.5 419.5,338C 420.707,339.3 421.374,340.8 421.5,342.5C 418.671,341.184 416.004,340.184 413.5,339.5C 414.671,337.831 416.004,336.331 417.5,335C 417.167,334.5 416.833,334 416.5,333.5C 414.044,336.557 411.044,337.557 407.5,336.5C 408.908,335.757 410.241,334.923 411.5,334C 409.734,332.302 407.734,330.969 405.5,330C 406.328,329.085 407.328,328.419 408.5,328C 405.962,325.558 403.128,325.058 400,326.5C 397.946,323.626 395.779,320.959 393.5,318.5 Z"/></g>
<g><path style="opacity:1" fill="#0f768d" d="M 459.5,363.5 C 468.225,370.912 476.059,379.245 483,388.5C 483.494,390.134 483.66,391.801 483.5,393.5C 475.826,395.223 468.159,397.056 460.5,399C 456.21,399.923 451.877,400.423 447.5,400.5C 449.886,398.824 452.553,397.49 455.5,396.5C 456.154,394.885 456.654,393.218 457,391.5C 458.974,391.647 460.974,391.981 463,392.5C 463.219,391.062 463.719,389.729 464.5,388.5C 467.28,389.195 469.947,390.195 472.5,391.5C 474.618,390.054 476.951,389.387 479.5,389.5C 479.649,388.448 479.483,387.448 479,386.5C 474.156,387.6 469.323,386.6 464.5,383.5C 465.167,382.167 466.167,381.167 467.5,380.5C 468.506,380.938 468.506,381.604 467.5,382.5C 469.833,383.833 472.167,383.833 474.5,382.5C 473.675,381.614 472.675,381.281 471.5,381.5C 470.81,377.788 469.31,374.455 467,371.5C 465.182,373.645 463.682,373.645 462.5,371.5C 462.167,372 461.833,372.5 461.5,373C 462.893,374.301 463.393,375.801 463,377.5C 461.693,379.192 460.193,380.525 458.5,381.5C 457.04,379.537 455.373,377.704 453.5,376C 446.383,372.028 439.716,367.528 433.5,362.5C 433.461,361.244 433.961,360.244 435,359.5C 437.67,360.224 439.17,361.891 439.5,364.5C 443.172,364.183 444.838,365.849 444.5,369.5C 446.912,369.331 449.079,369.997 451,371.5C 451.5,371.167 452,370.833 452.5,370.5C 451.147,369.476 450.48,368.143 450.5,366.5C 451.5,366.5 452.5,366.5 453.5,366.5C 453.5,367.5 453.5,368.5 453.5,369.5C 455.857,369.663 458.19,369.497 460.5,369C 460.435,367.171 460.102,365.338 459.5,363.5 Z"/></g>
<g><path style="opacity:1" fill="#09768f" d="M 447.5,400.5 C 435.737,402.691 424.07,405.357 412.5,408.5C 411.871,405.871 410.205,404.204 407.5,403.5C 406.754,402.264 406.421,400.93 406.5,399.5C 407.552,399.649 408.552,399.483 409.5,399C 406.215,397.738 402.882,396.572 399.5,395.5C 401.044,403.395 399.377,404.229 394.5,398C 395.833,397.333 397.167,396.667 398.5,396C 398.167,395.667 397.833,395.333 397.5,395C 393.476,394.503 389.476,394.669 385.5,395.5C 408.881,385.827 433.215,381.16 458.5,381.5C 460.193,380.525 461.693,379.192 463,377.5C 463.393,375.801 462.893,374.301 461.5,373C 461.833,372.5 462.167,372 462.5,371.5C 463.682,373.645 465.182,373.645 467,371.5C 469.31,374.455 470.81,377.788 471.5,381.5C 472.675,381.281 473.675,381.614 474.5,382.5C 472.167,383.833 469.833,383.833 467.5,382.5C 468.506,381.604 468.506,380.938 467.5,380.5C 466.167,381.167 465.167,382.167 464.5,383.5C 469.323,386.6 474.156,387.6 479,386.5C 479.483,387.448 479.649,388.448 479.5,389.5C 476.951,389.387 474.618,390.054 472.5,391.5C 469.947,390.195 467.28,389.195 464.5,388.5C 463.719,389.729 463.219,391.062 463,392.5C 460.974,391.981 458.974,391.647 457,391.5C 456.654,393.218 456.154,394.885 455.5,396.5C 452.553,397.49 449.886,398.824 447.5,400.5 Z"/></g>
<g><path style="opacity:1" fill="#08758e" d="M 412.5,408.5 C 411.761,408.369 411.094,408.536 410.5,409C 412.743,413.248 415.743,416.914 419.5,420C 428.74,426.092 438.074,431.926 447.5,437.5C 444.074,437.757 441.574,439.423 440,442.5C 438.644,441.62 437.144,441.286 435.5,441.5C 435.978,438.722 434.978,436.722 432.5,435.5C 431.507,440.12 431.173,444.786 431.5,449.5C 433.58,450.044 435.58,450.878 437.5,452C 436.095,453.269 434.429,453.769 432.5,453.5C 417.367,445.835 403.867,435.835 392,423.5C 387.173,417.337 383.173,410.671 380,403.5C 378.832,398.827 380.665,396.16 385.5,395.5C 389.476,394.669 393.476,394.503 397.5,395C 397.833,395.333 398.167,395.667 398.5,396C 397.167,396.667 395.833,397.333 394.5,398C 399.377,404.229 401.044,403.395 399.5,395.5C 402.882,396.572 406.215,397.738 409.5,399C 408.552,399.483 407.552,399.649 406.5,399.5C 406.421,400.93 406.754,402.264 407.5,403.5C 410.205,404.204 411.871,405.871 412.5,408.5 Z"/></g>
<g><path style="opacity:1" fill="#0b758e" d="M 447.5,437.5 C 459.69,446.18 470.856,456.18 481,467.5C 484.938,472.441 489.271,477.108 494,481.5C 496.326,485.017 498.16,488.683 499.5,492.5C 499.5,493.5 499.5,494.5 499.5,495.5C 487.677,486.523 475.677,477.69 463.5,469C 453.075,463.787 442.741,458.621 432.5,453.5C 434.429,453.769 436.095,453.269 437.5,452C 435.58,450.878 433.58,450.044 431.5,449.5C 431.173,444.786 431.507,440.12 432.5,435.5C 434.978,436.722 435.978,438.722 435.5,441.5C 437.144,441.286 438.644,441.62 440,442.5C 441.574,439.423 444.074,437.757 447.5,437.5 Z"/></g>
</svg>
