<?xml version="1.0" encoding="UTF-8"?>
<svg version="1.1" xmlns="http://www.w3.org/2000/svg" width="500" height="500">
<path d="M0 0 C6.31292668 -0.10243299 12.62563476 -0.17189283 18.93920898 -0.21972656 C21.08154305 -0.2396927 23.22382368 -0.26687538 25.3659668 -0.30175781 C44.26702723 -0.6015647 57.2960634 0.74142146 71.95703125 13.734375 C85.41528337 27.46604534 89.58796481 48.84450558 93 67 C93.22945313 68.155 93.45890625 69.31 93.6953125 70.5 C97.3715062 92.45360743 95.57780782 115.34994577 91 137 C90.83983398 137.76924805 90.67966797 138.53849609 90.51464844 139.33105469 C87.06893723 155.28667282 79.98609911 169.11902954 66.87890625 179.14453125 C50.01172666 190.0155086 31.89976814 190.16940266 12.53735352 190.11352539 C11.1657003 190.11324228 9.79404693 190.11340366 8.4223938 190.1139679 C4.75189776 190.11425104 1.0814354 190.10843357 -2.58905292 190.10139394 C-6.44470718 190.09507887 -10.30036248 190.09455023 -14.15602112 190.09336853 C-21.43351018 190.09027899 -28.71098395 190.08209813 -35.98846632 190.07201904 C-44.28369654 190.06078347 -52.57892755 190.05532882 -60.87416351 190.05032361 C-77.91611805 190.03991313 -94.95805682 190.02215543 -112 190 C-112.33 195.94 -112.66 201.88 -113 208 C-110.18799072 207.99476318 -107.37598145 207.98952637 -104.47875977 207.98413086 C-95.21075344 207.96759626 -85.94274649 207.9565293 -76.67472935 207.94818783 C-71.05292038 207.94295864 -65.43112647 207.93586034 -59.80932617 207.92456055 C-54.38881723 207.91373294 -48.9683228 207.90772344 -43.54780388 207.90512276 C-41.47485055 207.90326828 -39.40189806 207.89964723 -37.32895088 207.89426994 C-34.43616107 207.8870612 -31.54343204 207.88600899 -28.65063477 207.88647461 C-27.78461136 207.88287933 -26.91858795 207.87928406 -26.02632141 207.87557983 C-20.11405216 207.88594784 -20.11405216 207.88594784 -19 209 C-18.89667233 210.39896209 -18.86150041 211.80305405 -18.85473633 213.20581055 C-18.84835648 214.10152267 -18.84197662 214.9972348 -18.83540344 215.92008972 C-18.83373421 217.38857109 -18.83373421 217.38857109 -18.83203125 218.88671875 C-18.82870285 219.89531448 -18.82537445 220.90391022 -18.82194519 221.94306946 C-18.81686585 224.09102929 -18.81453717 226.23899706 -18.81469727 228.38696289 C-18.81253924 231.62855729 -18.7944745 234.86979534 -18.77539062 238.11132812 C-18.67812603 273.25083616 -18.67812603 273.25083616 -29.93359375 285.09375 C-50.85843988 304.39682167 -88.9401593 304.82004602 -115.88769531 304.140625 C-137.46339331 303.16575819 -159.44867312 299.27601036 -175.51953125 283.76171875 C-188.74577562 269.03580573 -188.45160147 252.03942031 -188.36328125 233.390625 C-188.36276156 231.2111613 -188.36328346 229.03169713 -188.36479187 226.85223389 C-188.36470262 222.30685335 -188.35436782 217.76165193 -188.33618164 213.21630859 C-188.31344214 207.40733509 -188.31296544 201.59862147 -188.31969929 195.78961563 C-188.32304853 191.29762484 -188.31639204 186.80569271 -188.30657005 182.31371307 C-188.30273834 180.172018 -188.30156136 178.03031638 -188.3031559 175.88861847 C-188.30352901 172.89339357 -188.29083955 169.89849578 -188.2746582 166.90332031 C-188.27713562 166.03037827 -188.27961304 165.15743622 -188.28216553 164.25804138 C-188.17165581 151.3648478 -184.2843995 140.07134539 -175.25 130.625 C-159.77900256 116.1730503 -141.72211563 113.62170834 -121.33489037 113.84967041 C-118.97251682 113.87577861 -116.61037445 113.88837318 -114.24787903 113.89794922 C-108.38341193 113.92434114 -102.51916865 113.97270111 -96.65484619 114.02075195 C-91.67965657 114.06067565 -86.7045526 114.09175793 -81.72924232 114.11187744 C-79.43580287 114.1245559 -77.14273487 114.14955823 -74.84941101 114.17529297 C-67.41560227 114.22781805 -60.11794028 113.95146527 -52.7277832 113.10546875 C-51.67472756 112.98614487 -51.67472756 112.98614487 -50.60039806 112.8644104 C-45.13185018 112.17029804 -40.75859633 110.705683 -36 108 C-35.27941406 107.65195313 -34.55882812 107.30390625 -33.81640625 106.9453125 C-19.70316674 99.85200321 -9.53625379 87.11557783 -4.0625 72.49609375 C-0.95145418 62.93860203 -0.85685288 53.23666137 -0.9375 43.26171875 C-0.94128662 42.17792435 -0.94507324 41.09412994 -0.94897461 39.97749329 C-0.96109418 36.54745313 -0.97973126 33.11750106 -1 29.6875 C-1.02660884 25.1497419 -1.04657527 20.61202548 -1.0625 16.07421875 C-1.07494751 14.51945076 -1.07494751 14.51945076 -1.08764648 12.93327332 C-1.09094971 11.96489029 -1.09425293 10.99650726 -1.09765625 9.9987793 C-1.10289307 9.15179977 -1.10812988 8.30482025 -1.11352539 7.43217468 C-0.9938813 4.86891262 -0.56442877 2.49997934 0 0 Z M-70 238 C-71.98895827 241.97791654 -71.53012892 246.6755776 -71 251 C-69.36871013 254.83116209 -67.20657063 257.24996961 -63.6875 259.4375 C-58.58722136 260.50500018 -54.60269472 260.58559999 -49.75 258.8125 C-45.76438846 256.18561967 -43.51019469 253.53058408 -42 249 C-41.62424847 244.41583135 -41.56584473 241.94066976 -43.5 237.75 C-47.16083728 233.72307899 -51.20551938 231.39921152 -56.625 230.625 C-62.65384379 231.5769227 -65.95028166 233.37175046 -70 238 Z " fill="#FCC007" transform="translate(349,145)"/>
<path d="M0 0 C9.27936464 8.77777736 15.24167737 20.0353873 15.84882355 32.90769005 C15.89385355 35.4078518 15.90798096 37.90641347 15.91113281 40.40698242 C15.91609772 41.35579285 15.92106262 42.30460327 15.92617798 43.28216553 C15.9407425 46.41077408 15.94759255 49.53933191 15.953125 52.66796875 C15.95888171 54.85264588 15.96463938 57.037323 15.97039795 59.22200012 C15.9808921 63.80075311 15.98674496 68.37948863 15.99023438 72.95825195 C15.99571176 78.80424907 16.01973056 84.65001244 16.04820633 90.49593639 C16.06689904 95.00945189 16.07204187 99.52291186 16.07357025 104.03646278 C16.07658299 106.19047636 16.0845645 108.34448929 16.09775543 110.49846458 C16.20357323 129.1078359 14.62045218 143.28345646 1.39453125 157.38671875 C-15.04626722 172.46756934 -34.22058734 173.01689276 -55.25313187 172.85709953 C-57.6687099 172.83935036 -60.08421875 172.82930008 -62.49984741 172.82118225 C-69.35673535 172.79703273 -76.21352835 172.76121866 -83.0703125 172.71655273 C-87.29452283 172.68956466 -91.51868113 172.67266108 -95.74296188 172.66168404 C-97.33514723 172.6555416 -98.92732329 172.64562345 -100.51945877 172.63160515 C-120.5887412 172.45629968 -137.95756333 175.6913989 -153.25 189.8125 C-166.80958834 204.91817391 -171.65920996 221.22912655 -171.76171875 241.20703125 C-171.78864555 243.17708382 -171.78864555 243.17708382 -171.81611633 245.18693542 C-171.8630315 248.63086094 -171.89321466 252.07472378 -171.91955566 255.51885986 C-171.94966157 259.05241284 -171.9960861 262.58575056 -172.04101562 266.11914062 C-172.12638024 273.01680315 -172.19401746 279.91453793 -172.25 286.8125 C-178.72365664 286.91478521 -185.19710128 286.98433275 -191.67138672 287.03222656 C-193.86905708 287.05221418 -196.06667514 287.07941362 -198.26416016 287.11425781 C-216.31090672 287.39303536 -229.90481052 286.40474448 -243.8125 273.75 C-255.47769998 261.40816429 -260.22628623 245.04047267 -263.79589844 228.85595703 C-264.22882196 226.90780119 -264.69559966 224.96726038 -265.1640625 223.02734375 C-267.46388771 212.50006668 -267.54160066 201.91465157 -267.5625 191.1875 C-267.56608521 190.4491391 -267.56967041 189.7107782 -267.57336426 188.95004272 C-267.6156163 172.75335169 -265.66465085 157.42608133 -261.25 141.8125 C-260.940625 140.71679688 -260.63125 139.62109375 -260.3125 138.4921875 C-255.84376763 123.93156786 -247.41673606 112.57394441 -234.25 104.8125 C-222.29812746 98.84612523 -210.13781904 97.36599297 -196.93457031 97.47192383 C-195.43528256 97.47277209 -193.93599357 97.47229108 -192.43670654 97.47059631 C-188.40437601 97.46974269 -184.37231834 97.48726456 -180.3400507 97.50831819 C-176.11202983 97.52719178 -171.88400132 97.52884378 -167.65594482 97.53239441 C-159.66644252 97.54168372 -151.67706476 97.56625489 -143.68761706 97.59644288 C-134.58474846 97.6300844 -125.48187361 97.64649731 -116.37895823 97.66152918 C-97.66923316 97.69280756 -78.9596312 97.74611785 -60.25 97.8125 C-60.25 91.5425 -60.25 85.2725 -60.25 78.8125 C-64.42257446 78.82035522 -64.42257446 78.82035522 -68.67944336 78.82836914 C-77.84766479 78.84490382 -87.01588686 78.85597073 -96.18411922 78.86431217 C-101.74539411 78.86954134 -107.30665379 78.87663958 -112.86791992 78.88793945 C-118.23007419 78.89876715 -123.59221378 78.90477658 -128.95437813 78.90737724 C-131.00500278 78.90923171 -133.0556266 78.91285272 -135.10624504 78.91823006 C-137.96790203 78.92543893 -140.82949757 78.92649101 -143.69116211 78.92602539 C-144.54783478 78.92962067 -145.40450745 78.93321594 -146.28713989 78.93692017 C-152.13594784 78.92655216 -152.13594784 78.92655216 -153.25 77.8125 C-153.35889104 76.29111322 -153.39904514 74.76473272 -153.41113281 73.23950195 C-153.42074036 72.26370682 -153.4303479 71.28791168 -153.44024658 70.282547 C-153.44449646 69.2160643 -153.44874634 68.1495816 -153.453125 67.05078125 C-153.45882507 65.95340134 -153.46452515 64.85602142 -153.47039795 63.72538757 C-153.47987366 61.38911915 -153.48639207 59.05283721 -153.49023438 56.71655273 C-153.49983649 53.18513497 -153.53079157 49.65432525 -153.5625 46.12304688 C-153.70952474 15.11307834 -153.70952474 15.11307834 -145.25 4.8125 C-144.79238281 4.22210938 -144.33476562 3.63171875 -143.86328125 3.0234375 C-130.68030814 -12.05230505 -105.90670478 -14.23558198 -87.25 -16.1875 C-86.39664063 -16.29835937 -85.54328125 -16.40921875 -84.6640625 -16.5234375 C-57.29761679 -19.71762832 -21.90736517 -18.44830751 0 0 Z M-129.25 33.8125 C-130.926194 38.84108199 -130.85642735 43.15280411 -129.0625 48.0625 C-126.71100791 51.6302811 -124.06557843 53.90471079 -120.25 55.8125 C-114.64272183 56.18631854 -111.08227462 55.99740827 -106.25 52.8125 C-101.99592789 48.09852821 -100.94558755 45.27259657 -101.03515625 39.0625 C-101.45855141 34.62839791 -103.53991174 32.45157944 -106.75 29.5625 C-115.07868717 23.73241898 -123.09844446 26.78215081 -129.25 33.8125 Z " fill="#0275BB" transform="translate(314.25,68.1875)"/>
<path d="M0 0 C12.10841944 -0.02312178 24.21683367 -0.04091424 36.32527065 -0.05181217 C41.94707962 -0.05704136 47.56887353 -0.06413966 53.19067383 -0.07543945 C58.61118277 -0.08626706 64.0316772 -0.09227656 69.45219612 -0.09487724 C71.52514945 -0.09673172 73.59810194 -0.10035277 75.67104912 -0.10573006 C78.56383893 -0.1129388 81.45656796 -0.11399101 84.34936523 -0.11352539 C85.21538864 -0.11712067 86.08141205 -0.12071594 86.97367859 -0.12442017 C92.88594784 -0.11405216 92.88594784 -0.11405216 94 1 C94.10332767 2.39896209 94.13849959 3.80305405 94.14526367 5.20581055 C94.15164352 6.10152267 94.15802338 6.9972348 94.16459656 7.92008972 C94.16570938 8.8990773 94.1668222 9.87806488 94.16796875 10.88671875 C94.17296135 12.39961235 94.17296135 12.39961235 94.17805481 13.94306946 C94.18313415 16.09102929 94.18546283 18.23899706 94.18530273 20.38696289 C94.18746076 23.62855729 94.2055255 26.86979534 94.22460938 30.11132812 C94.25311391 40.92268943 94.07828658 51.3518722 92 62 C91.67 62 91.34 62 91 62 C91.33 42.2 91.66 22.4 92 2 C61.97 2 31.94 2 1 2 C0.67 1.34 0.34 0.68 0 0 Z " fill="#F0C43B" transform="translate(236,353)"/>
<path d="M0 0 C0 4.35702633 -1.27465782 7.81599766 -3.54719543 11.52554321 C-5.55605821 16.32984179 -5.43972395 20.62064368 -5.43237305 25.77880859 C-5.4425647 26.85257751 -5.45275635 27.92634644 -5.46325684 29.03265381 C-5.49337924 32.57130151 -5.50265191 36.10967845 -5.51171875 39.6484375 C-5.52856594 42.10609842 -5.54671623 44.56375073 -5.56611633 47.02139282 C-5.61361781 53.4821707 -5.64342646 59.94291364 -5.66955566 66.40380859 C-5.69936024 72.99974465 -5.745891 79.59556036 -5.79101562 86.19140625 C-5.87705056 99.12753872 -5.94496337 112.06370041 -6 125 C-6.33 125 -6.66 125 -7 125 C-8.0740365 119.75286783 -8.14797706 114.70260796 -8.14526367 109.3737793 C-8.14862228 108.42175629 -8.1519809 107.46973328 -8.15544128 106.48886108 C-8.16491761 103.35063359 -8.16689276 100.21245965 -8.16796875 97.07421875 C-8.17118373 94.88475015 -8.17454798 92.69528176 -8.17805481 90.5058136 C-8.18403784 85.91866559 -8.18589557 81.3315364 -8.18530273 76.74438477 C-8.18520118 70.8803068 -8.19885011 65.01635009 -8.21607494 59.15230083 C-8.22721976 54.63028921 -8.22922117 50.10830668 -8.22869301 45.58628273 C-8.2298695 43.42504267 -8.23427266 41.26380178 -8.24202538 39.1025753 C-8.25187495 36.07309976 -8.24892757 33.04388446 -8.24291992 30.0144043 C-8.24853943 29.13046494 -8.25415894 28.24652557 -8.25994873 27.33580017 C-8.22097889 19.56222914 -7.11196748 12.43212969 -3.4375 5.5 C-3.00308594 4.6646875 -2.56867188 3.829375 -2.12109375 2.96875 C-1 1 -1 1 0 0 Z " fill="#F0C544" transform="translate(169,282)"/>
<path d="M0 0 C6.34961125 -0.07664932 12.69910128 -0.12884898 19.04907227 -0.16479492 C21.2050421 -0.17979494 23.36098187 -0.20020161 25.5168457 -0.22631836 C28.63240012 -0.2630907 31.74754788 -0.27981469 34.86328125 -0.29296875 C35.81270096 -0.30845261 36.76212067 -0.32393646 37.74031067 -0.33988953 C44.5638221 -0.34156991 50.51120918 0.91959843 57 3 C55.13066101 4.05307007 55.13066101 4.05307007 53 5 C52.31010986 4.71979004 51.62021973 4.43958008 50.90942383 4.15087891 C46.49854913 2.40607205 42.15306484 2.64135958 37.44921875 2.5859375 C36.43527542 2.56657135 35.42133209 2.5472052 34.37666321 2.5272522 C31.14702697 2.46760574 27.9173548 2.42113049 24.6875 2.375 C22.49412532 2.33680651 20.30076542 2.29775398 18.10742188 2.2578125 C12.7384127 2.16191652 7.36931409 2.07682545 2 2 C2.33 2.99 2.66 3.98 3 5 C2.34 5 1.68 5 1 5 C0.97303635 6.79158489 0.95362083 8.58328473 0.9375 10.375 C0.92589844 11.37273437 0.91429687 12.37046875 0.90234375 13.3984375 C0.81993398 15.98432453 0.81993398 15.98432453 2 18 C2.07092842 20.2072923 2.08415025 22.41667452 2.0625 24.625 C2.05347656 25.81351563 2.04445313 27.00203125 2.03515625 28.2265625 C2.02355469 29.14179688 2.01195312 30.05703125 2 31 C1.34 31.33 0.68 31.66 0 32 C-1.92375322 9.08672509 -1.92375322 9.08672509 0 0 Z " fill="#F0C63A" transform="translate(349,145)"/>
<path d="M0 0 C0 0.66 0 1.32 0 2 C-0.969375 2.474375 -1.93875 2.94875 -2.9375 3.4375 C-5.80477437 4.70193947 -5.80477437 4.70193947 -7 6 C-8.51928038 6.07179964 -10.04167482 6.08392007 -11.5625 6.0625 C-12.38878906 6.05347656 -13.21507812 6.04445313 -14.06640625 6.03515625 C-14.70449219 6.02355469 -15.34257812 6.01195312 -16 6 C-16 6.66 -16 7.32 -16 8 C-23.08007025 8.02549283 -30.16012852 8.04292658 -37.24023438 8.05493164 C-39.64551231 8.05993994 -42.05078724 8.06674848 -44.45605469 8.07543945 C-47.92643989 8.08765912 -51.3967846 8.09326349 -54.8671875 8.09765625 C-55.93113739 8.10281754 -56.99508728 8.10797882 -58.09127808 8.11329651 C-64.45658233 8.11376772 -70.68089727 7.77265358 -77 7 C-77 6.67 -77 6.34 -77 6 C-76.42387466 6.00444122 -75.84774933 6.00888245 -75.25416565 6.01345825 C-69.16906253 6.05826739 -63.08400746 6.08810079 -56.9987793 6.10986328 C-54.73834321 6.11982044 -52.47791966 6.13339103 -50.2175293 6.15087891 C-26.2179247 7.17982233 -26.2179247 7.17982233 -3.56640625 0.8046875 C-2 0 -2 0 0 0 Z " fill="#F0BA3E" transform="translate(315,253)"/>
<path d="M0 0 C6.40629424 -0.20852314 11.92972642 -0.1583195 18 2 C18 2.66 18 3.32 18 4 C20.475 4.495 20.475 4.495 23 5 C24.1590243 8.47707291 23.93080178 10.7968058 23.625 14.4375 C23.53476562 15.57058594 23.44453125 16.70367187 23.3515625 17.87109375 C22.6947666 23.71657727 21.64963006 26.09008381 17 30 C12.59236469 31.59164608 7.64180905 31.09101586 3 31 C3 30.67 3 30.34 3 30 C4.10408203 29.85304688 4.10408203 29.85304688 5.23046875 29.703125 C12.9415814 28.61422261 12.9415814 28.61422261 19 24 C21.36256159 19.94989442 21.71111728 15.59075715 21 11 C18.92668379 6.60456963 16.70613955 4.17973826 12.08203125 2.45703125 C8.08644198 1.57995068 4.06323113 1.77926109 0 2 C0 1.34 0 0.68 0 0 Z " fill="#F1C742" transform="translate(285,375)"/>
<path d="M0 0 C2.8519281 2.43636144 3.89120442 4.8005543 5.125 8.3125 C5.45757812 9.23675781 5.79015625 10.16101563 6.1328125 11.11328125 C8.21723545 18.05196845 8.13116225 24.77797018 8.09765625 31.9609375 C8.0962413 33.10664215 8.09482635 34.2523468 8.09336853 35.43276978 C8.0877858 39.08020678 8.07523641 42.72758165 8.0625 46.375 C8.05748277 48.85286369 8.05292025 51.33072835 8.04882812 53.80859375 C8.03782201 59.87241691 8.02110103 65.93620402 8 72 C7.67 72 7.34 72 7 72 C6.67 56.49 6.34 40.98 6 25 C5.67 25 5.34 25 5 25 C4.90912109 23.82244141 4.90912109 23.82244141 4.81640625 22.62109375 C4.37179786 17.04638852 3.87875357 11.52359384 3 6 C2.34 6 1.68 6 1 6 C0.67 4.02 0.34 2.04 0 0 Z " fill="#1A73A2" transform="translate(322,79)"/>
<path d="M0 0 C6.22913391 11.54269115 5.28564744 27.74571843 5.3125 40.4375 C5.32047607 42.28287354 5.32047607 42.28287354 5.32861328 44.16552734 C5.26405094 52.61639759 4.39307114 60.66948243 3 69 C2.67 69 2.34 69 2 69 C1.97284617 67.25008666 1.95353449 65.50005055 1.9375 63.75 C1.92589844 62.77546875 1.91429687 61.8009375 1.90234375 60.796875 C2 58 2 58 2.49780273 56.18481445 C3.11683116 53.49172481 3.12971833 51.00940598 3.1328125 48.24609375 C3.13474609 46.59383789 3.13474609 46.59383789 3.13671875 44.90820312 C3.13285156 43.76287109 3.12898438 42.61753906 3.125 41.4375 C3.12886719 40.28830078 3.13273437 39.13910156 3.13671875 37.95507812 C3.13542969 36.85486328 3.13414062 35.75464844 3.1328125 34.62109375 C3.13168457 33.6148999 3.13055664 32.60870605 3.12939453 31.57202148 C3.10924746 28.88080603 3.10924746 28.88080603 2 26 C1.74209367 22.786917 1.55803856 19.57999983 1.39453125 16.36132812 C1.23299665 12.55484783 1.23299665 12.55484783 0 9 C-0.06950541 7.45976004 -0.08452357 5.91665012 -0.0625 4.375 C-0.05347656 3.55773437 -0.04445313 2.74046875 -0.03515625 1.8984375 C-0.02355469 1.27195313 -0.01195312 0.64546875 0 0 Z " fill="#F2C73E" transform="translate(439,202)"/>
<path d="M0 0 C1.17661508 3.67692213 1.14475933 7.1638778 1 11 C0.67 11.33 0.34 11.66 0 12 C-0.12281952 13.62579218 -0.17782504 15.25677004 -0.20532227 16.88696289 C-0.22526749 17.92796646 -0.24521271 18.96897003 -0.26576233 20.04151917 C-0.28247482 21.1737944 -0.29918732 22.30606964 -0.31640625 23.47265625 C-0.33718735 24.62543564 -0.35796844 25.77821503 -0.37937927 26.96592712 C-0.44499964 30.66472157 -0.50381755 34.36358959 -0.5625 38.0625 C-0.60567335 40.56315879 -0.64928724 43.06381001 -0.69335938 45.56445312 C-0.80069368 51.70955662 -0.90243643 57.85473404 -1 64 C-1.33 64 -1.66 64 -2 64 C-2.04648099 56.6890466 -2.08194892 49.37812542 -2.10362434 42.06705379 C-2.11403106 38.67168368 -2.12813284 35.27641517 -2.15087891 31.88110352 C-2.1769042 27.97152959 -2.18649854 24.06199583 -2.1953125 20.15234375 C-2.20563507 18.94166733 -2.21595764 17.73099091 -2.22659302 16.48362732 C-2.22737263 10.59686682 -2.04535167 5.54509699 0 0 Z " fill="#1477B2" transform="translate(164,81)"/>
<path d="M0 0 C0 0.33 0 0.66 0 1 C-1.0669812 1.03758423 -1.0669812 1.03758423 -2.15551758 1.07592773 C-5.37469517 1.19188439 -8.59357985 1.31461245 -11.8125 1.4375 C-12.93205078 1.47681641 -14.05160156 1.51613281 -15.20507812 1.55664062 C-16.81479492 1.61948242 -16.81479492 1.61948242 -18.45703125 1.68359375 C-19.9416687 1.73858032 -19.9416687 1.73858032 -21.45629883 1.79467773 C-24.1218351 1.90790331 -24.1218351 1.90790331 -27 3 C-29.06587115 2.91426773 -31.12946525 2.76166465 -33.1875 2.5625 C-34.81751953 2.40974609 -34.81751953 2.40974609 -36.48046875 2.25390625 C-37.72763672 2.12822266 -37.72763672 2.12822266 -39 2 C-39 1.67 -39 1.34 -39 1 C-25.75448642 -1.22413421 -13.33862414 -1.34587919 0 0 Z " fill="#F4B53D" transform="translate(238,260)"/>
<path d="M0 0 C1.29886148 2.59772295 0.9586986 4.35763853 0.8125 7.25 C0.77250867 12.33556426 1.38267296 15.18714177 5 19 C7.60437233 20.41190564 7.60437233 20.41190564 10 21 C10 21.33 10 21.66 10 22 C8.02 22 6.04 22 4 22 C3.34 20.68 2.68 19.36 2 18 C1.01 18 0.02 18 -1 18 C-1 17.34 -1 16.68 -1 16 C-1.99 15.67 -2.98 15.34 -4 15 C-3.43179252 9.54520815 -2.05362055 5.08940744 0 0 Z " fill="#F9C01A" transform="translate(278,383)"/>
<path d="M0 0 C1 2 1 2 0.9375 3.875 C-0.46637773 7.05712286 -3.13991219 8.09327479 -6 10 C-7.34270821 11.99371825 -8.67653494 13.9934562 -10 16 C-12.5 17.75 -12.5 17.75 -15 19 C-15.763125 19.391875 -16.52625 19.78375 -17.3125 20.1875 C-17.869375 20.455625 -18.42625 20.72375 -19 21 C-19.66 20.34 -20.32 19.68 -21 19 C-20.29875 18.5153125 -19.5975 18.030625 -18.875 17.53125 C-11.73920083 12.48965276 -4.8930158 7.33952371 0 0 Z " fill="#F2BF24" transform="translate(337,233)"/>
<path d="M0 0 C0.66 0 1.32 0 2 0 C2.144375 1.093125 2.28875 2.18625 2.4375 3.3125 C2.88288104 6.93122987 2.88288104 6.93122987 4 10 C4 12.33333333 4 14.66666667 4 17 C4.33 17.33 4.66 17.66 5 18 C5.14115161 20.67058851 5.04247107 23.32432238 5 26 C2.6710553 22.50658295 2.09868008 19.29670083 1.375 15.25 C1.2409375 14.5590625 1.106875 13.868125 0.96875 13.15625 C0.14772589 8.69926197 -0.13045606 4.53038304 0 0 Z " fill="#1D75A9" transform="translate(48,277)"/>
<path d="M0 0 C0.433125 0.61875 0.86625 1.2375 1.3125 1.875 C2.99740483 4.2197245 2.99740483 4.2197245 6 6 C5.979375 6.886875 5.95875 7.77375 5.9375 8.6875 C6.00151133 12.08010026 6.35018482 12.93847699 8.0625 15.6875 C8.701875 16.780625 9.34125 17.87375 10 19 C9.67 19.99 9.34 20.98 9 22 C0 5.89320388 0 5.89320388 0 0 Z " fill="#1A76A9" transform="translate(55,311)"/>
<path d="M0 0 C0 0.66 0 1.32 0 2 C-0.99 2 -1.98 2 -3 2 C-3.0825 2.78375 -3.165 3.5675 -3.25 4.375 C-4 7 -4 7 -5.75 8.125 C-6.4925 8.41375 -7.235 8.7025 -8 9 C-8.845625 9.53625 -9.69125 10.0725 -10.5625 10.625 C-13 12 -13 12 -16 12 C-4.52427184 0 -4.52427184 0 0 0 Z " fill="#EFBD32" transform="translate(187,267)"/>
<path d="M0 0 C0.33 0 0.66 0 1 0 C1.08074203 2.62561109 1.1403623 5.24875676 1.1875 7.875 C1.22520508 8.99455078 1.22520508 8.99455078 1.26367188 10.13671875 C1.29296875 12.3046875 1.29296875 12.3046875 1 16 C0.01 16.66 -0.98 17.32 -2 18 C-3.32 17.34 -4.64 16.68 -6 16 C-5.360625 15.21625 -4.72125 14.4325 -4.0625 13.625 C-1.47086848 10.32655988 -0.84708767 8.4708767 -0.4375 4.375 C-0.35371094 3.55773437 -0.26992187 2.74046875 -0.18359375 1.8984375 C-0.12300781 1.27195312 -0.06242188 0.64546875 0 0 Z " fill="#0E71AF" transform="translate(213,105)"/>
<path d="M0 0 C0 3.65100394 -1.0447585 5.10121798 -2.9375 8.1875 C-3.48277344 9.08855469 -4.02804688 9.98960937 -4.58984375 10.91796875 C-5.05519531 11.60503906 -5.52054688 12.29210937 -6 13 C-6.33 13 -6.66 13 -7 13 C-6.67 10.03 -6.34 7.06 -6 4 C-5.01 3.67 -4.02 3.34 -3 3 C-3 2.34 -3 1.68 -3 1 C-2.01 0.67 -1.02 0.34 0 0 Z " fill="#156FAC" transform="translate(154,264)"/>
<path d="M0 0 C2.71567296 2.71567296 3.24031242 5.76406108 4.1875 9.375 C4.47270508 10.38433594 4.47270508 10.38433594 4.76367188 11.4140625 C5.69373485 14.90094068 6.37823351 17.57636262 5 21 C3 13.375 3 13.375 3 10 C2.01 9.67 1.02 9.34 0 9 C0 6.03 0 3.06 0 0 Z " fill="#F2BF38" transform="translate(433,181)"/>
<path d="M0 0 C0.33 0 0.66 0 1 0 C1 5.28 1 10.56 1 16 C0.34 16 -0.32 16 -1 16 C-2.46322678 13.07354643 -1.88789453 10.67394481 -1.625 7.4375 C-1.53476562 6.26058594 -1.44453125 5.08367187 -1.3515625 3.87109375 C-1 1 -1 1 0 0 Z " fill="#0F76A8" transform="translate(329,177)"/>
<path d="M0 0 C-2.07772471 0.86772029 -4.16243177 1.71873619 -6.25 2.5625 C-7.99023438 3.27599609 -7.99023438 3.27599609 -9.765625 4.00390625 C-12.86266644 4.95770524 -14.07321701 5.20983356 -17 4 C-11.73199161 -0.0827065 -6.70896392 -2.23632131 0 0 Z " fill="#F4C32F" transform="translate(408,328)"/>
<path d="M0 0 C5.27112904 2.79692561 9.59398317 5.98235547 14 10 C11.3294087 10 9.53531955 9.69145079 7 9 C6.2575 8.814375 5.515 8.62875 4.75 8.4375 C3.88375 8.2209375 3.88375 8.2209375 3 8 C3.66 6.68 4.32 5.36 5 4 C2.525 3.01 2.525 3.01 0 2 C0 1.34 0 0.68 0 0 Z " fill="#F0C131" transform="translate(407,149)"/>
<path d="M0 0 C0 4.50204221 -1.49577785 8.03189348 -3.5625 12 C-5.02905471 15.06063592 -5.60083318 17.64699875 -6 21 C-6.33 21 -6.66 21 -7 21 C-7.80043111 13.95620622 -5.12271278 8.2359628 -2 2 C-1.34 1.34 -0.68 0.68 0 0 Z " fill="#ECC036" transform="translate(169,282)"/>
<path d="M0 0 C0.33 0.99 0.66 1.98 1 3 C1.66 3 2.32 3 3 3 C3.0810206 5.10353495 3.13919907 7.20795952 3.1875 9.3125 C3.22230469 10.48425781 3.25710938 11.65601563 3.29296875 12.86328125 C3 16 3 16 0 19 C0 12.73 0 6.46 0 0 Z " fill="#126EA5" transform="translate(254,147)"/>
<path d="M0 0 C1.32 0 2.64 0 4 0 C6.25 2.5 6.25 2.5 8 5 C6.84371094 5.19916016 6.84371094 5.19916016 5.6640625 5.40234375 C4.66117188 5.57894531 3.65828125 5.75554687 2.625 5.9375 C1.12839844 6.19853516 1.12839844 6.19853516 -0.3984375 6.46484375 C-2.96909656 6.87712062 -2.96909656 6.87712062 -5 8 C-4 5 -4 5 -1.9375 3.8125 C-1.298125 3.544375 -0.65875 3.27625 0 3 C0 2.01 0 1.02 0 0 Z " fill="#1171AB" transform="translate(194,90)"/>
<path d="M0 0 C-4.64203897 2.53309233 -8.65155992 4.46515599 -14 5 C-13.67 4.01 -13.34 3.02 -13 2 C-11.68 2 -10.36 2 -9 2 C-9 1.34 -9 0.68 -9 0 C-3.375 -1.125 -3.375 -1.125 0 0 Z " fill="#F4C32E" transform="translate(311,436)"/>
<path d="M0 0 C0.33 0 0.66 0 1 0 C1.44680851 8.78723404 1.44680851 8.78723404 -2 13 C-2.99 13.33 -3.98 13.66 -5 14 C-3.46527032 9.27775484 -1.76054874 4.64144669 0 0 Z " fill="#F4BE2D" transform="translate(346,214)"/>
<path d="M0 0 C3.91402949 1.26941497 5.79072873 2.51167694 8 6 C1.25 6.125 1.25 6.125 -1 5 C-0.67 3.35 -0.34 1.7 0 0 Z " fill="#0E74AB" transform="translate(307,64)"/>
<path d="M0 0 C0.66 0 1.32 0 2 0 C2.33 0.99 2.66 1.98 3 3 C1.8803014 4.00593243 0.7540588 5.0045849 -0.375 6 C-1.00148438 6.556875 -1.62796875 7.11375 -2.2734375 7.6875 C-4 9 -4 9 -6 9 C-6 8.34 -6 7.68 -6 7 C-5.34 7 -4.68 7 -4 7 C-3.67 5.68 -3.34 4.36 -3 3 C-3 3.66 -3 4.32 -3 5 C-2.34 5 -1.68 5 -1 5 C-0.67 3.35 -0.34 1.7 0 0 Z " fill="#F3C325" transform="translate(317,426)"/>
<path d="M0 0 C0.66 0.66 1.32 1.32 2 2 C3.32 2.33 4.64 2.66 6 3 C2.04 4.65 -1.92 6.3 -6 8 C-4.768606 4.30581799 -2.79208646 2.64890254 0 0 Z " fill="#1977AD" transform="translate(178,241)"/>
<path d="M0 0 C0.33 0.66 0.66 1.32 1 2 C0.0625 4.625 0.0625 4.625 -1 7 C-0.34 7 0.32 7 1 7 C0.67 7.99 0.34 8.98 0 10 C-1.65 10.33 -3.3 10.66 -5 11 C-3.77472971 6.94718288 -2.30119506 3.55639236 0 0 Z " fill="#1A75AB" transform="translate(61,191)"/>
<path d="M0 0 C1.32 0.33 2.64 0.66 4 1 C-3.11389522 7.70387244 -3.11389522 7.70387244 -8 8 C-5.77967934 4.61108952 -3.49901159 2.9859255 0 1 C0 0.67 0 0.34 0 0 Z " fill="#F3C132" transform="translate(416,319)"/>
<path d="M0 0 C1 2 1 2 0.9375 3.875 C-0.97810888 8.2170468 -5.91195354 9.99588178 -10 12 C-9.61328125 11.55269531 -9.2265625 11.10539063 -8.828125 10.64453125 C-5.81609925 7.1478974 -2.85678969 3.62592537 0 0 Z " fill="#EEBC36" transform="translate(337,233)"/>
<path d="M0 0 C2.11180592 2.57089417 3.66306057 4.63060567 4 8 C3.34 8.66 2.68 9.32 2 10 C2 9.34 2 8.68 2 8 C1.34 8 0.68 8 0 8 C-1.125 5.6875 -1.125 5.6875 -2 3 C-1.34 2.01 -0.68 1.02 0 0 Z " fill="#F7BF17" transform="translate(340,228)"/>
<path d="M0 0 C3.2626876 3.08632611 6.02235218 5.93483504 8 10 C7.67 10.66 7.34 11.32 7 12 C5.0625 11.3125 5.0625 11.3125 3 10 C2.375 7.6875 2.375 7.6875 2 5 C1.36562656 3.3207762 0.70710678 1.64991582 0 0 Z " fill="#F2C435" transform="translate(421,160)"/>
<path d="M0 0 C0 0.66 0 1.32 0 2 C-1.96147874 3.38938077 -3.96166576 4.7260411 -6 6 C-6.99 5.34 -7.98 4.68 -9 4 C-2.25 0 -2.25 0 0 0 Z M-8 6 C-7.01 6.495 -7.01 6.495 -6 7 C-6.99 7.495 -6.99 7.495 -8 8 C-8 7.34 -8 6.68 -8 6 Z " fill="#1773A8" transform="translate(86,171)"/>
<path d="M0 0 C4 4 4 4 5.5625 5.625 C7.15839731 7.23146885 7.15839731 7.23146885 10 9 C8.02 9 6.04 9 4 9 C3.71125 8.360625 3.4225 7.72125 3.125 7.0625 C2.17176549 4.84793921 2.17176549 4.84793921 0 4 C0 2.68 0 1.36 0 0 Z " fill="#EFC831" transform="translate(278,396)"/>
<path d="M0 0 C1.65 0 3.3 0 5 0 C5.99 2.31 6.98 4.62 8 7 C4.2047869 5.50902342 2.38957269 3.24299151 0 0 Z " fill="#1773AA" transform="translate(69,339)"/>
<path d="M0 0 C-0.804375 0.45375 -1.60875 0.9075 -2.4375 1.375 C-5.08856572 2.74725665 -5.08856572 2.74725665 -6 5 C-8.97 4.505 -8.97 4.505 -12 4 C-8.15336308 0.86570325 -4.95471579 -1.65157193 0 0 Z " fill="#F0BD36" transform="translate(199,263)"/>
<path d="M0 0 C-1.55500981 3.81684226 -4.03595495 6.19195732 -7 9 C-7.33 7.68 -7.66 6.36 -8 5 C-7.01 5 -6.02 5 -5 5 C-5 4.34 -5 3.68 -5 3 C-2.46153846 0 -2.46153846 0 0 0 Z " fill="#1974A6" transform="translate(323,215)"/>
<path d="M0 0 C4.82360189 -0.19294408 8.49646738 0.24252386 13 2 C10.58959839 3.53690745 9.49917715 4.09752136 6.640625 3.5390625 C5.85171875 3.23742187 5.0628125 2.93578125 4.25 2.625 C3.45078125 2.32851562 2.6515625 2.03203125 1.828125 1.7265625 C1.22484375 1.48679688 0.6215625 1.24703125 0 1 C0 0.67 0 0.34 0 0 Z " fill="#F4C637" transform="translate(393,146)"/>
<path d="M0 0 C1.18391699 3.69974059 1.27585754 7.13799438 1 11 C-0.5 13.4375 -0.5 13.4375 -2 15 C-2.19392201 9.47322267 -1.7479503 5.24385089 0 0 Z " fill="#1C75A9" transform="translate(164,81)"/>
<path d="M0 0 C0.99 0.33 1.98 0.66 3 1 C3.6875 3.0625 3.6875 3.0625 4 5 C4.99 4.67 5.98 4.34 7 4 C6.67 5.65 6.34 7.3 6 9 C2.91910327 6.22719294 1.31224548 3.93673644 0 0 Z " fill="#F2C232" transform="translate(167,418)"/>
<path d="M0 0 C1.60379341 -0.05416188 3.20811406 -0.09286638 4.8125 -0.125 C5.70582031 -0.14820313 6.59914062 -0.17140625 7.51953125 -0.1953125 C10 0 10 0 13 2 C8.15507803 3.51403812 4.7408989 2.36602172 0 1 C0 0.67 0 0.34 0 0 Z " fill="#F8BD18" transform="translate(238,260)"/>
<path d="M0 0 C2.475 0.495 2.475 0.495 5 1 C3.63016497 4.16115776 3.0109362 4.9927092 0 7 C0 4.69 0 2.38 0 0 Z " fill="#1571AC" transform="translate(155,257)"/>
<path d="M0 0 C2.64 1.65 5.28 3.3 8 5 C4.52176885 6.15941038 2.54104422 5.70820884 -1 5 C-0.67 3.35 -0.34 1.7 0 0 Z " fill="#136EAB" transform="translate(186,118)"/>
<path d="M0 0 C2.31 0.33 4.62 0.66 7 1 C7 2.65 7 4.3 7 6 C3.63279613 4.60667426 2.0140476 3.0210714 0 0 Z " fill="#F1C52D" transform="translate(173,427)"/>
<path d="M0 0 C1.9375 0.3125 1.9375 0.3125 4 1 C5 4 5 4 4 7 C3.34 7 2.68 7 2 7 C1.34 4.69 0.68 2.38 0 0 Z " fill="#F4C223" transform="translate(304,379)"/>
<path d="M0 0 C0.66 0 1.32 0 2 0 C2 1.32 2 2.64 2 4 C2.66 4 3.32 4 4 4 C3.34 5.32 2.68 6.64 2 8 C0 6 0 6 -0.125 2.875 C-0.08375 1.92625 -0.0425 0.9775 0 0 Z " fill="#F9BD1A" transform="translate(422,308)"/>
<path d="M0 0 C1.98 0 3.96 0 6 0 C5.01 1.485 5.01 1.485 4 3 C3.34 3 2.68 3 2 3 C1.67 3.99 1.34 4.98 1 6 C-0.0625 4.125 -0.0625 4.125 -1 2 C-0.67 1.34 -0.34 0.68 0 0 Z " fill="#F7C128" transform="translate(279,377)"/>
<path d="M0 0 C-2.64 1.98 -5.28 3.96 -8 6 C-8.33 5.34 -8.66 4.68 -9 4 C-8.34 3.67 -7.68 3.34 -7 3 C-6.67 2.01 -6.34 1.02 -6 0 C-3.42525708 -0.99667468 -2.51072708 -1.25536354 0 0 Z " fill="#1D76A2" transform="translate(169,252)"/>
<path d="M0 0 C0.33 0 0.66 0 1 0 C1 3.96 1 7.92 1 12 C0.01 12.33 -0.98 12.66 -2 13 C-1.34 8.71 -0.68 4.42 0 0 Z " fill="#2274A4" transform="translate(213,105)"/>
<path d="M0 0 C0.99 0 1.98 0 3 0 C1.92598892 2.91517292 1.22189824 4.77810176 -1 7 C-1.33 5.35 -1.66 3.7 -2 2 C-1.34 2 -0.68 2 0 2 C0 1.34 0 0.68 0 0 Z " fill="#F0C22A" transform="translate(428,305)"/>
</svg>
