<?xml version="1.0" encoding="UTF-8"?>
<svg version="1.1" xmlns="http://www.w3.org/2000/svg" width="500" height="500">
<path d="M0 0 C1.99370303 1.67441246 3.99598194 3.3379138 6 5 C9.56178985 3.47584736 11.90321844 1.35813741 14.6875 -1.3125 C38.86977475 -23.80667235 70.86357173 -45.57948463 105.0390625 -45.27734375 C114.75799289 -44.59682693 122.80599156 -41.53855433 130 -35 C130.58007812 -34.54496094 131.16015625 -34.08992188 131.7578125 -33.62109375 C145.71067426 -21.63915192 149.24267571 0.08495836 150.6875 17.3828125 C152.34733713 40.32817462 148.48824811 62.5908713 144 85 C144.64622314 85.20455811 145.29244629 85.40911621 145.95825195 85.61987305 C159.17599394 89.86018318 171.86300562 94.54862225 184.375 100.5625 C185.45950439 101.07965576 186.54400879 101.59681152 187.66137695 102.12963867 C199.08821691 107.75122563 209.23853831 114.85993364 219 123 C219.69867188 123.55171875 220.39734375 124.1034375 221.1171875 124.671875 C230.61381168 132.43176246 237.66229272 143.19831773 241 155 C242.41632321 169.68503536 239.56041772 181.42715943 230.3359375 193.2578125 C210.15821776 216.94470089 183.41772508 229.43389361 154.67675781 239.9921875 C151.40005251 241.22588318 148.19898764 242.57822772 145 244 C145.26554687 245.258125 145.53109375 246.51625 145.8046875 247.8125 C146.16178412 249.54159942 146.51853593 251.27077007 146.875 253 C147.13603516 254.22976563 147.13603516 254.22976563 147.40234375 255.484375 C150.14306684 268.88346564 151.35500829 282.06138404 151.31567383 295.70898438 C151.31250114 297.99917786 151.33614945 300.28808825 151.36132812 302.578125 C151.45062753 323.10805814 147.36405225 345.81018974 132.8359375 361.30859375 C122.33733275 371.13976143 110.95628045 373.72163585 96.921875 373.37109375 C64.78122148 371.57770145 35.78746113 348.86430302 13 328 C11.93458984 326.80503906 11.93458984 326.80503906 10.84765625 325.5859375 C9.1611299 323.79906638 9.1611299 323.79906638 7.06640625 323.95703125 C4.17267639 325.41757165 2.24699976 327.41123045 -0.0625 329.6875 C-19.58603605 348.27853155 -44.00000114 363.57572287 -70 371 C-71.28583984 371.36931641 -71.28583984 371.36931641 -72.59765625 371.74609375 C-85.80234775 374.94255496 -100.04247077 374.00914464 -111.96875 367.33984375 C-127.47437311 356.96726346 -133.07274413 340.58437293 -136.62402344 323.10400391 C-140.70566127 300.26273455 -140.55804618 265.11609236 -130 244 C-130.55042969 243.87625 -131.10085937 243.7525 -131.66796875 243.625 C-157.64621884 237.18078292 -183.81946064 224.67728716 -204 207 C-204.85207031 206.30390625 -205.70414063 205.6078125 -206.58203125 204.890625 C-216.35412677 196.66465212 -225.57684789 184.84937538 -228 172 C-229.10267634 154.7729417 -225.22401889 143.23803369 -213.875 130.0625 C-192.36184867 106.94388962 -161.05197423 93.16986731 -131 85 C-131.12044678 84.34950684 -131.24089355 83.69901367 -131.36499023 83.02880859 C-137.61974683 48.97613957 -137.61974683 48.97613957 -138 36 C-138.02578125 35.32404785 -138.0515625 34.6480957 -138.078125 33.95166016 C-138.8937202 10.51859069 -136.09402823 -15.29070842 -119.6875 -33.40625 C-83.88307588 -67.22153945 -28.05230685 -24.19224827 0 0 Z M-107.3984375 -14.49609375 C-115.45137094 -1.94530237 -116.41195441 12.63822362 -116.375 27.125 C-116.37545319 27.81854584 -116.37590637 28.51209167 -116.37637329 29.22665405 C-116.34326491 46.61353325 -113.80995849 63.28777592 -109 80 C-102.8686766 79.08197959 -96.74633451 78.13519116 -90.63671875 77.08203125 C-89.6732251 76.91727295 -88.70973145 76.75251465 -87.71704102 76.58276367 C-85.67632528 76.23231116 -83.63645491 75.87690422 -81.59741211 75.5168457 C-76.20805996 74.59308795 -70.88458968 73.86205713 -65.4296875 73.4609375 C-54.55749669 72.95480115 -54.55749669 72.95480115 -44.8125 68.7890625 C-42.49661084 65.98265515 -40.76670267 63.1768599 -39 60 C-37.52660525 57.98031985 -36.02589847 55.98031155 -34.5 54 C-33.75363281 52.99710937 -33.00726563 51.99421875 -32.23828125 50.9609375 C-24.9284683 41.29106277 -16.91519456 32.17412567 -9 23 C-16.36769574 5.18798833 -47.19699578 -10.0630045 -64.1640625 -17.4921875 C-78.33440433 -23.30809961 -96.45952149 -28.10730203 -107.3984375 -14.49609375 Z M22 21 C24.1574109 24.88892515 26.64398779 27.95287242 29.6875 31.1875 C37.80012614 39.99081148 44.92119209 49.48426411 52.0703125 59.0703125 C52.56329834 59.71025146 53.05628418 60.35019043 53.56420898 61.00952148 C55 63 55 63 56.20336914 65.19555664 C58.33702954 68.80413886 59.86356083 70.64330741 63.94335938 71.92382812 C67.01487637 72.4158924 70.0612825 72.78380009 73.16220093 73.0279541 C76.62566671 73.30079369 80.07700266 73.68911584 83.53125 74.05859375 C84.23460983 74.13030792 84.93796967 74.20202209 85.66264343 74.27590942 C94.07484297 75.15886711 102.32431907 76.79147704 110.61987305 78.42651367 C111.66699463 78.63123291 112.71411621 78.83595215 113.79296875 79.046875 C114.7058667 79.23088867 115.61876465 79.41490234 116.55932617 79.60449219 C119.2459968 80.1066413 119.2459968 80.1066413 123 80 C126.79504676 63.05124748 129.16865799 46.829965 129.3125 29.4375 C129.33022461 28.1474707 129.34794922 26.85744141 129.36621094 25.52832031 C129.35384882 9.30509954 126.86323784 -7.98466937 115 -20 C87.19292163 -38.72721604 40.69325263 3.85120414 22 21 Z M2.5625 41.125 C-2.19471594 45.9861988 -6.28528976 51.32308694 -10.43359375 56.69921875 C-13.16984881 60.24220248 -16.04086465 63.6409815 -19 67 C-18.67 67.66 -18.34 68.32 -18 69 C-1.17 69 15.66 69 33 69 C21.34361628 52.80120956 21.34361628 52.80120956 8 38 C5.17621357 38 4.55148573 39.14841959 2.5625 41.125 Z M-19.8125 89.375 C-20.74247803 89.40577637 -21.67245605 89.43655273 -22.63061523 89.46826172 C-30.01735964 89.78497663 -30.01735964 89.78497663 -37 92 C-39.29605594 94.51088933 -40.93173831 97.30981511 -42.625 100.25 C-43.13442139 101.09699463 -43.64384277 101.94398926 -44.16870117 102.81665039 C-45.25027183 104.62168741 -46.32223779 106.43250914 -47.38525391 108.24853516 C-48.94393075 110.90446017 -50.53459064 113.5380792 -52.13671875 116.16796875 C-58.09782615 126.01395642 -63.77754547 136.02033791 -69.28768921 146.12478638 C-69.96547912 147.36501617 -70.6472453 148.60308201 -71.3331604 149.83883667 C-72.29338278 151.57309632 -73.23494514 153.3176473 -74.17578125 155.0625 C-74.72145752 156.06410156 -75.26713379 157.06570312 -75.8293457 158.09765625 C-77.5637941 162.39778608 -77.59552786 165.42863399 -75.95288086 169.76293945 C-75.46182861 170.70355225 -74.97077637 171.64416504 -74.46484375 172.61328125 C-73.91038574 173.68392822 -73.35592773 174.7545752 -72.78466797 175.85766602 C-72.17510254 176.99776123 -71.56553711 178.13785645 -70.9375 179.3125 C-70.30345429 180.514192 -69.66950398 181.71593435 -69.03564453 182.91772461 C-54.47567011 212.19299696 -54.47567011 212.19299696 -35 238 C-32.26457149 238.2452215 -29.55424142 238.42403297 -26.8125 238.5546875 C-25.96534424 238.59673309 -25.11818848 238.63877869 -24.24536133 238.68209839 C-15.10178984 239.09778165 -5.96311809 239.15107606 3.18847656 239.13037109 C5.99810171 239.12500363 8.80756709 239.13036214 11.6171875 239.13671875 C20.65167862 239.14046537 29.66338169 239.00738977 38.6875 238.5546875 C39.88185669 238.49657394 39.88185669 238.49657394 41.1003418 238.43728638 C44.27040322 238.25871159 46.97285199 238.00904934 50 237 C51.40946221 235.27274731 51.40946221 235.27274731 52.6796875 233.08203125 C53.18959229 232.2513916 53.69949707 231.42075195 54.22485352 230.56494141 C54.76940186 229.65663574 55.3139502 228.74833008 55.875 227.8125 C56.44726318 226.87067871 57.01952637 225.92885742 57.60913086 224.95849609 C59.41514398 221.97769774 61.20758403 218.98898928 63 216 C64.10785746 214.17304642 65.21592428 212.34621976 66.32421875 210.51953125 C73.64228074 198.37330644 80.35205658 185.97642407 86.76416016 173.32983398 C88 171 88 171 89.71630859 168.57836914 C91.40029027 165.19599362 91.02097472 163.598972 90 160 C88.78283144 157.15037992 88.78283144 157.15037992 87.19140625 154.32421875 C86.61438965 153.2576001 86.03737305 152.19098145 85.44287109 151.09204102 C84.82234863 149.96854248 84.20182617 148.84504395 83.5625 147.6875 C82.91972074 146.51183625 82.27730834 145.33597186 81.63525391 144.15991211 C73.40993386 129.14353206 64.70411928 114.42695864 55.35302734 100.08105469 C54.46175942 98.71021965 53.59154107 97.32543111 52.74462891 95.92675781 C50.86754066 92.98655981 49.65770019 91.2189175 46.2890625 90.09765625 C45.20367187 90.06542969 44.11828125 90.03320312 43 90 C41.52861236 89.89499924 40.05726153 89.78948216 38.5859375 89.68359375 C19.13136582 88.69639764 -0.34726248 88.64499434 -19.8125 89.375 Z M77 94 C78.48766483 98.09107828 80.47536207 101.60552427 82.75 105.3125 C87.10857594 112.47016141 91.34643666 119.695081 95.5625 126.9375 C96.19446289 128.02264893 96.82642578 129.10779785 97.47753906 130.22583008 C98.985796 132.81677337 100.49331553 135.40814206 102 138 C104.41900684 135.04112525 105.8488647 132.24668734 107.19140625 128.67578125 C107.57876953 127.64646484 107.96613281 126.61714844 108.36523438 125.55664062 C108.76033203 124.48607422 109.15542969 123.41550781 109.5625 122.3125 C110.16094727 120.7356543 110.16094727 120.7356543 110.77148438 119.12695312 C113.00845599 113.12559521 114.78176155 107.28874442 116 101 C111.84499975 99.52588498 107.80257904 98.48873831 103.46484375 97.7109375 C102.24345703 97.49179688 101.02207031 97.27265625 99.76367188 97.046875 C98.50103516 96.82515625 97.23839844 96.6034375 95.9375 96.375 C94.67099609 96.14554688 93.40449219 95.91609375 92.09960938 95.6796875 C84.59736375 94.30986866 84.59736375 94.30986866 77 94 Z M-82.9375 96.375 C-84.83145508 96.70757812 -84.83145508 96.70757812 -86.76367188 97.046875 C-88.59575195 97.37558594 -88.59575195 97.37558594 -90.46484375 97.7109375 C-91.574646 97.90993652 -92.68444824 98.10893555 -93.82788086 98.31396484 C-96.985889 98.99694821 -99.9570791 99.92042957 -103 101 C-100.90764059 109.49987325 -98.01588533 117.54879919 -94.8125 125.6875 C-94.34908203 126.87794922 -93.88566406 128.06839844 -93.40820312 129.29492188 C-92.27705913 132.19858016 -91.14092093 135.10017264 -90 138 C-87.30494463 135.46184488 -85.31363337 133.14054797 -83.58984375 129.8671875 C-83.16227783 129.06909668 -82.73471191 128.27100586 -82.29418945 127.44873047 C-81.84648193 126.59939941 -81.39877441 125.75006836 -80.9375 124.875 C-76.67271175 116.92701874 -72.16604732 109.1906278 -67.35327148 101.56201172 C-64.88800628 98.05050702 -64.88800628 98.05050702 -64 94 C-70.43726254 93.80391085 -76.62870398 95.23203237 -82.9375 96.375 Z M137 106 C136.75991211 106.73186523 136.51982422 107.46373047 136.27246094 108.21777344 C135.11097347 111.73283007 133.93477717 115.24274173 132.75 118.75 C132.53323608 119.39349396 132.31647217 120.03698792 132.09313965 120.69998169 C129.5364377 128.24435383 126.81555988 135.6611721 123.59375 142.94921875 C123.31412415 143.58322601 123.03449829 144.21723328 122.74639893 144.87045288 C121.39043314 147.92485237 120.00488497 150.95978909 118.58496094 153.98535156 C118.08770508 155.08202148 117.59044922 156.17869141 117.078125 157.30859375 C116.62856445 158.26564209 116.17900391 159.22269043 115.71582031 160.20874023 C114.78594765 163.83467276 115.53948948 165.59597768 117 169 C117.53367187 170.25321045 117.53367187 170.25321045 118.078125 171.53173828 C118.46484375 172.36946777 118.8515625 173.20719727 119.25 174.0703125 C126.3960359 189.79264025 132.41523867 205.67122163 138 222 C165.40645639 215.14416641 200.86409162 201.21763723 216.3984375 175.703125 C219.03021468 170.58889132 221.02145933 165.77124521 220 160 C212.6602207 138.91317504 190.90602947 127.53727227 171.953125 118.35205078 C160.75269351 113.22407545 149.02187365 108.7458244 137 106 Z M-191 138 C-191.83015625 138.62390625 -192.6603125 139.2478125 -193.515625 139.890625 C-196.23796055 142.20204198 -198.12223536 144.59185172 -200.1875 147.5 C-201.19876953 148.90765625 -201.19876953 148.90765625 -202.23046875 150.34375 C-205.76226178 155.64533777 -207.76683721 160.75984134 -206.6015625 167.203125 C-201.11101651 185.67719738 -183.95264431 197.13857825 -167.96362305 206.04003906 C-146.91936945 217.83252122 -146.91936945 217.83252122 -124 223 C-123.72438232 222.1970752 -123.44876465 221.39415039 -123.16479492 220.56689453 C-121.84832124 216.74963647 -120.5211199 212.93629595 -119.1875 209.125 C-118.94511597 208.43093048 -118.70273193 207.73686096 -118.45300293 207.02175903 C-114.53607758 195.85060686 -110.2024302 184.96728605 -105.26635742 174.20166016 C-104.82267822 173.20569824 -104.37899902 172.20973633 -103.921875 171.18359375 C-103.52581055 170.32306396 -103.12974609 169.46253418 -102.72167969 168.57592773 C-101.31675262 163.56125064 -103.10463535 159.3063908 -105.15234375 154.7109375 C-105.59473389 153.69950684 -106.03712402 152.68807617 -106.49291992 151.64599609 C-107.20798706 150.02685303 -107.20798706 150.02685303 -107.9375 148.375 C-113.96627092 134.46798264 -119.06405648 120.3263937 -124 106 C-145.04813646 106 -175.50150592 124.80271345 -191 138 Z M102 189 C101.30390625 190.37091797 101.30390625 190.37091797 100.59375 191.76953125 C93.76069504 205.02640502 86.11207752 217.78294298 78.43945312 230.56420898 C77.58094747 232.0169415 76.75464743 233.49070514 76 235 C97.09261924 232.03135994 97.09261924 232.03135994 118 228 C113.53127414 214.74743488 108.58453549 201.8226737 103 189 C102.67 189 102.34 189 102 189 Z M-90 191 C-98.80496839 209.4574453 -98.80496839 209.4574453 -103 229 C-98.58505297 229.82202799 -94.16777739 230.6308334 -89.75 231.4375 C-88.51507813 231.66759766 -87.28015625 231.89769531 -86.0078125 232.13476562 C-78.3449068 233.52618798 -70.77483558 234.52511146 -63 235 C-67.19512512 227.19489224 -71.5719032 219.51339327 -76.0625 211.875 C-80.12327776 204.95987576 -84.14681182 198.03336906 -88 191 C-88.66 191 -89.32 191 -90 191 Z M-110 249 C-119.84386231 295.5957409 -119.84386231 295.5957409 -108.4921875 340.875 C-105.29910097 345.4222227 -101.3031307 349.23228977 -96 351 C-66.55389156 353.51983813 -41.26944854 336.25774945 -19.5546875 318.18359375 C-15.65083717 314.84681648 -11.80547114 311.44841459 -8 308 C-9.54326422 304.37958555 -11.73902705 301.96595232 -14.4375 299.125 C-20.38073718 292.73626392 -25.69530826 285.92079205 -31 279 C-31.56251465 278.2678125 -32.1250293 277.535625 -32.70458984 276.78125 C-43.85735095 262.25843543 -43.85735095 262.25843543 -45.18237305 259.85791016 C-47.93197941 257.04736557 -51.0916853 257.03750524 -54.83203125 256.65625 C-56.00298843 256.51433479 -56.00298843 256.51433479 -57.19760132 256.36955261 C-58.86898741 256.16849427 -60.54133154 255.97527367 -62.21444702 255.78915405 C-66.5456277 255.30710905 -70.8700394 254.77033447 -75.1953125 254.23828125 C-76.0456456 254.13514114 -76.8959787 254.03200104 -77.77207947 253.92573547 C-86.32923447 252.872173 -94.77233528 251.35852357 -103.23046875 249.69921875 C-106.85264185 248.90880943 -106.85264185 248.90880943 -110 249 Z M115.46484375 249.20703125 C114.09547578 249.46560835 112.72600512 249.72364207 111.35644531 249.98120117 C110.63509399 250.11706635 109.91374268 250.25293152 109.17053223 250.39291382 C96.70141312 252.73585809 84.30274992 254.80330718 71.65600586 255.97387695 C63.69158552 256.74559012 63.69158552 256.74559012 57.62011719 261.67211914 C56.02084223 263.80701019 54.50642858 265.98616828 53 268.1875 C46.71479004 277.13083189 39.99366759 285.60493802 33 294 C31.98687854 295.2212707 30.97385497 296.44262261 29.9609375 297.6640625 C27.64794283 300.44886205 25.32681501 303.22673065 23 306 C30.85052225 325.2096578 64.01769551 340.38687648 82 348 C82.88945312 348.38285156 83.77890625 348.76570313 84.6953125 349.16015625 C89.97210491 351.08305518 95.1870122 351.28985223 100.75 351.375 C101.471875 351.38917969 102.19375 351.40335937 102.9375 351.41796875 C108.65006038 351.36507467 112.56468133 350.03351559 116.94140625 346.37890625 C132.15348442 329.33404758 131.0764459 304.38657799 130 283 C129.02419256 271.18740068 126.73053896 259.52248711 124 248 C121.07481324 248 118.33765985 248.65689317 115.46484375 249.20703125 Z M-19 260 C-13.96956251 266.7122123 -13.96956251 266.7122123 -8.75 273.25 C-7.99332031 274.16910156 -7.23664063 275.08820313 -6.45703125 276.03515625 C-2.31557822 281.03255347 1.8372448 286.02033668 6 291 C16.27775524 286.62794822 28.07548931 269.84902139 33 260 C15.84 260 -1.32 260 -19 260 Z " fill="#06D7FC" transform="translate(243,86)"/>
<path d="M0 0 C0.969375 0.680625 1.93875 1.36125 2.9375 2.0625 C10.75117507 8.74524842 15.51521176 18.8674288 16.3125 28.953125 C16.82242506 41.63165176 14.20689802 52.016162 6 62 C-1.76361496 70.38531069 -11.1372536 75.4797966 -22.6015625 76.23828125 C-35.72552371 76.60129829 -45.85315752 73.80066105 -56 65 C-64.58608119 56.17665232 -68.86330107 46.53141844 -69.1875 34.25 C-68.98681964 22.04498509 -65.23628852 12.18495153 -56.8125 3.1875 C-40.6229923 -11.94440167 -17.77571459 -13.03552403 0 0 Z " fill="#02D7FD" transform="translate(276,216)"/>
<path d="M0 0 C0.33 0 0.66 0 1 0 C1.19778547 1.85309773 1.38269708 3.70757111 1.5625 5.5625 C1.66691406 6.59503906 1.77132812 7.62757812 1.87890625 8.69140625 C2 12 2 12 1.51367188 15.02148438 C0.76496058 19.98938917 0.87625886 24.95163366 0.90234375 29.96484375 C0.9037587 30.99815323 0.90517365 32.03146271 0.90663147 33.09608459 C0.91220161 36.3765866 0.92474859 39.65701883 0.9375 42.9375 C0.94251886 45.16992089 0.94708109 47.40234285 0.95117188 49.63476562 C0.96216125 55.08986731 0.9788695 60.54492867 1 66 C0.67 66 0.34 66 0 66 C-3.48284778 43.44602454 -3.97751665 22.46823395 0 0 Z " fill="#35D7F4" transform="translate(108,83)"/>
<path d="M0 0 C2.31 0 4.62 0 7 0 C7 0.33 7 0.66 7 1 C6.12472656 0.99613281 5.24945313 0.99226562 4.34765625 0.98828125 C-0.67580604 2.50645714 -2.01323954 5.79468686 -4.5625 10.1875 C-5.07135742 11.02958008 -5.58021484 11.87166016 -6.10449219 12.73925781 C-7.75503136 15.48210993 -9.37692719 18.24082391 -11 21 C-12.12718431 22.87733704 -13.2560952 24.75363848 -14.38671875 26.62890625 C-20.56656293 36.92775403 -26.49585126 47.32427948 -32 58 C-32.33 58 -32.66 58 -33 58 C-33 56.35 -33 54.7 -33 53 C-32.34 53 -31.68 53 -31 53 C-30.34 50.03 -29.68 47.06 -29 44 C-28.01 44 -27.02 44 -26 44 C-25.67 41.69 -25.34 39.38 -25 37 C-24.01 37 -23.02 37 -22 37 C-22.495 35.515 -22.495 35.515 -23 34 C-22.01 33.34 -21.02 32.68 -20 32 C-18.92863949 29.69855891 -17.92010283 27.3659787 -17 25 C-16.34 25 -15.68 25 -15 25 C-13.75746651 22.18359075 -12.9871023 19.89036956 -12.625 16.8125 C-12 14 -12 14 -9.9375 12.625 C-9.298125 12.41875 -8.65875 12.2125 -8 12 C-8 11.01 -8 10.02 -8 9 C-7.01 9 -6.02 9 -5 9 C-5 8.01 -5 7.02 -5 6 C-4.34 6 -3.68 6 -3 6 C-3.33 5.01 -3.66 4.02 -4 3 C-3.01 3 -2.02 3 -1 3 C-0.67 2.01 -0.34 1.02 0 0 Z " fill="#38D4EF" transform="translate(206,176)"/>
<path d="M0 0 C-2.54702616 1.27351308 -3.4282945 0.80191925 -6.125 0.0625 C-6.84945312 -0.13214844 -7.57390625 -0.32679688 -8.3203125 -0.52734375 C-8.87460937 -0.68332031 -9.42890625 -0.83929688 -10 -1 C-10 -1.66 -10 -2.32 -10 -3 C-16.6 -3 -23.2 -3 -30 -3 C-30 -2.34 -30 -1.68 -30 -1 C-34.96093728 1.27376292 -39.67812773 2.78623966 -45 4 C-45.11472656 4.60328125 -45.22945312 5.2065625 -45.34765625 5.828125 C-46.33509117 9.11563288 -48.46744589 10.77629395 -51 13 C-51.66 13 -52.32 13 -53 13 C-53 13.99 -53 14.98 -53 16 C-54.32 16.33 -55.64 16.66 -57 17 C-53.9656882 8.05428283 -46.00956343 2.24732387 -37.8046875 -1.84375 C-25.89216058 -6.75476389 -11.23183849 -6.54429614 0 0 Z " fill="#32CFEF" transform="translate(270,212)"/>
<path d="M0 0 C0.66 0.99 1.32 1.98 2 3 C2.49371094 3.58910156 2.98742187 4.17820312 3.49609375 4.78515625 C5.38067048 7.56062379 6.14263804 10.21612106 7.0625 13.4375 C8.40937693 18.12609313 8.40937693 18.12609313 10.18359375 22.66015625 C11 25 11 25 10 29 C6.7 20.75 3.4 12.5 0 4 C-2.34374081 7.12498774 -4.2384845 10.03888326 -6.13671875 13.421875 C-6.71357422 14.44667969 -7.29042969 15.47148437 -7.88476562 16.52734375 C-8.77711914 18.12255859 -8.77711914 18.12255859 -9.6875 19.75 C-10.59725586 21.36841797 -10.59725586 21.36841797 -11.52539062 23.01953125 C-13.01946444 25.67827678 -14.51089949 28.33846685 -16 31 C-16.66 29.68 -17.32 28.36 -18 27 C-17.01 26.67 -16.02 26.34 -15 26 C-15.33 24.35 -15.66 22.7 -16 21 C-15.34 20.67 -14.68 20.34 -14 20 C-14.33 19.34 -14.66 18.68 -15 18 C-14.24203125 17.78085937 -13.4840625 17.56171875 -12.703125 17.3359375 C-9.27148267 15.63995242 -8.47107631 14.00374455 -6.75 10.625 C-6.24984375 9.66851562 -5.7496875 8.71203125 -5.234375 7.7265625 C-3.94243838 5.13277236 -3.94243838 5.13277236 -3.515625 2.7109375 C-3.34546875 2.14632813 -3.1753125 1.58171875 -3 1 C-2.01 0.67 -1.02 0.34 0 0 Z " fill="#45D7F0" transform="translate(346,273)"/>
<path d="M0 0 C0.268125 0.639375 0.53625 1.27875 0.8125 1.9375 C1.88667752 4.33131686 1.88667752 4.33131686 5 5 C5 5.66 5 6.32 5 7 C7.31 7.33 9.62 7.66 12 8 C12.38218767 9.65614657 12.71395102 11.32457024 13 13 C12.67 13.33 12.34 13.66 12 14 C11.76712992 15.68183948 11.58735834 17.3712416 11.4375 19.0625 C11.35371094 19.98160156 11.26992187 20.90070313 11.18359375 21.84765625 C11.09271484 22.91306641 11.09271484 22.91306641 11 24 C10.34 24 9.68 24 9 24 C9.02320312 24.58007812 9.04640625 25.16015625 9.0703125 25.7578125 C9.18339397 30.65262485 8.78602525 34.37734641 7 39 C6.63893903 40.66088045 6.29537827 42.32618981 6 44 C5.67 44 5.34 44 5 44 C5.38329698 33.32517921 6.14999085 19.70001829 11 10 C10.31035156 9.81824219 9.62070313 9.63648438 8.91015625 9.44921875 C2.86296885 7.83165834 -3.08816832 6.05819325 -9 4 C-5.98968256 3.06576355 -5.13349732 2.95550089 -2 4 C-2 3.34 -2 2.68 -2 2 C-1.34 2 -0.68 2 0 2 C0 1.34 0 0.68 0 0 Z " fill="#36D3F2" transform="translate(102,320)"/>
<path d="M0 0 C8.05364285 -0.33608711 14.49783264 -0.0517291 22 3 C22 3.66 22 4.32 22 5 C21.13375 4.67 20.2675 4.34 19.375 4 C3.31537367 -0.45921214 -11.72212369 5.91919798 -25.69921875 13.29296875 C-29 15 -29 15 -32 16 C-32 15.34 -32 14.68 -32 14 C-31.34 14 -30.68 14 -30 14 C-30 13.34 -30 12.68 -30 12 C-29.01 12 -28.02 12 -27 12 C-27 11.34 -27 10.68 -27 10 C-25.68 10 -24.36 10 -23 10 C-23 9.01 -23 8.02 -23 7 C-22.01 7 -21.02 7 -20 7 C-20 6.34 -20 5.68 -20 5 C-18.700625 5.0928125 -18.700625 5.0928125 -17.375 5.1875 C-13.9598417 5.23061509 -13.9598417 5.23061509 -11.125 3.5 C-7.08984837 1.56312722 -4.43256494 1.7707294 0 2 C0 1.34 0 0.68 0 0 Z " fill="#2FD6F3" transform="translate(336,61)"/>
<path d="M0 0 C4.11157439 3.99608073 7.88420915 8.21959556 11.625 12.5625 C12.48351562 13.5515332 12.48351562 13.5515332 13.359375 14.56054688 C16.01562383 17.633765 18.62959635 20.69656513 21 24 C28.87323755 20.67574415 34.14682134 11.74665367 39 5 C39.495 5.99 39.495 5.99 40 7 C39.6390625 7.47050781 39.278125 7.94101562 38.90625 8.42578125 C38.4421875 9.04839844 37.978125 9.67101562 37.5 10.3125 C37.0359375 10.92738281 36.571875 11.54226563 36.09375 12.17578125 C34.74288717 14.07433005 34.74288717 14.07433005 35 17 C33 18.33333333 31 19.66666667 29 21 C27.99431758 22.66324401 26.99335201 24.32936253 26 26 C24.125 27.125 24.125 27.125 22 27 C19.5 24.6875 19.5 24.6875 17 22 C14.83379456 20.70480005 14.83379456 20.70480005 13 20 C13 19.34 13 18.68 13 18 C12.01 18 11.02 18 10 18 C10 17.01 10 16.02 10 15 C9.34 14.67 8.68 14.34 8 14 C7.62875 12.88625 7.62875 12.88625 7.25 11.75 C5.97358833 8.94189433 5.24044022 8.23101453 2.875 6.4375 C1.451875 5.2309375 1.451875 5.2309375 0 4 C0 2.68 0 1.36 0 0 Z " fill="#3AD4F0" transform="translate(228,352)"/>
<path d="M0 0 C1 2 1 2 0.375 4.75 C-1.20224494 8.47803349 -3.4184923 10.90219076 -6 14 C-8.45318165 19.43564564 -8.29868277 24.71651048 -8.25 30.5625 C-8.25773437 31.49513672 -8.26546875 32.42777344 -8.2734375 33.38867188 C-8.2599152 38.13161958 -7.98127091 41.62609261 -6 46 C-6.33 46.99 -6.66 47.98 -7 49 C-12.10849244 38.44092857 -13.11896762 26.20044095 -9.375 15 C-7.11691493 9.70685436 -4.10617957 4.10617957 0 0 Z " fill="#37D4F0" transform="translate(26,220)"/>
<path d="M0 0 C3.66428153 5.49642229 2.60008079 13.54313072 2 20 C-0.45490747 31.60501713 -7.50842166 41.0801149 -17 48 C-20.5625 49.5 -20.5625 49.5 -23 50 C-21 47 -21 47 -18 46 C-17.67 45.34 -17.34 44.68 -17 44 C-15.824375 43.4121875 -15.824375 43.4121875 -14.625 42.8125 C-11.03351488 40.33266504 -10.4559655 38.06137745 -9 34 C-8.01 34 -7.02 34 -6 34 C-6 32.68 -6 31.36 -6 30 C-5.01 30 -4.02 30 -3 30 C-2.814375 28.39125 -2.814375 28.39125 -2.625 26.75 C-2 23 -2 23 -0.97314453 21.04980469 C0.1573065 18.66865395 0.23075961 17.07621131 0.1953125 14.453125 C0.18886719 13.60878906 0.18242187 12.76445312 0.17578125 11.89453125 C0.15902344 11.02183594 0.14226562 10.14914063 0.125 9.25 C0.11597656 8.36183594 0.10695313 7.47367188 0.09765625 6.55859375 C0.07414577 4.37211942 0.04128499 2.18619906 0 0 Z " fill="#30D6F0" transform="translate(290,238)"/>
<path d="M0 0 C17.82 0 35.64 0 54 0 C55 4 55 4 53.8125 7.1875 C52 10 52 10 49.8125 10.875 C48.9153125 10.936875 48.9153125 10.936875 48 11 C49.42431487 7.93224489 50.90780074 5.78959901 53 3 C36.5 3 20 3 3 3 C3.99 3.99 4.98 4.98 6 6 C5.67 6.66 5.34 7.32 5 8 C2.5 5.6875 2.5 5.6875 0 3 C0 2.01 0 1.02 0 0 Z " fill="#3BD5F1" transform="translate(222,344)"/>
<path d="M0 0 C0.66 0 1.32 0 2 0 C2.66 3.3 3.32 6.6 4 10 C3.01 9.01 2.02 8.02 1 7 C1 6.34 1 5.68 1 5 C0.34 5 -0.32 5 -1 5 C-1.38800781 6.17433594 -1.77601563 7.34867187 -2.17578125 8.55859375 C-4.46002875 15.41133624 -6.8286668 22.23517882 -9.1875 29.0625 C-9.65564236 30.41860481 -10.12374165 31.77472449 -10.59179688 33.13085938 C-11.72736838 36.42074439 -12.86352134 39.71042824 -14 43 C-14.33 43 -14.66 43 -15 43 C-14.43393721 38.30976546 -13.81462495 33.65499974 -13 29 C-12.34 29 -11.68 29 -11 29 C-11 27.35 -11 25.7 -11 24 C-10.34 24 -9.68 24 -9 24 C-8.34 20.37 -7.68 16.74 -7 13 C-6.34 13 -5.68 13 -5 13 C-5 11.35 -5 9.7 -5 8 C-4.34 8 -3.68 8 -3 8 C-2.87625 7.236875 -2.7525 6.47375 -2.625 5.6875 C-2 3 -2 3 0 0 Z " fill="#44DAF3" transform="translate(154,272)"/>
<path d="M0 0 C4.05606165 0.46800711 7.46588679 0.87953208 11 3 C10.67 3.99 10.34 4.98 10 6 C16.94151969 7.74707911 23.68922412 8.19298524 30.8125 8.1875 C31.62436768 8.18814453 32.43623535 8.18878906 33.27270508 8.18945312 C37.61931417 8.15008086 41.72137295 7.86123733 46 7 C41.43050699 11.56949301 34.30987688 11.27480915 28.1875 11.375 C17.2591001 11.34975829 8.50628372 7.82603015 0 1 C0 0.67 0 0.34 0 0 Z " fill="#38D5F1" transform="translate(221,281)"/>
<path d="M0 0 C2.88509639 2.39713083 5.26722711 4.98794674 7.4375 8.0625 C5.0625 7.75 5.0625 7.75 2.4375 7.0625 C0.4375 4.0625 0.4375 4.0625 -0.5625 1.0625 C-3.0375 0.5675 -3.0375 0.5675 -5.5625 0.0625 C-5.5625 -0.5975 -5.5625 -1.2575 -5.5625 -1.9375 C-12.47394538 -3.6957374 -19.00857892 -4.33643235 -26.125 -4.5625 C-27.13369141 -4.60117187 -28.14238281 -4.63984375 -29.18164062 -4.6796875 C-31.6417564 -4.77296203 -34.10188366 -4.85875516 -36.5625 -4.9375 C-36.8925 -4.2775 -37.2225 -3.6175 -37.5625 -2.9375 C-39.2125 -3.2675 -40.8625 -3.5975 -42.5625 -3.9375 C-30.40691258 -10.95033889 -11.02046813 -7.86885824 0 0 Z " fill="#59D6F2" transform="translate(369.5625,47.9375)"/>
<path d="M0 0 C0.66 1.32 1.32 2.64 2 4 C2.66 4 3.32 4 4 4 C4.495 8.455 4.495 8.455 5 13 C1.76968386 14.61515807 -1.07319053 15.16602412 -4.625 15.4375 C-8.36979525 15.73531877 -11.61173018 16.42209055 -15.1875 17.5625 C-22.09686346 19.60751275 -28.85646035 19.26029092 -36 19 C-36 18.67 -36 18.34 -36 18 C-35.1028125 17.85900879 -34.205625 17.71801758 -33.28125 17.57275391 C-29.91864403 17.04257029 -26.55658157 16.50916068 -23.19482422 15.97363281 C-21.74613272 15.74351808 -20.29724242 15.51465095 -18.84814453 15.28710938 C-7.83813577 13.5665819 -7.83813577 13.5665819 3 11 C2.76990234 10.41516846 2.53980469 9.83033691 2.30273438 9.2277832 C0 3.375 0 3.375 0 0 Z " fill="#3AD1ED" transform="translate(357,302)"/>
<path d="M0 0 C0 0.99 0 1.98 0 3 C-1.423125 3.12375 -1.423125 3.12375 -2.875 3.25 C-6.10461791 3.65074923 -6.10461791 3.65074923 -7.375 6.0625 C-7.58125 6.701875 -7.7875 7.34125 -8 8 C-10.64 8 -13.28 8 -16 8 C-16 8.66 -16 9.32 -16 10 C-18.87394498 10.81639318 -21.7490513 11.62822141 -24.625 12.4375 C-25.43324219 12.66759766 -26.24148438 12.89769531 -27.07421875 13.13476562 C-31.3668174 14.3387872 -35.57542207 15.37712252 -40 16 C-37.88189806 13.88189806 -36.77722148 13.43396002 -33.9921875 12.51953125 C-32.76991455 12.10876343 -32.76991455 12.10876343 -31.52294922 11.68969727 C-30.64912598 11.40022217 -29.77530273 11.11074707 -28.875 10.8125 C-21.35609902 8.2651611 -14.06672064 5.44417836 -6.85107422 2.1340332 C-2.17792817 0 -2.17792817 0 0 0 Z " fill="#33D4F2" transform="translate(421,293)"/>
<path d="M0 0 C0.33 0 0.66 0 1 0 C1.07543378 4.83395154 1.12919195 9.66754384 1.16479492 14.50195312 C1.17967183 16.13873274 1.1999798 17.77547407 1.22631836 19.41210938 C1.65097524 46.52353713 1.65097524 46.52353713 -4 55 C-4.13488018 49.66343632 -3.72490262 45.11415437 -2.5625 39.875 C0.07101943 26.83317374 -0.23581205 13.25628526 0 0 Z " fill="#3AD6F3" transform="translate(393,366)"/>
<path d="M0 0 C1.32 0.33 2.64 0.66 4 1 C3.67 2.65 3.34 4.3 3 6 C2.34 6 1.68 6 1 6 C0.95875 6.598125 0.9175 7.19625 0.875 7.8125 C0 10 0 10 -2.63671875 11.27734375 C-6.57296534 13.29347005 -9.42943263 15.80379255 -12.6875 18.75 C-24.22579901 28.89465831 -24.22579901 28.89465831 -31 32 C-31.99 31.67 -32.98 31.34 -34 31 C-33.06800781 30.40574219 -32.13601562 29.81148438 -31.17578125 29.19921875 C-22.18951701 23.38708903 -14.02246445 17.07083418 -6 10 C-4.56447215 8.76853066 -3.12739338 7.5388621 -1.6875 6.3125 C-0.800625 5.549375 0.08625 4.78625 1 4 C0.505 2.02 0.505 2.02 0 0 Z " fill="#46D3EE" transform="translate(233,390)"/>
<path d="M0 0 C0 0.33 0 0.66 0 1 C-6.6 2.32 -13.2 3.64 -20 5 C-17.99713025 13.12929488 -15.29086669 20.83554998 -12.24975586 28.62426758 C-11.94561768 29.41986084 -11.64147949 30.2154541 -11.328125 31.03515625 C-11.0487207 31.7506665 -10.76931641 32.46617676 -10.48144531 33.20336914 C-10 35 -10 35 -11 37 C-13.98498715 32.5935904 -15.42554796 28.02519407 -17 23 C-17.51704463 21.4154254 -18.03778622 19.8320516 -18.5625 18.25 C-18.80742187 17.5075 -19.05234375 16.765 -19.3046875 16 C-19.86397442 14.3912646 -20.51229702 12.81362795 -21.1875 11.25 C-22.1052535 8.70852877 -22.15324355 6.68176217 -22 4 C-14.97120402 0.24077878 -7.84966639 -0.24919576 0 0 Z " fill="#45D4EB" transform="translate(161,182)"/>
<path d="M0 0 C2.39591038 -0.02712351 4.79150957 -0.0468982 7.1875 -0.0625 C7.86103516 -0.07087891 8.53457031 -0.07925781 9.22851562 -0.08789062 C12.95434131 -0.10606538 16.3788042 0.10700608 20 1 C20.33 1.99 20.66 2.98 21 4 C19.72125 3.835 18.4425 3.67 17.125 3.5 C7.61809329 2.48513398 -0.25231377 2.12031179 -8.5 7.6875 C-8.995 8.120625 -9.49 8.55375 -10 9 C-10 7.68 -10 6.36 -10 5 C-6.66954606 2.33563684 -4.2225435 1.6380677 0 2 C0 1.34 0 0.68 0 0 Z " fill="#31D3F0" transform="translate(147,61)"/>
<path d="M0 0 C0.66 0.33 1.32 0.66 2 1 C0.04036843 3.93944735 -0.54104841 4.4768311 -3.5 5.9375 C-5.8336968 7.20866125 -6.89213566 7.84523812 -8.4375 10.0625 C-9.1394051 12.14392286 -9.1394051 12.14392286 -9 15 C-9.56589844 15.10957031 -10.13179687 15.21914062 -10.71484375 15.33203125 C-11.44832031 15.49058594 -12.18179688 15.64914063 -12.9375 15.8125 C-13.66839844 15.96332031 -14.39929687 16.11414063 -15.15234375 16.26953125 C-15.76207031 16.51058594 -16.37179688 16.75164062 -17 17 C-17.33 17.99 -17.66 18.98 -18 20 C-20.0625 20.6875 -20.0625 20.6875 -22 21 C-17.86308769 11.72266695 -7.99006994 5.75285035 0 0 Z " fill="#26D1EF" transform="translate(49,199)"/>
<path d="M0 0 C0.33 0 0.66 0 1 0 C2.32 6.93 3.64 13.86 5 21 C7.083125 20.484375 9.16625 19.96875 11.3125 19.4375 C17.625 17.875 17.625 17.875 21 19 C19.68 19.33 18.36 19.66 17 20 C17 20.99 17 21.98 17 23 C16.34 22.835 15.68 22.67 15 22.5 C11.26900206 21.87816701 7.78126622 21.93591074 4 22 C-0.05505062 14.75883818 -0.2643451 8.12126902 0 0 Z " fill="#33D2F1" transform="translate(129,145)"/>
<path d="M0 0 C0.66 0.33 1.32 0.66 2 1 C1.401875 1.226875 0.80375 1.45375 0.1875 1.6875 C-2.56085774 3.33651464 -3.39211876 5.27359268 -5 8 C-8 9 -8 9 -11 9 C-11.391875 9.94875 -11.78375 10.8975 -12.1875 11.875 C-14.19793856 15.34127338 -15.22699642 15.9802693 -19 17 C-15.78469017 9.40017676 -9.96203142 5.00251619 -3 1 C-2.01 0.67 -1.02 0.34 0 0 Z " fill="#2CD3EF" transform="translate(137,44)"/>
<path d="M0 0 C3.6875 0.875 3.6875 0.875 7 2 C7 4.97 7 7.94 7 11 C6.67 11 6.34 11 6 11 C5.67 8.03 5.34 5.06 5 2 C4.26136719 2.19335938 3.52273438 2.38671875 2.76171875 2.5859375 C-15.14715507 7.1826243 -15.14715507 7.1826243 -23 7 C-21 4 -21 4 -18.64453125 3.5234375 C-17.70996094 3.47445313 -16.77539062 3.42546875 -15.8125 3.375 C-14.82894531 3.30925781 -13.84539062 3.24351562 -12.83203125 3.17578125 C-11.89746094 3.11777344 -10.96289062 3.05976563 -10 3 C-6.0530213 2.6244347 -3.39503599 2.26335733 0 0 Z " fill="#31D5F2" transform="translate(362,332)"/>
<path d="M0 0 C0.82638376 2.89234315 1 4.88742431 1 8 C0.01 8 -0.98 8 -2 8 C-2.33 9.32 -2.66 10.64 -3 12 C-3.66 12 -4.32 12 -5 12 C-4.9175 12.721875 -4.835 13.44375 -4.75 14.1875 C-5.08156035 17.91755397 -6.41856046 19.34685381 -9 22 C-11.25 23.3125 -11.25 23.3125 -13 24 C-11.10578253 20.14286287 -9.08270957 16.3545631 -7.0625 12.5625 C-6.71509766 11.90701172 -6.36769531 11.25152344 -6.00976562 10.57617188 C-4.09923811 6.98898556 -2.12922203 3.46415748 0 0 Z " fill="#2CD4F0" transform="translate(166,202)"/>
<path d="M0 0 C0.66 0 1.32 0 2 0 C2.33 1.32 2.66 2.64 3 4 C4.32 3.34 5.64 2.68 7 2 C6.67 2.99 6.34 3.98 6 5 C5.34 5 4.68 5 4 5 C4 16.88 4 28.76 4 41 C3.67 41 3.34 41 3 41 C2.98018066 40.25540527 2.96036133 39.51081055 2.93994141 38.74365234 C2.50747769 19.27750171 2.50747769 19.27750171 0 0 Z " fill="#2DD1F0" transform="translate(369,86)"/>
<path d="M0 0 C0 0.99 0 1.98 0 3 C-1.98 3 -3.96 3 -6 3 C-6 3.66 -6 4.32 -6 5 C-7.375 6.625 -7.375 6.625 -9 8 C-9.66 8 -10.32 8 -11 8 C-11.33 8.66 -11.66 9.32 -12 10 C-12.721875 9.835 -13.44375 9.67 -14.1875 9.5 C-16.86427545 9.02412881 -19.28949487 8.922557 -22 9 C-18.36719452 5.83318266 -14.33689782 4.42884044 -9.875 2.8125 C-9.14667969 2.53986328 -8.41835938 2.26722656 -7.66796875 1.98632812 C-2.28148496 0 -2.28148496 0 0 0 Z " fill="#1ED5F7" transform="translate(326,44)"/>
<path d="M0 0 C5.31194412 0.55522661 9.27864618 2.38390165 13.9375 4.8125 C14.61490234 5.15603516 15.29230469 5.49957031 15.99023438 5.85351562 C20.40362095 8.10887041 24.71330594 10.512935 29 13 C26 14 26 14 24.09765625 13.2578125 C23.42605469 12.88398437 22.75445312 12.51015625 22.0625 12.125 C19.37911872 10.64629663 17.00502577 9.63192936 14 9 C14 8.34 14 7.68 14 7 C13.071875 7.061875 12.14375 7.12375 11.1875 7.1875 C8 7 8 7 6.125 5.625 C5 4 5 4 5 2 C3.35 1.67 1.7 1.34 0 1 C0 0.67 0 0.34 0 0 Z " fill="#3AD9EE" transform="translate(180,47)"/>
<path d="M0 0 C4.97831518 1.41585111 8.85057994 3.56215583 13.125 6.375 C13.73214844 6.76171875 14.33929688 7.1484375 14.96484375 7.546875 C18.35034136 9.74486691 21.26960525 12.02509229 24 15 C22.68 15.33 21.36 15.66 20 16 C19.76539063 15.37609375 19.53078125 14.7521875 19.2890625 14.109375 C17.63176925 11.39744059 16.3858401 11.11024003 13.375 10.25 C12.55773437 10.00765625 11.74046875 9.7653125 10.8984375 9.515625 C10.27195312 9.34546875 9.64546875 9.1753125 9 9 C9 8.34 9 7.68 9 7 C8.34 7 7.68 7 7 7 C7 6.01 7 5.02 7 4 C4.03 3.505 4.03 3.505 1 3 C0.67 2.01 0.34 1.02 0 0 Z " fill="#2FD5F0" transform="translate(432,190)"/>
<path d="M0 0 C1.65 0 3.3 0 5 0 C0.58160324 3.96382919 -4.29681715 6.27158767 -9.625 8.75 C-10.48351562 9.16121094 -11.34203125 9.57242187 -12.2265625 9.99609375 C-18.61360569 13 -18.61360569 13 -22 13 C-21.3359375 11.09375 -21.3359375 11.09375 -20 9 C-17.5390625 8.09375 -17.5390625 8.09375 -14.625 7.5 C-10.07701595 6.5683375 -8.17143003 5.34837677 -5 2 C-2.25 1.75 -2.25 1.75 0 2 C0 1.34 0 0.68 0 0 Z " fill="#35D5F3" transform="translate(433,307)"/>
<path d="M0 0 C9.21342635 1.50765158 17.47442712 5.33919144 26 9 C26 9.33 26 9.66 26 10 C24.02 10 22.04 10 20 10 C20 9.34 20 8.68 20 8 C18.68 8 17.36 8 16 8 C16 7.34 16 6.68 16 6 C15.195625 6.020625 14.39125 6.04125 13.5625 6.0625 C11 6 11 6 10 5 C9.01 6.485 9.01 6.485 8 8 C7.01 7.34 6.02 6.68 5 6 C5 4.68 5 3.36 5 2 C3.35 1.67 1.7 1.34 0 1 C0 0.67 0 0.34 0 0 Z " fill="#3CD5EE" transform="translate(396,175)"/>
<path d="M0 0 C2.15481234 3.23221851 3.48255204 6.5285438 4.875 10.125 C6.89617592 15.29271573 9.00758264 20.3685525 11.43359375 25.36328125 C11.62050781 25.90339844 11.80742188 26.44351562 12 27 C11.67 27.66 11.34 28.32 11 29 C7.1132207 23.3234323 4.28491282 17.63012119 2.125 11.125 C1.91012939 10.48296631 1.69525879 9.84093262 1.47387695 9.17944336 C0.43552187 5.91340703 0 3.47289396 0 0 Z " fill="#42D4EC" transform="translate(108,413)"/>
<path d="M0 0 C4.94953972 7.42430959 4.27045976 17.3903644 4 26 C-0.25025771 21.74974229 0.09348646 13.47154838 -0.125 7.6953125 C-0.125 5.12675026 -0.09258846 2.56675787 0 0 Z " fill="#30D6F3" transform="translate(389,81)"/>
<path d="M0 0 C8.42607411 5.0823939 15.63698401 11.5272491 23 18 C21.68 18.33 20.36 18.66 19 19 C18.67 18.01 18.34 17.02 18 16 C17.01 15.67 16.02 15.34 15 15 C13.878845 13.878845 12.76233032 12.75259867 11.671875 11.6015625 C8.67283619 8.72865149 5.30952025 6.28741473 2.01171875 3.76953125 C1.34785156 3.18558594 0.68398437 2.60164063 0 2 C0 1.34 0 0.68 0 0 Z " fill="#36CDEC" transform="translate(220,68)"/>
<path d="M0 0 C2.48038083 3.72057125 2.38390125 6.68476577 2.375 11 C2.37411377 11.75949951 2.37322754 12.51899902 2.37231445 13.30151367 C2.20025747 21.54365447 0.19062436 28.50056492 -5 35 C-4.40848854 31.47583697 -3.4102023 28.61600077 -1.9375 25.375 C1.16494455 17.23248306 0.31951346 8.56473569 0 0 Z " fill="#4FD9F0" transform="translate(290,238)"/>
<path d="M0 0 C7.48116133 0.28230797 12.65074114 3.18344183 19 7 C19 7.66 19 8.32 19 9 C20.32 9 21.64 9 23 9 C23.66 10.32 24.32 11.64 25 13 C20.23247186 11.25253949 15.84354898 8.8867847 11.375 6.5 C10.611875 6.09652344 9.84875 5.69304687 9.0625 5.27734375 C5.93818701 3.61652474 2.94844569 1.96563046 0 0 Z " fill="#38D5EF" transform="translate(177,68)"/>
<path d="M0 0 C0.66 0.33 1.32 0.66 2 1 C1.67 1.66 1.34 2.32 1 3 C2.32 3.33 3.64 3.66 5 4 C3.73742767 5.17560179 2.46462916 6.34022865 1.1875 7.5 C0.47980469 8.1496875 -0.22789062 8.799375 -0.95703125 9.46875 C-3 11 -3 11 -6 11 C-6.33 9.68 -6.66 8.36 -7 7 C-4.525 7.495 -4.525 7.495 -2 8 C-2.061875 6.8553125 -2.061875 6.8553125 -2.125 5.6875 C-2 3 -2 3 0 0 Z " fill="#1ADAF8" transform="translate(372,442)"/>
<path d="M0 0 C7.77976918 0.2829007 13.23777637 3.12403473 18.6796875 8.73046875 C19.83997703 10.1103611 20.92935584 11.54944984 22 13 C19.625 12.6875 19.625 12.6875 17 12 C15 9 15 9 14 6 C12.35 5.67 10.7 5.34 9 5 C9 4.34 9 3.68 9 3 C4.545 2.01 4.545 2.01 0 1 C0 0.67 0 0.34 0 0 Z " fill="#33CFEF" transform="translate(355,43)"/>
<path d="M0 0 C7.33333333 3.66666667 14.66666667 7.33333333 22 11 C18.86650268 12.04449911 18.01031744 11.93423645 15 11 C15 10.34 15 9.68 15 9 C14.4225 8.855625 13.845 8.71125 13.25 8.5625 C11.16666667 8.04166667 9.08333333 7.52083333 7 7 C7 6.34 7 5.68 7 5 C5.68 5 4.36 5 3 5 C3 4.34 3 3.68 3 3 C2.01 3 1.02 3 0 3 C0 2.01 0 1.02 0 0 Z " fill="#35D0F0" transform="translate(65,286)"/>
<path d="M0 0 C2.15737915 2.15737915 2.706392 3.51775557 3.7265625 6.3515625 C4.0359375 7.20234375 4.3453125 8.053125 4.6640625 8.9296875 C4.98117187 9.81914062 5.29828125 10.70859375 5.625 11.625 C5.94984375 12.5221875 6.2746875 13.419375 6.609375 14.34375 C7.41126708 16.56074574 8.20790954 18.7794874 9 21 C8.34 21.33 7.68 21.66 7 22 C7 21.34 7 20.68 7 20 C5.68 19.67 4.36 19.34 3 19 C3.99 19 4.98 19 6 19 C5.34 17.02 4.68 15.04 4 13 C3.01 13 2.02 13 1 13 C1 12.34 1 11.68 1 11 C1.66 11 2.32 11 3 11 C2.505 9.9275 2.01 8.855 1.5 7.75 C0.11346089 4.74583192 0 3.54065105 0 0 Z " fill="#42D7F2" transform="translate(368,273)"/>
<path d="M0 0 C0.33 0.66 0.66 1.32 1 2 C-0.328125 4.53125 -0.328125 4.53125 -2.25 7.5 C-2.87390625 8.4796875 -3.4978125 9.459375 -4.140625 10.46875 C-6 13 -6 13 -9 15 C-9.1875 12.625 -9.1875 12.625 -9 10 C-8.01 9.34 -7.02 8.68 -6 8 C-5.87625 7.01 -5.7525 6.02 -5.625 5 C-5.41875 4.01 -5.2125 3.02 -5 2 C-2.4375 0.625 -2.4375 0.625 0 0 Z " fill="#2BD6F2" transform="translate(479,267)"/>
<path d="M0 0 C2.64 0 5.28 0 8 0 C4.98494548 2.01003635 2.42503788 2.99171541 -1 4.125 C-2.051875 4.47820312 -3.10375 4.83140625 -4.1875 5.1953125 C-7 6 -7 6 -10 6 C-9.6875 4.0625 -9.6875 4.0625 -9 2 C-5.52176885 0.84058962 -3.54104422 1.29179116 0 2 C0 1.34 0 0.68 0 0 Z " fill="#2BD7F1" transform="translate(106,193)"/>
<path d="M0 0 C0.66 0 1.32 0 2 0 C2.33 0.99 2.66 1.98 3 3 C1.0625 5.6875 1.0625 5.6875 -1 8 C0.50349377 11.66786393 2.63728792 13.68910393 5.625 16.25 C6.44226563 16.95640625 7.25953125 17.6628125 8.1015625 18.390625 C8.72804688 18.92171875 9.35453125 19.4528125 10 20 C5.93878728 20 4.81883062 18.47177947 1.8125 15.8125 C0.91144531 15.03519531 0.01039063 14.25789063 -0.91796875 13.45703125 C-3 11 -3 11 -3.30078125 8.19921875 C-3.20152344 7.47347656 -3.10226562 6.74773437 -3 6 C-2.34 5.67 -1.68 5.34 -1 5 C-0.34444881 2.47266765 -0.34444881 2.47266765 0 0 Z " fill="#3ED2ED" transform="translate(268,384)"/>
<path d="M0 0 C0.66 0.33 1.32 0.66 2 1 C0.35767739 3.00297785 -1.28861244 5.00243908 -2.9375 7 C-3.40607422 7.57234375 -3.87464844 8.1446875 -4.35742188 8.734375 C-5.54934328 10.17497065 -6.77232588 11.58974871 -8 13 C-8.33 13 -8.66 13 -9 13 C-9 10.03 -9 7.06 -9 4 C-8.34 4 -7.68 4 -7 4 C-7 4.66 -7 5.32 -7 6 C-6.01 5.67 -5.02 5.34 -4 5 C-3.835 4.34 -3.67 3.68 -3.5 3 C-3.335 2.34 -3.17 1.68 -3 1 C-2.01 0.67 -1.02 0.34 0 0 Z " fill="#27D4F4" transform="translate(281,372)"/>
<path d="M0 0 C0 1.98 0 3.96 0 6 C-0.99 5.67 -1.98 5.34 -3 5 C-4.32 7.31 -5.64 9.62 -7 12 C-8.65 11.67 -10.3 11.34 -12 11 C-10.83658836 9.83658836 -9.67288734 8.67346481 -8.5078125 7.51171875 C-7.45577059 6.45695135 -6.40931422 5.39659611 -5.3671875 4.33203125 C-1.10718527 0 -1.10718527 0 0 0 Z " fill="#27D4F0" transform="translate(455,268)"/>
<path d="M0 0 C5.78006308 5.07023077 8.50011716 13.50175738 9 21 C8.34 21 7.68 21 7 21 C6.81824219 20.32453125 6.63648438 19.6490625 6.44921875 18.953125 C6.19785156 18.06109375 5.94648438 17.1690625 5.6875 16.25 C5.44386719 15.36828125 5.20023437 14.4865625 4.94921875 13.578125 C3.9736314 10.92838157 2.68616165 9.23599696 1 7 C0.3125 3.25 0.3125 3.25 0 0 Z " fill="#3AD1EF" transform="translate(380,60)"/>
<path d="M0 0 C0 0.33 0 0.66 0 1 C-1.16917969 1.10957031 -2.33835937 1.21914063 -3.54296875 1.33203125 C-5.09121194 1.49154721 -6.63938558 1.65173914 -8.1875 1.8125 C-8.95642578 1.88275391 -9.72535156 1.95300781 -10.51757812 2.02539062 C-16.16764128 2.63162058 -19.88288044 3.88288044 -24 8 C-23.67 6.02 -23.34 4.04 -23 2 C-15.27111181 0.04596958 -7.94957992 -0.22428282 0 0 Z " fill="#38D7F4" transform="translate(324,341)"/>
<path d="M0 0 C1.89492187 0.01353516 1.89492187 0.01353516 3.828125 0.02734375 C4.79234375 0.03894531 5.7565625 0.05054688 6.75 0.0625 C4 6.9375 4 6.9375 1.75 8.0625 C3.625 3.3125 3.625 3.3125 4.75 1.0625 C4.02554688 1.206875 3.30109375 1.35125 2.5546875 1.5 C-2.43491623 2.45800392 -7.14267738 3.33857149 -12.25 3.0625 C-11.25 1.0625 -11.25 1.0625 -9.640625 0.44140625 C-6.40648557 -0.07119428 -3.27272949 -0.03030305 0 0 Z " fill="#3CD6ED" transform="translate(174.25,178.9375)"/>
<path d="M0 0 C0.66 0 1.32 0 2 0 C0.66654496 3.59007126 -0.8943231 6.79570907 -3 10 C-3.33 10 -3.66 10 -4 10 C-4 8.35 -4 6.7 -4 5 C-4.66 5 -5.32 5 -6 5 C-6 3.68 -6 2.36 -6 1 C-4.7934375 1.0309375 -4.7934375 1.0309375 -3.5625 1.0625 C-1.06645115 1.29633621 -1.06645115 1.29633621 0 0 Z " fill="#21D4F5" transform="translate(383,432)"/>
<path d="M0 0 C0.66 0 1.32 0 2 0 C0.56691865 3.95906817 -1.33141949 7.28718181 -3.625 10.8125 C-4.57246094 12.27623047 -4.57246094 12.27623047 -5.5390625 13.76953125 C-6.02117187 14.50558594 -6.50328125 15.24164063 -7 16 C-7.33 14.68 -7.66 13.36 -8 12 C-7.34 12 -6.68 12 -6 12 C-6 11.01 -6 10.02 -6 9 C-5.34 9 -4.68 9 -4 9 C-4 7.02 -4 5.04 -4 3 C-2.68 2.67 -1.36 2.34 0 2 C0 1.34 0 0.68 0 0 Z " fill="#2DD6F5" transform="translate(327,304)"/>
<path d="M0 0 C0.66 0.33 1.32 0.66 2 1 C0.63701122 2.61438449 -0.7409939 4.21609692 -2.125 5.8125 C-2.89070313 6.70582031 -3.65640625 7.59914063 -4.4453125 8.51953125 C-7.1520153 11.14759895 -9.49992815 12.61839269 -13 14 C-13.66 13.67 -14.32 13.34 -15 13 C-10.05 8.71 -5.1 4.42 0 0 Z " fill="#31CFEC" transform="translate(270,74)"/>
<path d="M0 0 C0.99 0.33 1.98 0.66 3 1 C1.58707905 5.8274799 -0.42974154 9.7162359 -3 14 C-3.66 12.68 -4.32 11.36 -5 10 C-4.01 9.67 -3.02 9.34 -2 9 C-2.33 7.35 -2.66 5.7 -3 4 C-2.34 3.67 -1.68 3.34 -1 3 C-1.33 2.34 -1.66 1.68 -2 1 C-1.34 0.67 -0.68 0.34 0 0 Z " fill="#26D5F5" transform="translate(333,290)"/>
<path d="M0 0 C0.33 1.32 0.66 2.64 1 4 C0.01 5.485 0.01 5.485 -1 7 C-1.185625 8.6396875 -1.185625 8.6396875 -1.375 10.3125 C-2.11018252 14.65007685 -3.38820812 16.54569461 -6 20 C-6.66 19.67 -7.32 19.34 -8 19 C-5.36 12.73 -2.72 6.46 0 0 Z " fill="#37D2F0" transform="translate(138,257)"/>
<path d="M0 0 C2.64 0.33 5.28 0.66 8 1 C8 1.33 8 1.66 8 2 C10.97 2.495 10.97 2.495 14 3 C14.66 4.98 15.32 6.96 16 9 C12.20950293 7.57250019 8.72877544 5.83763458 5.1875 3.875 C4.21167969 3.33617187 3.23585938 2.79734375 2.23046875 2.2421875 C1.49441406 1.83226562 0.75835937 1.42234375 0 1 C0 0.67 0 0.34 0 0 Z " fill="#2DD2F4" transform="translate(422,208)"/>
<path d="M0 0 C-5.33579761 4.62435793 -11.93726223 9.64617267 -19 11 C-18.67 10.01 -18.34 9.02 -18 8 C-16.02 7.67 -14.04 7.34 -12 7 C-12 6.34 -12 5.68 -12 5 C-11.01 4.67 -10.02 4.34 -9 4 C-8.67 3.34 -8.34 2.68 -8 2 C-4.77208445 -0.1519437 -3.71599191 -0.20086443 0 0 Z " fill="#3AD6F1" transform="translate(217,435)"/>
<path d="M0 0 C2.30060845 1.13563732 4.38659374 1.66725367 6.89453125 2.18359375 C7.69375 2.35117187 8.49296875 2.51875 9.31640625 2.69140625 C9.9196875 2.81257813 10.52296875 2.93375 11.14453125 3.05859375 C11.14453125 3.38859375 11.14453125 3.71859375 11.14453125 4.05859375 C3.39001319 3.47853138 -4.20289152 2.43418791 -11.85546875 1.05859375 C-11.85546875 0.72859375 -11.85546875 0.39859375 -11.85546875 0.05859375 C-3.60250594 -1.82779775 -3.60250594 -1.82779775 0 0 Z " fill="#2FD5F2" transform="translate(157.85546875,336.94140625)"/>
<path d="M0 0 C1.0326802 2.78823655 1.04509293 3.8677274 0.0625 6.75 C-0.288125 7.4925 -0.63875 8.235 -1 9 C-0.34 9.33 0.32 9.66 1 10 C0.34 10 -0.32 10 -1 10 C-1.33 11.65 -1.66 13.3 -2 15 C-3.65 15 -5.3 15 -7 15 C-5.99471631 12.98492462 -4.98577992 10.97204278 -3.96484375 8.96484375 C-3.62582031 8.29582031 -3.28679687 7.62679688 -2.9375 6.9375 C-2.42509766 5.93009766 -2.42509766 5.93009766 -1.90234375 4.90234375 C-0.88509619 2.85671686 -0.88509619 2.85671686 0 0 Z " fill="#32D4F6" transform="translate(462,253)"/>
<path d="M0 0 C5.07648175 2.78387709 9.4833069 6.40829416 14 10 C10.86650268 11.04449911 10.01031744 10.93423645 7 10 C7 8.68 7 7.36 7 6 C6.01 6.33 5.02 6.66 4 7 C3.566875 6.0409375 3.566875 6.0409375 3.125 5.0625 C2.17176549 2.84793921 2.17176549 2.84793921 0 2 C0 1.34 0 0.68 0 0 Z " fill="#2ED4F1" transform="translate(278,405)"/>
<path d="M0 0 C0.95904856 3.83619425 0.91892116 5.32431536 0 9 C-3.3 9.33 -6.6 9.66 -10 10 C-10 9.34 -10 8.68 -10 8 C-10.99 7.67 -11.98 7.34 -13 7 C-13 6.34 -13 5.68 -13 5 C-7.555 6.485 -7.555 6.485 -2 8 C-1.34 5.36 -0.68 2.72 0 0 Z " fill="#2DD1E9" transform="translate(121,301)"/>
<path d="M0 0 C3.54075407 1.18025136 4.04498083 1.90455298 6 5 C7.01965427 7.32481174 8.02059602 9.65794699 9 12 C9.99 13.485 9.99 13.485 11 15 C10.67 15.99 10.34 16.98 10 18 C8.32605999 15.37957157 6.6621165 12.75294095 5 10.125 C4.52304687 9.37863281 4.04609375 8.63226563 3.5546875 7.86328125 C3.10351562 7.14785156 2.65234375 6.43242187 2.1875 5.6953125 C1.76855469 5.03547363 1.34960938 4.37563477 0.91796875 3.69580078 C0 2 0 2 0 0 Z " fill="#3ED5EE" transform="translate(301,190)"/>
<path d="M0 0 C0.66 0.33 1.32 0.66 2 1 C1.21753906 1.53109375 0.43507813 2.0621875 -0.37109375 2.609375 C-1.88896484 3.66898437 -1.88896484 3.66898437 -3.4375 4.75 C-4.44683594 5.44609375 -5.45617187 6.1421875 -6.49609375 6.859375 C-8.99711793 8.99753608 -9.71855013 9.79580145 -10 13 C-11.65 12.67 -13.3 12.34 -15 12 C-10.58990583 7.14889642 -5.41995647 3.651893 0 0 Z " fill="#37D3EB" transform="translate(287,62)"/>
<path d="M0 0 C3.44419134 12.48519362 3.44419134 12.48519362 3 19 C2.67 19 2.34 19 2 19 C1.90203125 18.43152344 1.8040625 17.86304688 1.703125 17.27734375 C0.63191682 11.74584634 -1.06646539 7.79143986 -4 3 C-4 2.34 -4 1.68 -4 1 C-1 0 -1 0 0 0 Z " fill="#3CD4EC" transform="translate(461,233)"/>
<path d="M0 0 C4.25209792 4.12324647 8.13635705 8.51282966 12 13 C11.01 13 10.02 13 9 13 C8.319375 12.0409375 8.319375 12.0409375 7.625 11.0625 C6.1337227 8.75235447 6.1337227 8.75235447 3.3125 8.25 C2.549375 8.1675 1.78625 8.085 1 8 C1.33 6.68 1.66 5.36 2 4 C1.34 4 0.68 4 0 4 C0 2.68 0 1.36 0 0 Z " fill="#3AD6EC" transform="translate(265,108)"/>
<path d="M0 0 C3.76854223 1.25618074 4.07958456 2.66014706 6 6 C6.66 6.33 7.32 6.66 8 7 C9.1577506 10.47325181 9.06866652 13.36067448 9 17 C7.26039003 14.39058505 5.88338981 11.86723849 4.5 9.0625 C4.0771875 8.20785156 3.654375 7.35320312 3.21875 6.47265625 C2.61546875 5.24869141 2.61546875 5.24869141 2 4 C1.33423317 2.66621713 0.66790324 1.33271433 0 0 Z " fill="#41D6F2" transform="translate(360,68)"/>
<path d="M0 0 C4.67105792 1.55701931 8.08705685 4.08447373 12 7 C10.68 7.33 9.36 7.66 8 8 C7.67 7.01 7.34 6.02 7 5 C5.35 5 3.7 5 2 5 C1.67 5.66 1.34 6.32 1 7 C0 4 0 4 0 0 Z " fill="#2BD6F4" transform="translate(292,416)"/>
<path d="M0 0 C0.268125 0.639375 0.53625 1.27875 0.8125 1.9375 C1.88667752 4.33131686 1.88667752 4.33131686 5 5 C5 5.66 5 6.32 5 7 C0.03083364 6.48594831 -4.29026351 5.76615118 -9 4 C-5.98968256 3.06576355 -5.13349732 2.95550089 -2 4 C-2 3.34 -2 2.68 -2 2 C-1.34 2 -0.68 2 0 2 C0 1.34 0 0.68 0 0 Z " fill="#27D7F6" transform="translate(102,320)"/>
<path d="M0 0 C0.99 0.33 1.98 0.66 3 1 C3 1.66 3 2.32 3 3 C3.66 3 4.32 3 5 3 C8 8.75 8 8.75 8 11 C5.69 11.33 3.38 11.66 1 12 C1 11.34 1 10.68 1 10 C2.32 9.67 3.64 9.34 5 9 C3.35 6.03 1.7 3.06 0 0 Z " fill="#2FD4EE" transform="translate(174,311)"/>
<path d="M0 0 C0.66 1.32 1.32 2.64 2 4 C2.66 4 3.32 4 4 4 C4.33 6.97 4.66 9.94 5 13 C2.69 13.66 0.38 14.32 -2 15 C-1.67 14.01 -1.34 13.02 -1 12 C1.0625 11.3125 1.0625 11.3125 3 11 C2.7834375 10.45730469 2.566875 9.91460937 2.34375 9.35546875 C1.92609375 8.28232422 1.92609375 8.28232422 1.5 7.1875 C1.2215625 6.47980469 0.943125 5.77210938 0.65625 5.04296875 C0 3 0 3 0 0 Z " fill="#32D8F5" transform="translate(357,302)"/>
<path d="M0 0 C-5.445 4.455 -5.445 4.455 -11 9 C-11.33 8.01 -11.66 7.02 -12 6 C-11.67 5.34 -11.34 4.68 -11 4 C-10.34 4.33 -9.68 4.66 -9 5 C-9 4.34 -9 3.68 -9 3 C-8.01 3 -7.02 3 -6 3 C-6 2.01 -6 1.02 -6 0 C-4 -1 -4 -1 0 0 Z " fill="#2BD5F0" transform="translate(286,90)"/>
<path d="M0 0 C1.32 1.32 2.64 2.64 4 4 C3.195625 4.763125 2.39125 5.52625 1.5625 6.3125 C-1.16799024 8.79430898 -1.16799024 8.79430898 -2 12 C-2.66 12 -3.32 12 -4 12 C-2.66666667 8 -1.33333333 4 0 0 Z " fill="#2DD3F2" transform="translate(369,414)"/>
<path d="M0 0 C0.66 0.33 1.32 0.66 2 1 C-1.44069624 3.29379749 -2.72290301 4 -7 4 C-7 4.66 -7 5.32 -7 6 C-10.52948291 7.66670026 -12.28272326 8.13583456 -16 7 C-13.3789879 5.80293183 -10.75385304 4.61711354 -8.125 3.4375 C-7.00544922 2.92413086 -7.00544922 2.92413086 -5.86328125 2.40039062 C-3.93450668 1.54026143 -1.9688967 0.76383202 0 0 Z " fill="#3FD3EC" transform="translate(86,180)"/>
<path d="M0 0 C0.53625 0.680625 1.0725 1.36125 1.625 2.0625 C4.9403846 6.16310726 8.26892981 10.26892981 12 14 C10.35 14.33 8.7 14.66 7 15 C6.773125 14.29875 6.54625 13.5975 6.3125 12.875 C5.14944426 10.32735409 4.19872328 8.96787748 2.375 6.9375 C0 4 0 4 0 0 Z " fill="#36D2F0" transform="translate(132,422)"/>
<path d="M0 0 C5.68502535 1.64566523 10.76681636 4.29032784 16 7 C11.41201223 8.53271273 9.22055258 7.02911182 5 5 C5 4.34 5 3.68 5 3 C3.35 3 1.7 3 0 3 C0 2.01 0 1.02 0 0 Z " fill="#3CD9F3" transform="translate(304,424)"/>
<path d="M0 0 C4.42049045 1.2055883 7.11421977 2.39277472 10 6 C11.25 8.75 11.25 8.75 12 11 C7.81576108 7.49102731 3.80411834 3.91939465 0 0 Z " fill="#3CD5F2" transform="translate(441,219)"/>
<path d="M0 0 C0.66 0.33 1.32 0.66 2 1 C-4.435 5.95 -4.435 5.95 -11 11 C-11 7.4065708 -10.41382509 6.58029579 -8 4 C-5.5 2.875 -5.5 2.875 -3 2 C-2.01 1.34 -1.02 0.68 0 0 Z " fill="#3CD6F2" transform="translate(230,424)"/>
<path d="M0 0 C3.375 0.75 3.375 0.75 7 2 C8.125 3.8125 8.125 3.8125 9 6 C10.62746694 7.70496537 12.28891311 9.37897032 14 11 C10.50004453 9.43810398 7.72827143 7.33666309 4.75 4.9375 C3.85796875 4.22464844 2.9659375 3.51179688 2.046875 2.77734375 C1.37140625 2.19082031 0.6959375 1.60429687 0 1 C0 0.67 0 0.34 0 0 Z " fill="#38D6EC" transform="translate(264,420)"/>
<path d="M0 0 C1.32 0.33 2.64 0.66 4 1 C3.67 2.65 3.34 4.3 3 6 C2.34 6 1.68 6 1 6 C0.67 7.32 0.34 8.64 0 10 C-1.32 10.33 -2.64 10.66 -4 11 C-4 10.01 -4 9.02 -4 8 C-1.5 5.8125 -1.5 5.8125 1 4 C0.67 2.68 0.34 1.36 0 0 Z " fill="#2ED5F4" transform="translate(233,390)"/>
<path d="M0 0 C0.66 0.33 1.32 0.66 2 1 C-3.445 4.96 -3.445 4.96 -9 9 C-9.33 7.68 -9.66 6.36 -10 5 C-8.38007835 4.13624104 -6.75388139 3.28424146 -5.125 2.4375 C-4.22007812 1.96183594 -3.31515625 1.48617188 -2.3828125 0.99609375 C-1.20332031 0.50302734 -1.20332031 0.50302734 0 0 Z " fill="#31D9ED" transform="translate(451,297)"/>
<path d="M0 0 C1.8125 0.0625 1.8125 0.0625 4 1 C5.08301035 3.29598193 6.07796291 5.63477442 7 8 C8.56328365 10.33878876 8.56328365 10.33878876 10 12 C9.67 12.66 9.34 13.32 9 14 C7.49412261 12.04594482 5.99521356 10.08718716 4.5 8.125 C4.07074219 7.56941406 3.64148438 7.01382812 3.19921875 6.44140625 C0 2.2265625 0 2.2265625 0 0 Z " fill="#37D4EC" transform="translate(198,346)"/>
<path d="M0 0 C1.65 0 3.3 0 5 0 C5.33 0.66 5.66 1.32 6 2 C4.35 3.65 2.7 5.3 1 7 C1 5.68 1 4.36 1 3 C0.34 2.67 -0.32 2.34 -1 2 C-0.67 1.34 -0.34 0.68 0 0 Z " fill="#21D5F5" transform="translate(42,226)"/>
<path d="M0 0 C0.66 0.33 1.32 0.66 2 1 C2.33 1.99 2.66 2.98 3 4 C3.66 4.33 4.32 4.66 5 5 C5.625 7.5625 5.625 7.5625 6 10 C5.34 10 4.68 10 4 10 C4 9.01 4 8.02 4 7 C2.35 7.33 0.7 7.66 -1 8 C-1 4.88742431 -0.82638376 2.89234315 0 0 Z " fill="#18D8F5" transform="translate(147,214)"/>
<path d="M0 0 C0.75 1.6875 0.75 1.6875 1 4 C-1.19434113 7.41341953 -3.20764006 9.51014431 -7 11 C-6.33333333 9.66666667 -5.66666667 8.33333333 -5 7 C-4.505 5.948125 -4.01 4.89625 -3.5 3.8125 C-2 1 -2 1 0 0 Z " fill="#31D8F8" transform="translate(160,215)"/>
<path d="M0 0 C-2.11386464 2.11386464 -3.79267603 2.97008322 -6.5 4.1875 C-7.2940625 4.55230469 -8.088125 4.91710937 -8.90625 5.29296875 C-9.5971875 5.52628906 -10.288125 5.75960937 -11 6 C-11.66 5.67 -12.32 5.34 -13 5 C-8.82383994 0.37639422 -6.09215567 -0.16922655 0 0 Z " fill="#2FD2F2" transform="translate(89,202)"/>
<path d="M0 0 C0.66 0.33 1.32 0.66 2 1 C-0.16687491 3.27521866 -2.45620509 5.15794162 -5 7 C-6.32 6.34 -7.64 5.68 -9 5 C-7.54735962 4.1361871 -6.0876837 3.28419546 -4.625 2.4375 C-3.40683594 1.72400391 -3.40683594 1.72400391 -2.1640625 0.99609375 C-1.44992188 0.66738281 -0.73578125 0.33867187 0 0 Z " fill="#30D3F1" transform="translate(68,188)"/>
<path d="M0 0 C4.455 0.99 4.455 0.99 9 2 C9 3.98 9 5.96 9 8 C7.68 7.34 6.36 6.68 5 6 C5 4.68 5 3.36 5 2 C3.35 1.67 1.7 1.34 0 1 C0 0.67 0 0.34 0 0 Z " fill="#25D6F5" transform="translate(396,175)"/>
<path d="M0 0 C2.37531394 -0.0543965 4.74935883 -0.09385864 7.125 -0.125 C7.79015625 -0.14175781 8.4553125 -0.15851562 9.140625 -0.17578125 C13.49516056 -0.21847278 16.95600114 0.40003783 21 2 C21 2.66 21 3.32 21 4 C20.13375 3.690625 19.2675 3.38125 18.375 3.0625 C12.42986735 1.32696438 6.14860618 1.32405969 0 1 C0 0.67 0 0.34 0 0 Z " fill="#49D3EE" transform="translate(337,62)"/>
<path d="M0 0 C3.0319853 1.51599265 3.41024437 3.8596433 4.6875 6.9375 C5.14511719 8.01902344 5.60273437 9.10054688 6.07421875 10.21484375 C7 13 7 13 6 15 C2.47086025 9.98627748 0.38528505 6.16456078 0 0 Z " fill="#32D6EF" transform="translate(113,427)"/>
<path d="M0 0 C2 0 2 0 4.4375 2.125 C6.98843957 4.98702976 8.57989531 7.44973828 10 11 C9.67 11.66 9.34 12.32 9 13 C7.68227638 11.40012144 6.37098863 9.79494034 5.0625 8.1875 C4.33160156 7.29417969 3.60070312 6.40085937 2.84765625 5.48046875 C1 3 1 3 0 0 Z " fill="#3DD5F0" transform="translate(22,273)"/>
<path d="M0 0 C0.33 0.66 0.66 1.32 1 2 C0.67 2.66 0.34 3.32 0 4 C1.32 4.33 2.64 4.66 4 5 C2.68 6.32 1.36 7.64 0 9 C-0.99 7.35 -1.98 5.7 -3 4 C-2.01 2.68 -1.02 1.36 0 0 Z " fill="#1AD6F4" transform="translate(211,135)"/>
<path d="M0 0 C2.450137 1.14339727 2.91932617 2.40617594 3.875 4.875 C3.1325 4.483125 2.39 4.09125 1.625 3.6875 C0.7175 3.419375 -0.19 3.15125 -1.125 2.875 C-3.45011472 4.13852052 -3.45011472 4.13852052 -5.125 5.875 C-5.455 4.555 -5.785 3.235 -6.125 1.875 C-3.9269253 0.54045464 -2.59886397 -0.15287435 0 0 Z " fill="#2AD7F3" transform="translate(250.125,122.125)"/>
<path d="M0 0 C0.99 0.33 1.98 0.66 3 1 C-0.96 4.465 -0.96 4.465 -5 8 C-5.33 7.34 -5.66 6.68 -6 6 C-5.0625 3.375 -5.0625 3.375 -4 1 C-2.68 1.33 -1.36 1.66 0 2 C0 1.34 0 0.68 0 0 Z " fill="#31D3EF" transform="translate(242,413)"/>
<path d="M0 0 C1.12377697 3.30435084 0.89554742 5.0506862 -0.4375 8.25 C-0.72496094 8.95640625 -1.01242187 9.6628125 -1.30859375 10.390625 C-1.53675781 10.92171875 -1.76492188 11.4528125 -2 12 C-2.99 12 -3.98 12 -5 12 C-4.35550393 8.98782888 -3.34977818 6.48344164 -1.9375 3.75 C-1.57527344 3.04359375 -1.21304687 2.3371875 -0.83984375 1.609375 C-0.56269531 1.07828125 -0.28554688 0.5471875 0 0 Z " fill="#3FDDF4" transform="translate(349,215)"/>
<path d="M0 0 C1.25541557 3.76624671 0.37061958 5.37188934 -1 9 C-2.65 9.33 -4.3 9.66 -6 10 C-4.34832443 6.4213696 -2.21713508 3.25179812 0 0 Z " fill="#2DCEEC" transform="translate(207,140)"/>
<path d="M0 0 C2.31 0.66 4.62 1.32 7 2 C7.0825 2.61875 7.165 3.2375 7.25 3.875 C7.81258459 6.18437567 7.81258459 6.18437567 10.0625 7.25 C10.701875 7.4975 11.34125 7.745 12 8 C11.67 8.66 11.34 9.32 11 10 C9.16375669 8.52444734 7.3310715 7.04446569 5.5 5.5625 C4.4790625 4.73878906 3.458125 3.91507812 2.40625 3.06640625 C1.6121875 2.38449219 0.818125 1.70257813 0 1 C0 0.67 0 0.34 0 0 Z " fill="#44D7F2" transform="translate(218,93)"/>
<path d="M0 0 C0.33 0 0.66 0 1 0 C1.1875 2.375 1.1875 2.375 1 5 C0.01 5.66 -0.98 6.32 -2 7 C-2.33 7.99 -2.66 8.98 -3 10 C-3.99 10.33 -4.98 10.66 -6 11 C-4.55007731 6.89188572 -2.54592427 3.53144334 0 0 Z " fill="#39D1F3" transform="translate(301,309)"/>
<path d="M0 0 C0.99 0 1.98 0 3 0 C3.33 1.32 3.66 2.64 4 4 C4.66 4 5.32 4 6 4 C6.66 6.31 7.32 8.62 8 11 C4.31993178 7.61831569 2.0214155 4.57478244 0 0 Z " fill="#3ED5F3" transform="translate(211,268)"/>
<path d="M0 0 C1.98 0.66 3.96 1.32 6 2 C6 4.64 6 7.28 6 10 C3.47650757 6.87567603 1.72743854 3.61939504 0 0 Z " fill="#38D3F3" transform="translate(321,225)"/>
<path d="M0 0 C2.5 2.3125 2.5 2.3125 5 5 C5 5.99 5 6.98 5 8 C0.25 7.125 0.25 7.125 -2 6 C-2 5.34 -2 4.68 -2 4 C-1.34 4 -0.68 4 0 4 C0 2.68 0 1.36 0 0 Z " fill="#23D5F3" transform="translate(469,216)"/>
<path d="M0 0 C1.65 0 3.3 0 5 0 C2.24479785 2.95929119 -0.46627288 5.03681826 -4 7 C-4.33 5.68 -4.66 4.36 -5 3 C-4.34 2.67 -3.68 2.34 -3 2 C-2.01 2.33 -1.02 2.66 0 3 C0 2.01 0 1.02 0 0 Z " fill="#29D0EF" transform="translate(60,214)"/>
<path d="M0 0 C2.31 1.98 4.62 3.96 7 6 C5 7 5 7 1 7 C0.67 4.69 0.34 2.38 0 0 Z " fill="#26D2F3" transform="translate(48,272)"/>
<path d="M0 0 C2.64752004 2.57784846 4.94432065 4.91648098 7 8 C4.03 7.505 4.03 7.505 1 7 C0 2.25 0 2.25 0 0 Z " fill="#29D5F2" transform="translate(41,264)"/>
<path d="M0 0 C0.99 0.495 0.99 0.495 2 1 C1.01 1.495 1.01 1.495 0 2 C0 1.34 0 0.68 0 0 Z M-10 2 C-6.7 2 -3.4 2 0 2 C0 3.32 0 4.64 0 6 C-3.3 5.01 -6.6 4.02 -10 3 C-10 2.67 -10 2.34 -10 2 Z " fill="#3AD7F4" transform="translate(404,194)"/>
<path d="M0 0 C1.32 0.33 2.64 0.66 4 1 C1.69 3.97 -0.62 6.94 -3 10 C-4 7 -4 7 -3 4 C-2.01 4 -1.02 4 0 4 C0 2.68 0 1.36 0 0 Z " fill="#34D3EE" transform="translate(227,145)"/>
<path d="M0 0 C5.35048061 0.37328935 7.50912907 1.9957657 11 6 C10.01 6.33 9.02 6.66 8 7 C6.5 5.625 6.5 5.625 5 4 C5 3.34 5 2.68 5 2 C3.35 1.67 1.7 1.34 0 1 C0 0.67 0 0.34 0 0 Z " fill="#2CD6F2" transform="translate(180,47)"/>
<path d="M0 0 C5.75 1.625 5.75 1.625 8 5 C7.34 5 6.68 5 6 5 C5.67 5.66 5.34 6.32 5 7 C0 1.125 0 1.125 0 0 Z " fill="#27D5F6" transform="translate(215,369)"/>
<path d="M0 0 C0.33 0.66 0.66 1.32 1 2 C0.0625 4.625 0.0625 4.625 -1 7 C-1.66 7 -2.32 7 -3 7 C-3.33 8.65 -3.66 10.3 -4 12 C-4.66 12 -5.32 12 -6 12 C-4.68139111 7.38486888 -2.78644563 3.90102388 0 0 Z " fill="#3DD4F0" transform="translate(175,187)"/>
<path d="M0 0 C-1.32 0.33 -2.64 0.66 -4 1 C-4 1.99 -4 2.98 -4 4 C-6.97 3.505 -6.97 3.505 -10 3 C-10 2.34 -10 1.68 -10 1 C-3.375 -1.125 -3.375 -1.125 0 0 Z " fill="#20CFF6" transform="translate(150,164)"/>
<path d="M0 0 C0.66 1.32 1.32 2.64 2 4 C-1 6 -1 6 -4 6 C-4 6.66 -4 7.32 -4 8 C-4.66 7.67 -5.32 7.34 -6 7 C-4.02 4.69 -2.04 2.38 0 0 Z " fill="#31D2F1" transform="translate(228,115)"/>
<path d="M0 0 C4.05606165 0.46800711 7.46588679 0.87953208 11 3 C10 4 10 4 7.1875 4.3125 C4 4 4 4 1.625 2 C0.820625 1.01 0.820625 1.01 0 0 Z " fill="#26D8F7" transform="translate(221,281)"/>
<path d="M0 0 C3.09592835 3.5087188 4.74194623 6.49197399 6 11 C5.34 11 4.68 11 4 11 C3.71125 10.195625 3.4225 9.39125 3.125 8.5625 C2.26737432 5.8673532 2.26737432 5.8673532 0 5 C0 3.35 0 1.7 0 0 Z " fill="#3BD3F0" transform="translate(173,267)"/>
<path d="M0 0 C4.875 4.625 4.875 4.625 6 8 C5.01 8.33 4.02 8.66 3 9 C2.01 6.03 1.02 3.06 0 0 Z M1 9 C3 10 3 10 3 10 Z " fill="#30D9F2" transform="translate(291,140)"/>
<path d="M0 0 C1.32 0.33 2.64 0.66 4 1 C2.02 3.31 0.04 5.62 -2 8 C-2.33 6.68 -2.66 5.36 -3 4 C-2.01 4 -1.02 4 0 4 C-0.33 3.01 -0.66 2.02 -1 1 C-0.67 0.67 -0.34 0.34 0 0 Z " fill="#28D4F1" transform="translate(240,129)"/>
<path d="M0 0 C2.97 0.495 2.97 0.495 6 1 C6 2.65 6 4.3 6 6 C3.37812506 4.95125002 2.20628639 4.35068687 0.75 1.875 C0.5025 1.25625 0.255 0.6375 0 0 Z " fill="#2FD7F5" transform="translate(121,443)"/>
<path d="M0 0 C1.15957207 3.47871621 0.77456651 4.34219645 -0.4375 7.6875 C-0.72496094 8.49574219 -1.01242187 9.30398437 -1.30859375 10.13671875 C-1.65083984 11.05904297 -1.65083984 11.05904297 -2 12 C-3.15507777 8.06578773 -2.83585767 5.02731423 -2 1 C-1.34 0.67 -0.68 0.34 0 0 Z " fill="#3FD0F0" transform="translate(377,198)"/>
<path d="M0 0 C1.65 0 3.3 0 5 0 C1.80009492 2.74277578 -1.00499382 4.6302836 -5 6 C-5 5.34 -5 4.68 -5 4 C-4.34 4 -3.68 4 -3 4 C-3 3.34 -3 2.68 -3 2 C-2.01 2 -1.02 2 0 2 C0 1.34 0 0.68 0 0 Z " fill="#43D7F1" transform="translate(309,71)"/>
<path d="M0 0 C4.43458973 1.3937282 6.87378374 3.60582235 10 7 C6.66666667 5.66666667 3.33333333 4.33333333 0 3 C0 2.01 0 1.02 0 0 Z " fill="#3DD0F1" transform="translate(209,61)"/>
<path d="M0 0 C1.65 0 3.3 0 5 0 C5.33 0.99 5.66 1.98 6 3 C6.99 3 7.98 3 9 3 C9 3.66 9 4.32 9 5 C5.22454612 3.90931332 2.52956528 3.0916909 0 0 Z " fill="#35D6F0" transform="translate(60,307)"/>
<path d="M0 0 C0.66 0 1.32 0 2 0 C2.99 2.31 3.98 4.62 5 7 C1.34683329 5.75023244 0.21934164 5.32901247 -2 2 C-1.34 2 -0.68 2 0 2 C0 1.34 0 0.68 0 0 Z " fill="#2ED5F3" transform="translate(50,297)"/>
<path d="M0 0 C1 3 1 3 -0.25 6.125 C-2 9 -2 9 -5 10 C-3.66511872 6.40608886 -2.03977277 3.24509304 0 0 Z " fill="#39CFEE" transform="translate(317,282)"/>
<path d="M0 0 C0.66 0 1.32 0 2 0 C2.66 3.3 3.32 6.6 4 10 C0.89448334 6.89448334 0.18676066 5.10801767 -1 1 C-0.67 0.67 -0.34 0.34 0 0 Z " fill="#28D7F8" transform="translate(154,272)"/>
<path d="M0 0 C2.64465038 3.1254959 3.84414715 6.08788267 5 10 C4.34 10 3.68 10 3 10 C0.96564469 6.27034861 0 4.33094958 0 0 Z " fill="#37CFF0" transform="translate(166,253)"/>
<path d="M0 0 C0 0.99 0 1.98 0 3 C-3.63 3.33 -7.26 3.66 -11 4 C-7.61125486 1.74083657 -4.15175481 0 0 0 Z " fill="#37CFEB" transform="translate(326,44)"/>
<path d="M0 0 C0.99 0.33 1.98 0.66 3 1 C0.525 4.465 0.525 4.465 -2 8 C-2.33 7.01 -2.66 6.02 -3 5 C-1.5625 2.3125 -1.5625 2.3125 0 0 Z " fill="#36D4F1" transform="translate(286,364)"/>
<path d="M0 0 C0.99 0 1.98 0 3 0 C1.70700306 2.88437779 0.34058637 4.87219421 -2 7 C-2 5.35 -2 3.7 -2 2 C-1.34 2 -0.68 2 0 2 C0 1.34 0 0.68 0 0 Z " fill="#2AD4F0" transform="translate(291,357)"/>
<path d="M0 0 C0 0.99 0 1.98 0 3 C-4.455 3.495 -4.455 3.495 -9 4 C-3 0 -3 0 0 0 Z " fill="#32CCEE" transform="translate(421,293)"/>
<path d="M0 0 C0.66 0.33 1.32 0.66 2 1 C-1.465 3.97 -1.465 3.97 -5 7 C-4.1875 4.0625 -4.1875 4.0625 -3 1 C-2.01 0.67 -1.02 0.34 0 0 Z " fill="#2BCEEC" transform="translate(468,282)"/>
<path d="M0 0 C0.66 0.66 1.32 1.32 2 2 C1.34 2 0.68 2 0 2 C0 3.98 0 5.96 0 8 C-0.66 7.67 -1.32 7.34 -2 7 C-2.625 4.4375 -2.625 4.4375 -3 2 C-2.01 1.34 -1.02 0.68 0 0 Z " fill="#11D9FA" transform="translate(221,273)"/>
<path d="M0 0 C0.66 0 1.32 0 2 0 C2.625 2.8125 2.625 2.8125 3 6 C2.01 7.485 2.01 7.485 1 9 C0.34 9 -0.32 9 -1 9 C-0.67 6.03 -0.34 3.06 0 0 Z " fill="#38D3EF" transform="translate(140,247)"/>
<path d="M0 0 C0.33 0.99 0.66 1.98 1 3 C-0.32 4.32 -1.64 5.64 -3 7 C-3 5.02 -3 3.04 -3 1 C-2.01 0.67 -1.02 0.34 0 0 Z " fill="#26D3F8" transform="translate(197,189)"/>
<path d="M0 0 C0.99 0.33 1.98 0.66 3 1 C2.19152271 2.16945792 1.37810888 3.33550461 0.5625 4.5 C0.11003906 5.1496875 -0.34242188 5.799375 -0.80859375 6.46875 C-1.20175781 6.9740625 -1.59492188 7.479375 -2 8 C-2.33 8 -2.66 8 -3 8 C-3 6.35 -3 4.7 -3 3 C-2.01 3 -1.02 3 0 3 C0 2.01 0 1.02 0 0 Z " fill="#2FD7EC" transform="translate(234,137)"/>
<path d="M0 0 C1.98 0 3.96 0 6 0 C6.66 1.98 7.32 3.96 8 6 C4.63408134 4.55746343 2.48952921 2.66735273 0 0 Z " fill="#28D0F1" transform="translate(207,84)"/>
<path d="M0 0 C0 0.66 0 1.32 0 2 C-0.66 2 -1.32 2 -2 2 C-2 2.66 -2 3.32 -2 4 C-3.98 4.33 -5.96 4.66 -8 5 C-3.16129032 0 -3.16129032 0 0 0 Z " fill="#2FD0F1" transform="translate(297,57)"/>
<path d="M0 0 C2.64 0 5.28 0 8 0 C6.1875 2 6.1875 2 4 4 C3.01 4 2.02 4 1 4 C0.67 2.68 0.34 1.36 0 0 Z " fill="#2FDEF6" transform="translate(365,449)"/>
<path d="M0 0 C1.65 0 3.3 0 5 0 C5.66 1.65 6.32 3.3 7 5 C3.34683329 3.75023244 2.21934164 3.32901247 0 0 Z " fill="#2FD4F4" transform="translate(127,449)"/>
<path d="M0 0 C1.32 0.33 2.64 0.66 4 1 C-0.75 4.875 -0.75 4.875 -3 6 C-3 4.68 -3 3.36 -3 2 C-2.01 2 -1.02 2 0 2 C0 1.34 0 0.68 0 0 Z " fill="#2FD4F1" transform="translate(248,407)"/>
<path d="M0 0 C2.66735273 2.48952921 4.55746343 4.63408134 6 8 C3.5625 7.375 3.5625 7.375 1 6 C0.1875 2.875 0.1875 2.875 0 0 Z " fill="#3DD9ED" transform="translate(202,316)"/>
<path d="M0 0 C4.42857143 5.14285714 4.42857143 5.14285714 5 9 C4.01 8.67 3.02 8.34 2 8 C2 6.68 2 5.36 2 4 C1.34 4 0.68 4 0 4 C0 2.68 0 1.36 0 0 Z " fill="#32D5ED" transform="translate(179,278)"/>
<path d="M0 0 C1.485 0.99 1.485 0.99 3 2 C3.66 2.33 4.32 2.66 5 3 C3.35 4.32 1.7 5.64 0 7 C-0.93423645 3.98968256 -1.04449911 3.13349732 0 0 Z " fill="#27D2F1" transform="translate(50,219)"/>
<path d="M0 0 C1.65 1.65 3.3 3.3 5 5 C4.67 5.66 4.34 6.32 4 7 C2.68 7 1.36 7 0 7 C0 4.69 0 2.38 0 0 Z " fill="#27D2F3" transform="translate(297,148)"/>
<path d="M0 0 C1.32 0.66 2.64 1.32 4 2 C1.03 4.475 1.03 4.475 -2 7 C-2.33 6.01 -2.66 5.02 -3 4 C-2.01 4 -1.02 4 0 4 C0 2.68 0 1.36 0 0 Z " fill="#3CD9F3" transform="translate(267,101)"/>
</svg>
