<?xml version="1.0" encoding="UTF-8"?>
<svg version="1.1" xmlns="http://www.w3.org/2000/svg" width="300" height="163">
<path d="M0 0 C5.63652254 1.02197555 7.88377494 5.77000637 11 10.1875 C14.48829626 15.24396659 17.86790005 20.3722217 21.25 25.5 C23.19322638 28.43628104 25.13914755 31.37076818 27.0859375 34.3046875 C27.57567047 35.04321457 28.06540344 35.78174164 28.56997681 36.54264832 C31.89960667 41.55530989 35.2672731 46.54044721 38.6640625 51.5078125 C39.10842651 52.15830063 39.55279053 52.80878876 40.01062012 53.47898865 C42.12122023 56.56673203 44.23731645 59.65053115 46.36035156 62.72973633 C47.10510742 63.81794678 47.84986328 64.90615723 48.6171875 66.02734375 C49.27315918 66.97988037 49.92913086 67.93241699 50.60498047 68.91381836 C52 71.1875 52 71.1875 52 73.1875 C71.68453207 63.48880024 91.26789125 53.50745422 110.5 42.9375 C113.99947602 41.01987528 117.49961598 39.10346669 121 37.1875 C122.01723145 36.6291748 123.03446289 36.07084961 124.08251953 35.49560547 C127.2346336 33.77369287 130.39708974 32.07232169 133.5625 30.375 C134.53316406 29.84036133 135.50382812 29.30572266 136.50390625 28.75488281 C137.41140625 28.27245117 138.31890625 27.79001953 139.25390625 27.29296875 C140.44995483 26.64557739 140.44995483 26.64557739 141.67016602 25.98510742 C144.51837417 25.0100371 146.15155818 25.31495177 149 26.1875 C150 27.1875 150 27.1875 150.29638672 30.60498047 C150.21560955 36.02968631 148.29221053 40.54264129 146.2578125 45.5078125 C145.86256378 46.50412186 145.46731506 47.50043121 145.06008911 48.52693176 C143.76088905 51.7939317 142.44295343 55.05302582 141.125 58.3125 C140.21569316 60.59000606 139.30783365 62.86809047 138.40136719 65.14672852 C136.53313395 69.84009646 134.65874218 74.53093484 132.78027344 79.22021484 C128.92394111 88.86338952 125.15392241 98.54007506 121.38323975 108.21697998 C118.93337077 114.50361795 116.47963229 120.7886447 114.00585938 127.06591797 C112.60558265 130.62296741 111.237765 134.19082874 109.88476562 137.76611328 C109.18897484 139.57461075 108.49301699 141.38304394 107.796875 143.19140625 C107.48897034 144.02236313 107.18106567 144.85332001 106.86383057 145.7094574 C104.5022995 151.78420916 101.80448447 155.48112416 96.11499023 158.94287109 C92.69784249 160.30823038 89.82203953 160.77779613 86.16015625 161.1015625 C84.84853516 161.22273437 83.53691406 161.34390625 82.18554688 161.46875 C80.8112103 161.58348176 79.43686129 161.69806471 78.0625 161.8125 C76.72320995 161.93382602 75.3840157 162.05621452 74.04492188 162.1796875 C70.03181648 162.54195391 66.01780248 162.88164775 62 163.1875 C60.9696312 163.27189331 59.93926239 163.35628662 58.87767029 163.4432373 C48.08861934 164.25861998 37.34240088 164.36880642 26.52734375 164.390625 C25.08007998 164.39486607 25.08007998 164.39486607 23.60357857 164.39919281 C18.47635767 164.41410002 13.3491642 164.42337741 8.22192383 164.42773438 C4.07339482 164.43207754 -0.07492135 164.44581844 -4.22338867 164.46875 C-25.30320438 164.58286023 -46.28585472 164.49818981 -67.30859375 162.796875 C-68.0896303 162.73412636 -68.87066685 162.67137772 -69.67537117 162.6067276 C-94.92723985 160.51967964 -94.92723985 160.51967964 -101 155.1875 C-104.15152915 150.91159921 -106.25392121 146.54225002 -108.1171875 141.6015625 C-108.4069194 140.85208847 -108.69665131 140.10261444 -108.99516296 139.33042908 C-109.62773614 137.69173651 -110.25699668 136.05176222 -110.8833313 134.41067505 C-112.25392058 130.81972691 -113.64045444 127.23499749 -115.02583313 123.6497345 C-115.78274847 121.69040626 -116.53881814 119.73075115 -117.29411316 117.77079773 C-120.39890781 109.71938919 -123.54158502 101.68315973 -126.69921875 93.65234375 C-126.94188728 93.03515472 -127.18455582 92.4179657 -127.43457794 91.78207397 C-128.65959209 88.66699555 -129.88517521 85.5521414 -131.11114502 82.43743896 C-132.53213471 78.8271487 -133.95253052 75.21662563 -135.37255859 71.60595703 C-135.82238098 70.46247803 -136.27220337 69.31899902 -136.73565674 68.14086914 C-137.61248162 65.9092145 -138.48780364 63.67696872 -139.36151123 61.4440918 C-141.28017513 56.54232086 -143.21208612 51.64833526 -145.20654297 46.77685547 C-145.70431496 45.54502785 -145.70431496 45.54502785 -146.21214294 44.28831482 C-146.81250321 42.80467462 -147.42186414 41.32462372 -148.04286194 39.84950256 C-149.79182291 35.49327396 -150.54548745 31.87242458 -150 27.1875 C-147 25.1875 -147 25.1875 -144.69116211 25.37768555 C-141.54967809 26.32300919 -138.85171137 27.62711242 -135.94140625 29.14453125 C-135.36503922 29.44320099 -134.78867218 29.74187073 -134.19483948 30.04959106 C-132.31400087 31.02670195 -130.43821049 32.01308561 -128.5625 33 C-127.24414449 33.68790081 -125.92562045 34.37547872 -124.60693359 35.06274414 C-116.20481086 39.45271048 -107.86808236 43.95451136 -99.56884766 48.53613281 C-89.92713269 53.83206098 -80.13504194 58.83623155 -70.34228516 63.84545898 C-69.69398239 64.17774506 -69.04567963 64.51003113 -68.37773132 64.85238647 C-66.60737636 65.75939281 -64.83583193 66.66407639 -63.06420898 67.56860352 C-60 69.1875 -60 69.1875 -57.28149414 70.89819336 C-55.00146561 72.43349486 -55.00146561 72.43349486 -52 72.1875 C-50.51572992 70.59409132 -50.51572992 70.59409132 -49.18774414 68.41821289 C-48.64610123 67.59217056 -48.10445831 66.76612823 -47.54640198 65.91505432 C-46.96519089 65.00593796 -46.3839798 64.09682159 -45.78515625 63.16015625 C-45.17417587 62.22384872 -44.5631955 61.2875412 -43.93370056 60.32286072 C-41.9667064 57.30489382 -40.01402889 54.27798558 -38.0625 51.25 C-35.51648988 47.3211071 -32.96452641 43.39611805 -30.41015625 39.47265625 C-29.78575653 38.51166519 -29.16135681 37.55067413 -28.51803589 36.56056213 C-24.10351573 29.79528462 -19.54732083 23.14868753 -14.82984924 16.59120178 C-12.14339466 12.85323535 -9.6413194 9.0628503 -7.25 5.125 C-5.11668554 2.11143443 -3.74161669 0.49983429 0 0 Z " fill="#FE4949" transform="translate(150,-1.1875)"/>
<path d="M0 0 C5.63652254 1.02197555 7.88377494 5.77000637 11 10.1875 C14.48829626 15.24396659 17.86790005 20.3722217 21.25 25.5 C23.19322638 28.43628104 25.13914755 31.37076818 27.0859375 34.3046875 C27.57567047 35.04321457 28.06540344 35.78174164 28.56997681 36.54264832 C31.89960667 41.55530989 35.2672731 46.54044721 38.6640625 51.5078125 C39.10842651 52.15830063 39.55279053 52.80878876 40.01062012 53.47898865 C42.12122023 56.56673203 44.23731645 59.65053115 46.36035156 62.72973633 C47.10510742 63.81794678 47.84986328 64.90615723 48.6171875 66.02734375 C49.27315918 66.97988037 49.92913086 67.93241699 50.60498047 68.91381836 C52 71.1875 52 71.1875 52 73.1875 C71.68453207 63.48880024 91.26789125 53.50745422 110.5 42.9375 C113.99947602 41.01987528 117.49961598 39.10346669 121 37.1875 C122.01723145 36.6291748 123.03446289 36.07084961 124.08251953 35.49560547 C127.2346336 33.77369287 130.39708974 32.07232169 133.5625 30.375 C134.53316406 29.84036133 135.50382813 29.30572266 136.50390625 28.75488281 C137.41140625 28.27245117 138.31890625 27.79001953 139.25390625 27.29296875 C140.44995483 26.64557739 140.44995483 26.64557739 141.67016602 25.98510742 C144.51837417 25.0100371 146.15155818 25.31495177 149 26.1875 C150 27.1875 150 27.1875 150.29638672 30.60498047 C150.21560955 36.02968631 148.29221053 40.54264129 146.2578125 45.5078125 C145.86256378 46.50412186 145.46731506 47.50043121 145.06008911 48.52693176 C143.76088905 51.7939317 142.44295343 55.05302582 141.125 58.3125 C140.21569316 60.59000606 139.30783365 62.86809047 138.40136719 65.14672852 C136.53313395 69.84009646 134.65874218 74.53093484 132.78027344 79.22021484 C128.92394111 88.86338952 125.15392241 98.54007506 121.38323975 108.21697998 C118.93398703 114.50203658 116.48069881 120.78544435 114.00976562 127.06201172 C112.60379094 130.63459717 111.2215883 134.21549998 109.84960938 137.80126953 C109.14478122 139.61891206 108.43971127 141.43646084 107.734375 143.25390625 C107.41809143 144.09324203 107.10180786 144.93257782 106.77593994 145.79734802 C105.1008141 150.07860882 103.65973549 153.2009414 100 156.1875 C99.15107178 155.73536133 98.30214355 155.28322266 97.42749023 154.81738281 C80.82574201 145.97731292 64.2043934 137.17962501 47.51855469 128.49902344 C35.15390271 122.06019924 22.85288127 115.50646405 10.57345581 108.90673828 C2.04367806 104.32435797 -6.52236045 99.81960865 -15.125 95.375 C-27.58379456 88.93390514 -39.83079409 82.15713611 -52 75.1875 C-52 71.75001958 -51.3864103 70.88508638 -49.52832031 68.07763672 C-48.98645081 67.25182098 -48.4445813 66.42600525 -47.8862915 65.57516479 C-47.28959656 64.68153229 -46.69290161 63.78789978 -46.078125 62.8671875 C-45.46289978 61.93512482 -44.84767456 61.00306213 -44.21380615 60.04275513 C-42.90211282 58.05842982 -41.58708805 56.07630339 -40.26904297 54.09619141 C-38.29322105 51.12744133 -36.32730689 48.15234475 -34.36328125 45.17578125 C-27.99349406 35.54643641 -21.55155621 25.98200849 -14.82037354 16.60067749 C-12.14058204 12.85844552 -9.64217837 9.06144663 -7.25 5.125 C-5.11668554 2.11143443 -3.74161669 0.49983429 0 0 Z " fill="#BE3D40" transform="translate(150,-1.1875)"/>
<path d="M0 0 C1 1 1 1 1.29638672 4.41748047 C1.21560958 9.84218456 -0.70778586 14.35514433 -2.7421875 19.3203125 C-3.33512856 20.81491249 -3.33512856 20.81491249 -3.94004822 22.33970642 C-5.2392298 25.60660312 -6.55712902 28.86560332 -7.875 32.125 C-8.7835843 34.40103736 -9.69071141 36.67765693 -10.59643555 38.95483398 C-12.46383723 43.64677722 -14.3374387 48.33617245 -16.21533203 53.02392578 C-20.08856018 62.70775222 -23.88123313 72.42289192 -27.67169189 82.13934326 C-28.77868704 84.97585915 -29.88768627 87.81158146 -30.99755859 90.64697266 C-35.34701887 101.75871045 -39.6798399 112.87683893 -44 124 C-48.11563064 122.62812312 -49.40589033 119.818472 -51.6640625 116.328125 C-52.12525482 115.63015305 -52.58644714 114.93218109 -53.06161499 114.21305847 C-54.59015355 111.89682598 -56.10752182 109.57349065 -57.625 107.25 C-59.78051604 103.97305672 -61.94118335 100.69951978 -64.1015625 97.42578125 C-64.6597467 96.57818741 -65.21793091 95.73059357 -65.79302979 94.85731506 C-69.8581998 88.69481031 -73.98604897 82.57765649 -78.1484375 76.48046875 C-78.72566559 75.63354462 -79.30289368 74.78662048 -79.89761353 73.91403198 C-82.15536399 70.60224123 -84.4134834 67.29079672 -86.68389893 63.9876709 C-88.25368091 61.70289886 -89.81507265 59.41260053 -91.375 57.12109375 C-91.84569916 56.44145065 -92.31639832 55.76180756 -92.80136108 55.06156921 C-96 50.34096846 -96 50.34096846 -96 47 C-95.23671387 46.60844727 -94.47342773 46.21689453 -93.68701172 45.81347656 C-74.80653362 36.12604944 -74.80653362 36.12604944 -56.125 26.0625 C-45.75508883 20.33786662 -35.23715711 14.9140415 -24.69384766 9.51782227 C-24.05779602 9.19168442 -23.42174438 8.86554657 -22.76641846 8.52952576 C-21.52766666 7.89481479 -20.28806069 7.26176771 -19.04754639 6.63050842 C-14.89758256 4.50626507 -10.88146318 2.22036227 -6.94067383 -0.26977539 C-4.31862217 -1.25638459 -2.64566799 -0.78180756 0 0 Z " fill="#7E3238" transform="translate(299,25)"/>
</svg>
